<svg width="30" height="29" viewBox="0 0 30 29" fill="none" xmlns="http://www.w3.org/2000/svg">
<circle cx="15" cy="14.5" r="14.5" fill="#D9D9D9"/>
<path d="M20.25 9.46875H18.9725L18.5472 8.19043C18.2786 7.38543 17.5278 6.84375 16.6791 6.84375H13.3209C12.4722 6.84375 11.7214 7.38543 11.4528 8.19043L11.0275 9.46875H9.75C7.63425 9.46875 6.46875 10.6342 6.46875 12.75V19.75C6.46875 21.8658 7.63425 23.0312 9.75 23.0312H20.25C22.3658 23.0312 23.5312 21.8658 23.5312 19.75V12.75C23.5312 10.6342 22.3658 9.46875 20.25 9.46875ZM22.2188 19.75C22.2188 21.1299 21.6299 21.7188 20.25 21.7188H9.75C8.37012 21.7188 7.78125 21.1299 7.78125 19.75V12.75C7.78125 11.3701 8.37012 10.7812 9.75 10.7812H11.5C11.7826 10.7812 12.0328 10.6002 12.1229 10.3324L12.6989 8.60422C12.7881 8.33559 13.0383 8.1554 13.3209 8.1554H16.6791C16.9617 8.1554 17.2119 8.33559 17.3011 8.60422L17.8771 10.3316C17.9672 10.5993 18.2174 10.7804 18.5 10.7804H20.25C21.6299 10.7804 22.2188 11.3693 22.2188 12.7491V19.75ZM15 12.9688C13.1914 12.9688 11.7188 14.4405 11.7188 16.25C11.7188 18.0595 13.1914 19.5312 15 19.5312C16.8086 19.5312 18.2812 18.0595 18.2812 16.25C18.2812 14.4405 16.8086 12.9688 15 12.9688ZM15 18.2188C13.915 18.2188 13.0312 17.3359 13.0312 16.25C13.0312 15.1641 13.915 14.2812 15 14.2812C16.085 14.2812 16.9688 15.1641 16.9688 16.25C16.9688 17.3359 16.085 18.2188 15 18.2188ZM20.6875 13.1875C20.6875 13.6705 20.2955 14.0625 19.8125 14.0625C19.3295 14.0625 18.9375 13.6705 18.9375 13.1875C18.9375 12.7045 19.3295 12.3125 19.8125 12.3125C20.2955 12.3125 20.6875 12.7045 20.6875 13.1875Z" fill="#4B74FF"/>
</svg>
