<svg width="26" height="26" viewBox="0 0 26 26" fill="none" xmlns="http://www.w3.org/2000/svg">
<path d="M1.75 25.1875C1.62875 25.1875 1.50736 25.1637 1.39111 25.1162C1.04111 24.9712 0.8125 24.6287 0.8125 24.25V5.5C0.8125 2.4775 2.4775 0.8125 5.5 0.8125H20.5C23.5225 0.8125 25.1875 2.4775 25.1875 5.5V16.75C25.1875 19.7725 23.5225 21.4375 20.5 21.4375H5.88879L2.41376 24.9125C2.23376 25.0925 1.99375 25.1875 1.75 25.1875ZM5.5 2.6875C3.52875 2.6875 2.6875 3.52875 2.6875 5.5V21.9862L4.83746 19.8362C5.01371 19.66 5.25125 19.5613 5.5 19.5613H20.5C22.4713 19.5613 23.3125 18.72 23.3125 16.7488V5.49878C23.3125 3.52753 22.4713 2.68628 20.5 2.68628H5.5V2.6875ZM18.9375 8.625C18.9375 8.1075 18.5175 7.6875 18 7.6875H8C7.4825 7.6875 7.0625 8.1075 7.0625 8.625C7.0625 9.1425 7.4825 9.5625 8 9.5625H18C18.5175 9.5625 18.9375 9.1425 18.9375 8.625ZM15.1875 13.625C15.1875 13.1075 14.7675 12.6875 14.25 12.6875H8C7.4825 12.6875 7.0625 13.1075 7.0625 13.625C7.0625 14.1425 7.4825 14.5625 8 14.5625H14.25C14.7675 14.5625 15.1875 14.1425 15.1875 13.625Z" fill="white"/>
</svg>
