<svg width="21" height="20" viewBox="0 0 21 20" fill="none" xmlns="http://www.w3.org/2000/svg">
    <path
        d="M16.875 4.25H8.125C5.948 4.25 4.75 5.448 4.75 7.625V16.375C4.75 18.552 5.948 19.75 8.125 19.75H16.875C19.052 19.75 20.25 18.552 20.25 16.375V7.625C20.25 5.448 19.052 4.25 16.875 4.25ZM18.75 16.375C18.75 17.707 18.207 18.25 16.875 18.25H8.125C6.793 18.25 6.25 17.707 6.25 16.375V7.625C6.25 6.293 6.793 5.75 8.125 5.75H16.875C18.207 5.75 18.75 6.293 18.75 7.625V16.375ZM2.25 3.62V12.38C2.25 13.578 2.73309 13.873 2.89209 13.971C3.24609 14.187 3.35589 14.649 3.13989 15.002C2.99789 15.233 2.75202 15.36 2.49902 15.36C2.36602 15.36 2.22991 15.324 2.10791 15.25C1.20691 14.698 0.75 13.733 0.75 12.38V3.62C0.75 1.478 1.97912 0.25 4.12012 0.25H12.8799C14.5649 0.25 15.37 0.988971 15.75 1.60797C15.966 1.96097 15.855 2.42298 15.502 2.63898C15.148 2.85598 14.6879 2.74399 14.4709 2.39099C14.3739 2.23199 14.0779 1.74902 12.8799 1.74902H4.12012C2.79212 1.75002 2.25 2.292 2.25 3.62Z"
        fill="currentColor" />
</svg>