<svg width="18" height="18" viewBox="0 0 18 18" fill="none" xmlns="http://www.w3.org/2000/svg">
<path d="M16.1585 7.76682C16.6168 8.52516 16.6168 9.47513 16.1585 10.2335C15.1335 11.9418 12.8417 14.8335 9.00006 14.8335C8.37673 14.8335 7.7901 14.7543 7.2451 14.6168C7.05926 14.5701 7.00082 14.3319 7.13666 14.1969L8.71665 12.6169C8.81332 12.5202 8.93339 12.5418 9.00006 12.5418C10.9534 12.5418 12.5417 10.9526 12.5417 9.00014C12.5417 8.93348 12.5318 8.80177 12.6009 8.7326L14.8859 6.44765C14.9917 6.34182 15.17 6.35273 15.2625 6.47023C15.6291 6.93357 15.9276 7.37766 16.1585 7.76682ZM16.9418 1.94183L1.94175 16.9418C1.82008 17.0635 1.66006 17.1251 1.50006 17.1251C1.34006 17.1251 1.18004 17.0643 1.05837 16.9418C0.814202 16.6977 0.814202 16.3018 1.05837 16.0576L4.14593 12.9701C3.0876 12.0692 2.31999 11.0301 1.84165 10.2326C1.38332 9.47431 1.38332 8.52434 1.84165 7.76601C2.86665 6.05768 5.15839 3.16599 9.00006 3.16599C10.5201 3.16599 11.7893 3.62175 12.8443 4.27175L16.0584 1.05764C16.3025 0.81347 16.6984 0.81347 16.9426 1.05764C17.1867 1.3018 17.1859 1.69767 16.9418 1.94183ZM6.10008 11.0159L7.00747 10.1085C6.82247 9.77937 6.70839 9.40514 6.70839 9.00014C6.70839 8.70848 6.76668 8.43348 6.86668 8.17515C7.02501 8.30848 7.22497 8.39182 7.44997 8.39182C7.96664 8.39182 8.39174 7.96672 8.39174 7.45005C8.39174 7.22505 8.3084 7.02509 8.17507 6.86676C8.4334 6.76676 8.70839 6.70847 9.00006 6.70847C9.40506 6.70847 9.78013 6.82255 10.1085 7.00755L11.0158 6.10016C10.4425 5.69849 9.74923 5.45847 9.00006 5.45847C7.05006 5.45847 5.45839 7.05014 5.45839 9.00014C5.45839 9.75014 5.69841 10.4426 6.10008 11.0159Z" fill="#727688"/>
</svg>
