<svg width="16" height="23" viewBox="0 0 16 23" fill="none" xmlns="http://www.w3.org/2000/svg">
<path d="M15.8 7.84514C15.8 3.5214 12.254 0 7.9 0C3.50114 0 0 3.5214 0 7.84514C0 11.8569 2.9625 15.1108 6.82273 15.6457V17.4733H4.66818C4.03977 17.4733 3.59091 17.9636 3.59091 18.5431C3.59091 19.1671 4.03977 19.6128 4.66818 19.6128H6.82273V21.7524C6.82273 22.3765 7.27159 22.8222 7.9 22.8222C8.48352 22.8222 8.97727 22.3765 8.97727 21.7524V19.6128H11.1318C11.7153 19.6128 12.2091 19.1671 12.2091 18.5431C12.2091 17.9636 11.7153 17.4733 11.1318 17.4733H8.97727V15.6457C12.7926 15.1108 15.8 11.8123 15.8 7.84514ZM2.15455 7.84514C2.15455 4.72491 4.71307 2.13958 7.9 2.13958C11.042 2.13958 13.6455 4.72491 13.6455 7.84514C13.6455 11.0099 11.042 13.5507 7.9 13.5507C4.71307 13.5507 2.15455 11.0099 2.15455 7.84514Z" fill="#DF2D2D"/>
</svg>
