<svg width="15" height="22" viewBox="0 0 15 22" fill="none" xmlns="http://www.w3.org/2000/svg">
<path d="M6.97651 0C7.20805 0 7.44509 0 7.67662 0C7.68765 0.0114643 7.69867 0.0343929 7.71521 0.0401251C8.19481 0.114643 8.5807 0.361126 8.87838 0.74518C8.96107 0.854091 9.0162 0.82543 9.10991 0.773841C9.86514 0.349661 10.7968 0.481501 11.4032 1.08911C11.8607 1.54195 12.0371 2.10943 12.0151 2.75717C12.0041 3.05524 12.0151 3.34758 12.0151 3.66285C12.412 3.52527 12.7813 3.48515 13.1617 3.5826C14.0823 3.81761 14.6667 4.60292 14.6667 5.62324C14.6667 8.54091 14.6667 11.4528 14.6612 14.3705C14.6612 14.8233 14.6171 15.2705 14.5454 15.7176C14.0492 18.7441 11.756 21.209 8.86184 21.8338C8.57518 21.8968 8.28301 21.8968 8.00738 22C7.5388 22 7.07023 22 6.60165 22C6.57409 21.9255 6.50794 21.9541 6.45832 21.9484C5.444 21.8108 4.48479 21.4956 3.6138 20.9338C1.41976 19.518 0.1739 17.4601 0.0471086 14.7718C-0.0410939 12.9432 0.0195453 11.1089 0.0305706 9.27462C0.0360833 8.44346 0.554273 7.71548 1.30399 7.42314C1.76706 7.24544 2.23012 7.26837 2.70972 7.42887C2.70972 7.33716 2.70972 7.2569 2.70972 7.17665C2.70972 5.89265 2.69869 4.61438 2.71523 3.33038C2.73177 1.92027 4.01071 0.974466 5.30067 1.41584C5.42195 1.45597 5.46605 1.4617 5.52117 1.3184C5.7527 0.682126 6.19372 0.269411 6.81665 0.074518C6.87177 0.0573215 6.94344 0.074518 6.97651 0ZM13.4153 10.1287C13.4208 10.1287 13.4208 10.1287 13.4153 10.1287C13.4208 8.62689 13.4208 7.11933 13.4208 5.61751C13.4208 5.23346 13.2224 4.94111 12.9026 4.85513C12.4396 4.72903 12.0151 5.07295 12.0096 5.58885C12.0041 7.03335 12.0041 8.48359 11.9985 9.92809C11.9985 10.0255 11.993 10.1287 11.9765 10.2262C11.9269 10.4956 11.7174 10.6905 11.4528 10.7306C11.2157 10.7707 10.9511 10.6274 10.8299 10.3981C10.7527 10.2548 10.7472 10.1001 10.7527 9.93955C10.7582 7.50339 10.7637 5.06722 10.7692 2.63679C10.7692 2.10943 10.4219 1.77697 9.94232 1.84002C9.56746 1.88588 9.33042 2.18968 9.33042 2.61959C9.3249 4.82074 9.3249 7.01615 9.31939 9.2173C9.31939 9.66441 9.06581 9.96821 8.69646 9.96821C8.32711 9.96821 8.07353 9.67014 8.07353 9.2173C8.07353 9.17718 8.07353 9.13132 8.07353 9.09119C8.07904 7.08494 8.08456 5.07869 8.09007 3.07243C8.09007 2.73424 8.09558 2.40177 8.09007 2.06357C8.08456 1.70245 7.89713 1.42731 7.58842 1.32986C7.09228 1.16936 6.64575 1.51902 6.64024 2.08077C6.64024 4.44242 6.64024 6.8098 6.64024 9.17144C6.64024 9.28609 6.64024 9.40073 6.60717 9.50964C6.51896 9.77332 6.33705 9.92809 6.07795 9.95675C5.82988 9.98541 5.63694 9.8765 5.49361 9.66441C5.39438 9.5211 5.39438 9.35487 5.39438 9.18864C5.39438 7.2913 5.39438 5.39396 5.39438 3.49661C5.39438 3.3877 5.38887 3.27879 5.37233 3.17561C5.31721 2.88327 5.07465 2.65399 4.7935 2.61386C4.30839 2.55081 3.96661 2.87754 3.96661 3.4049C3.96661 6.25378 3.96661 9.10839 3.96109 11.9573C3.96109 12.1292 4.02724 12.1636 4.15955 12.2038C5.38336 12.5706 6.16615 13.396 6.49691 14.6743C6.65127 15.2647 6.58512 15.8723 6.59063 16.4685C6.59614 16.8869 6.33153 17.1793 5.97321 17.1793C5.60938 17.1793 5.35028 16.8812 5.34477 16.4513C5.34477 16.1532 5.34477 15.8494 5.34477 15.5513C5.33926 14.3304 4.58402 13.4878 3.40983 13.3903C2.9192 13.3502 2.72075 13.1266 2.72075 12.6222C2.72075 11.5618 2.72075 10.5013 2.72075 9.44086C2.72075 9.30902 2.70972 9.18291 2.66562 9.06253C2.54434 8.73007 2.20807 8.53517 1.86628 8.59823C1.53001 8.65555 1.28194 8.97082 1.28194 9.34914C1.28194 11.1089 1.28194 12.8744 1.28746 14.6342C1.28746 14.8807 1.32053 15.1329 1.35912 15.3794C1.92141 19.1683 5.64796 21.5701 9.15952 20.4179C11.7174 19.581 13.4153 17.1793 13.4263 14.359C13.4208 12.9547 13.4153 11.5388 13.4153 10.1287Z" fill="#0B224B"/>
</svg>
