<svg width="25" height="25" viewBox="0 0 25 25" fill="none" xmlns="http://www.w3.org/2000/svg">
<path d="M21.6599 17.134C22.0399 15.594 22.25 14.005 22.25 12.5C22.25 7.124 17.876 2.75 12.5 2.75C7.124 2.75 2.75 7.124 2.75 12.5C2.75 14.005 2.96009 15.593 3.34009 17.134C3.34709 17.167 3.346 17.1999 3.354 17.2319C3.372 17.3049 3.39604 17.3721 3.41504 17.4441C3.43704 17.5291 3.45405 17.616 3.47705 17.7C3.48205 17.72 3.49693 17.733 3.50293 17.752C3.59793 18.098 3.68912 18.4489 3.79712 18.7759L4.27002 20.3091C4.63402 21.4881 5.72588 22.249 6.90088 22.249C7.16688 22.249 7.4359 22.2099 7.7019 22.1289L8.66699 21.834C9.11399 21.698 9.4819 21.395 9.7019 20.981C9.9209 20.568 9.9671 20.0949 9.8291 19.6479L8.34497 14.792C8.20797 14.345 7.90594 13.9781 7.49194 13.7581C7.07794 13.5381 6.60196 13.4931 6.15796 13.6311L5.21606 13.9199C4.89906 14.0169 4.61597 14.173 4.36597 14.364C4.29597 13.734 4.25 13.107 4.25 12.499C4.25 7.95002 7.951 4.24902 12.5 4.24902C17.049 4.24902 20.75 7.95002 20.75 12.499C20.75 13.108 20.704 13.735 20.634 14.365C20.384 14.174 20.1009 14.0179 19.7839 13.9209L18.842 13.6321C18.399 13.4951 17.9231 13.54 17.5081 13.759C17.0951 13.978 16.792 14.345 16.655 14.793L15.1709 19.647C15.0329 20.094 15.0791 20.568 15.2981 20.98C15.5181 21.394 15.886 21.696 16.332 21.833L17.2981 22.1279C17.5641 22.2099 17.8331 22.248 18.0991 22.248C19.2741 22.248 20.366 21.4871 20.73 20.3081L21.2009 18.783C21.3109 18.451 21.3999 18.1059 21.4929 17.7629C21.5019 17.7409 21.5159 17.723 21.5229 17.699C21.5459 17.615 21.563 17.5281 21.585 17.4431C21.604 17.3711 21.628 17.302 21.646 17.23C21.654 17.199 21.6529 17.167 21.6599 17.134ZM5.65503 15.355L6.59692 15.0659C6.62292 15.0579 6.6479 15.0549 6.6709 15.0549C6.7229 15.0549 6.76409 15.072 6.78809 15.084C6.82209 15.102 6.88391 15.146 6.90991 15.231L8.39404 20.0869C8.42004 20.1719 8.394 20.2419 8.375 20.2759C8.357 20.3099 8.31305 20.3709 8.22705 20.3979L7.26294 20.6931C6.60294 20.8951 5.9049 20.522 5.7019 19.865L5.22412 18.3169C5.08812 17.9079 4.97204 17.4861 4.86304 17.0601C4.84304 16.9831 4.82588 16.9061 4.80688 16.8291C4.67488 16.1881 5.03503 15.546 5.65503 15.355ZM19.7729 18.3191C19.7709 18.3241 19.7701 18.329 19.7681 18.334L19.2949 19.8669C19.0929 20.5239 18.3929 20.8951 17.7339 20.6951L16.769 20.3999C16.683 20.3739 16.6391 20.3131 16.6221 20.2781C16.6031 20.2441 16.577 20.1739 16.603 20.0879L18.0869 15.2329C18.1129 15.1469 18.175 15.103 18.209 15.085C18.233 15.072 18.2739 15.0559 18.3259 15.0559C18.3489 15.0559 18.3739 15.0589 18.3999 15.0669L19.342 15.3569C19.962 15.5469 20.322 16.189 20.188 16.832C20.168 16.909 20.1521 16.987 20.1321 17.063C20.0261 17.488 19.9089 17.9111 19.7729 18.3191Z" fill="#0B224B"/>
</svg>
