<svg width="23" height="23" viewBox="0 0 23 23" fill="none" xmlns="http://www.w3.org/2000/svg">
<path d="M11.5 1.91663C6.20708 1.91663 1.91663 6.20708 1.91663 11.5C1.91663 16.7928 6.20708 21.0833 11.5 21.0833C16.7928 21.0833 21.0833 16.7928 21.0833 11.5C21.0833 6.20708 16.7928 1.91663 11.5 1.91663ZM12.2187 15.8125C12.2187 16.2092 11.8967 16.5312 11.5 16.5312C11.1032 16.5312 10.7812 16.2092 10.7812 15.8125V11.4319C10.7812 11.0351 11.1032 10.7131 11.5 10.7131C11.8967 10.7131 12.2187 11.0351 12.2187 11.4319V15.8125ZM11.5191 9.10413C10.9901 9.10413 10.5559 8.67479 10.5559 8.14579C10.5559 7.61679 10.9806 7.18746 11.5096 7.18746H11.5191C12.0491 7.18746 12.4775 7.61679 12.4775 8.14579C12.4775 8.67479 12.0481 9.10413 11.5191 9.10413Z" fill="white"/>
</svg>
