<svg width="16" height="21" viewBox="0 0 16 21" fill="none" xmlns="http://www.w3.org/2000/svg">
<path d="M12.75 6.80396V5.5C12.75 2.881 10.619 0.75 8 0.75C5.381 0.75 3.25 2.881 3.25 5.5V6.80396C1.312 7.06096 0.25 8.346 0.25 10.5V16.5C0.25 18.918 1.582 20.25 4 20.25H12C14.418 20.25 15.75 18.918 15.75 16.5V10.5C15.75 8.347 14.688 7.06195 12.75 6.80396ZM8 2.25C9.792 2.25 11.25 3.708 11.25 5.5V6.75H4.75V5.5C4.75 3.708 6.208 2.25 8 2.25ZM14.25 16.5C14.25 18.077 13.577 18.75 12 18.75H4C2.423 18.75 1.75 18.077 1.75 16.5V10.5C1.75 8.923 2.423 8.25 4 8.25H12C13.577 8.25 14.25 8.923 14.25 10.5V16.5ZM9.27002 12.5C9.27002 12.912 9.058 13.2601 8.75 13.4871V15.5C8.75 15.914 8.414 16.25 8 16.25C7.586 16.25 7.25 15.914 7.25 15.5V13.4619C6.962 13.2329 6.76489 12.895 6.76489 12.5C6.76489 11.81 7.32001 11.25 8.01001 11.25H8.02002C8.71002 11.25 9.27002 11.81 9.27002 12.5Z" fill="#727688"/>
</svg>
