<svg width="258" height="96" viewBox="0 0 258 96" fill="none" xmlns="http://www.w3.org/2000/svg">
<g filter="url(#filter0_d_2_164)">
<g filter="url(#filter1_d_2_164)">
<path d="M37.8272 73.3496C37.0153 73.3801 36.1626 73.3721 35.2692 73.3254C34.3947 73.2701 33.2533 72.9594 31.8448 72.3932C30.4465 71.7995 28.9697 70.8863 27.4143 69.6538C23.7565 66.7987 20.771 62.8647 18.4578 57.8518C16.0137 52.5552 15.2633 47.1998 16.2066 41.7856C16.815 38.4302 17.9894 35.7545 19.7298 33.7582C20.619 32.7514 21.6594 31.973 22.8511 31.4231C24.0618 30.8644 25.2258 30.6026 26.3433 30.6376C27.471 30.645 28.4721 30.8255 29.3465 31.1791C30.2123 31.5138 30.9216 31.9322 31.4745 32.4343C32.0463 32.9276 32.4937 33.5242 32.8167 34.2241C33.1309 34.9051 33.2487 35.757 33.17 36.7799C33.0914 37.8028 32.8782 38.8075 32.5303 39.794C32.2014 40.7718 31.8027 41.7474 31.3341 42.7208C30.8567 43.6753 30.4732 44.6094 30.1836 45.5232C30.1223 48.9702 30.707 52.0274 31.9378 54.6946C33.2297 57.4942 34.94 59.2862 37.0687 60.0707C37.7321 60.3152 38.3956 60.4105 39.0592 60.3567C40.8927 58.6617 42.7882 54.5404 44.7457 47.9928C46.1168 42.9089 47.0432 39.2233 47.525 36.9359L48.6756 31.0015C49.696 25.2076 51.473 20.8541 54.0065 17.9413C54.9742 16.8064 56.0204 15.9909 57.1452 15.4948C58.2889 14.99 59.2529 14.7172 60.0372 14.6766C60.8317 14.6082 61.5425 14.6818 62.1696 14.8972C63.386 15.3454 64.2386 16.0992 64.7274 17.1585C65.6265 19.1069 65.7675 21.1527 65.1504 23.296C63.1856 29.4799 61.6516 34.1112 60.5485 37.1901L57.3045 45.6736L54.1916 53.0985C49.248 64.2134 45.1588 70.5172 41.9241 72.0098C40.0324 72.8827 38.6668 73.3293 37.8272 73.3496Z" fill="url(#paint0_linear_2_164)"/>
</g>
<g filter="url(#filter2_d_2_164)">
<path d="M89.96 56.2C89.96 53.2133 90.5573 48.7333 91.752 42.76H82.28L78.76 61H65.384L73.512 18.76H87.016L83.304 37.64H92.776L96.296 18.76H109.8C109.203 21.9173 108.52 25.2667 107.752 28.808L105.576 39.24C103.955 47.3467 103.144 53.1707 103.144 56.712C103.144 58.1627 103.379 59.2933 103.848 60.104C101.715 61.5547 99.3893 62.28 96.872 62.28C94.3973 62.28 92.6267 61.6827 91.56 60.488C90.4933 59.2933 89.96 57.864 89.96 56.2Z" fill="url(#paint1_linear_2_164)"/>
</g>
</g>
<path d="M117.472 49.2727L119.125 52.9034H119.193L122.04 49.2727H123.284L119.824 53.6364L121.835 58H120.591L118.938 54.4375H118.869L116.023 58H114.778L118.324 53.6364L116.227 49.2727H117.472ZM125.436 58.1364C124.834 58.1364 124.33 57.9929 123.923 57.706C123.517 57.419 123.23 57.017 123.062 56.5C122.898 55.983 122.871 55.3807 122.982 54.6932C123.089 54.0227 123.304 53.4389 123.625 52.9418C123.949 52.4418 124.351 52.0554 124.831 51.7827C125.314 51.5071 125.845 51.3693 126.425 51.3693C127.027 51.3693 127.53 51.5142 127.933 51.804C128.339 52.0909 128.626 52.4943 128.794 53.0142C128.962 53.5312 128.99 54.1364 128.879 54.8295C128.771 55.4943 128.554 56.0753 128.227 56.5724C127.903 57.0668 127.501 57.4517 127.021 57.7273C126.544 58 126.016 58.1364 125.436 58.1364ZM125.453 57.233C125.913 57.233 126.312 57.1151 126.651 56.8793C126.991 56.6435 127.267 56.3324 127.477 55.946C127.69 55.5597 127.834 55.142 127.908 54.6932C127.976 54.267 127.973 53.8707 127.899 53.5043C127.825 53.1349 127.668 52.8381 127.426 52.6136C127.185 52.3864 126.845 52.2727 126.408 52.2727C125.947 52.2727 125.545 52.392 125.202 52.6307C124.861 52.8693 124.585 53.1832 124.375 53.5724C124.165 53.9616 124.024 54.3807 123.953 54.8295C123.885 55.2557 123.886 55.652 123.957 56.0185C124.031 56.3821 124.189 56.6761 124.43 56.9006C124.675 57.1222 125.016 57.233 125.453 57.233ZM126.169 50.5682L127.533 48.5909H128.709L127.055 50.5682H126.169ZM131.804 58.1534C131.389 58.1534 131.025 58.0753 130.713 57.919C130.4 57.7599 130.169 57.5312 130.018 57.233C129.868 56.9318 129.826 56.5682 129.895 56.142C129.96 55.767 130.086 55.4631 130.274 55.2301C130.461 54.9943 130.689 54.8097 130.956 54.6761C131.225 54.5398 131.515 54.4389 131.825 54.3736C132.137 54.3054 132.449 54.2528 132.758 54.2159C133.162 54.1648 133.49 54.125 133.743 54.0966C133.995 54.0682 134.186 54.0213 134.314 53.956C134.441 53.8906 134.52 53.7784 134.548 53.6193V53.5852C134.616 53.1676 134.561 52.8423 134.382 52.6094C134.203 52.3736 133.883 52.2557 133.423 52.2557C132.946 52.2557 132.547 52.3608 132.225 52.571C131.904 52.7812 131.667 53.0057 131.514 53.2443L130.627 52.9034C130.86 52.5057 131.139 52.196 131.463 51.9744C131.787 51.75 132.126 51.5937 132.481 51.5057C132.836 51.4148 133.179 51.3693 133.508 51.3693C133.718 51.3693 133.956 51.3949 134.22 51.446C134.484 51.4943 134.731 51.5952 134.961 51.7486C135.194 51.902 135.369 52.1335 135.485 52.4432C135.605 52.7528 135.622 53.1676 135.537 53.6875L134.821 58H133.815L133.968 57.1136H133.917C133.826 57.2557 133.687 57.4077 133.5 57.5696C133.315 57.7315 133.081 57.8693 132.797 57.983C132.515 58.0966 132.184 58.1534 131.804 58.1534ZM132.093 57.25C132.491 57.25 132.839 57.1719 133.137 57.0156C133.439 56.8594 133.68 56.6577 133.862 56.4105C134.047 56.1634 134.162 55.9034 134.207 55.6307L134.36 54.7102C134.309 54.7614 134.208 54.8082 134.058 54.8509C133.907 54.8906 133.737 54.9261 133.547 54.9574C133.359 54.9858 133.176 55.0114 132.997 55.0341C132.821 55.054 132.679 55.071 132.571 55.0852C132.304 55.1193 132.049 55.1747 131.808 55.2514C131.569 55.3253 131.368 55.4375 131.203 55.5881C131.041 55.7358 130.94 55.9375 130.9 56.1932C130.841 56.5426 130.924 56.8068 131.152 56.9858C131.379 57.1619 131.693 57.25 132.093 57.25ZM143.969 51.4545L143.832 52.3068H140.44L140.577 51.4545H143.969ZM141.821 49.8864H142.827L141.787 56.125C141.741 56.4091 141.749 56.6222 141.808 56.7642C141.871 56.9034 141.964 56.9972 142.089 57.0455C142.217 57.0909 142.355 57.1136 142.503 57.1136C142.614 57.1136 142.705 57.108 142.776 57.0966C142.847 57.0824 142.903 57.071 142.946 57.0625L143.014 57.9659C142.938 57.9915 142.834 58.017 142.703 58.0426C142.575 58.071 142.418 58.0852 142.23 58.0852C141.946 58.0852 141.679 58.0241 141.429 57.902C141.179 57.7798 140.987 57.5938 140.854 57.3438C140.72 57.0938 140.685 56.7784 140.747 56.3977L141.821 49.8864ZM146.3 58.1534C145.885 58.1534 145.521 58.0753 145.209 57.919C144.896 57.7599 144.665 57.5312 144.514 57.233C144.364 56.9318 144.322 56.5682 144.391 56.142C144.456 55.767 144.582 55.4631 144.77 55.2301C144.957 54.9943 145.185 54.8097 145.452 54.6761C145.722 54.5398 146.011 54.4389 146.321 54.3736C146.634 54.3054 146.945 54.2528 147.254 54.2159C147.658 54.1648 147.986 54.125 148.239 54.0966C148.491 54.0682 148.682 54.0213 148.81 53.956C148.938 53.8906 149.016 53.7784 149.044 53.6193V53.5852C149.112 53.1676 149.057 52.8423 148.878 52.6094C148.699 52.3736 148.379 52.2557 147.919 52.2557C147.442 52.2557 147.043 52.3608 146.722 52.571C146.401 52.7812 146.163 53.0057 146.01 53.2443L145.124 52.9034C145.357 52.5057 145.635 52.196 145.959 51.9744C146.283 51.75 146.622 51.5937 146.977 51.5057C147.332 51.4148 147.675 51.3693 148.004 51.3693C148.214 51.3693 148.452 51.3949 148.716 51.446C148.98 51.4943 149.227 51.5952 149.457 51.7486C149.69 51.902 149.865 52.1335 149.982 52.4432C150.101 52.7528 150.118 53.1676 150.033 53.6875L149.317 58H148.311L148.464 57.1136H148.413C148.322 57.2557 148.183 57.4077 147.996 57.5696C147.811 57.7315 147.577 57.8693 147.293 57.983C147.011 58.0966 146.68 58.1534 146.3 58.1534ZM146.589 57.25C146.987 57.25 147.335 57.1719 147.634 57.0156C147.935 56.8594 148.176 56.6577 148.358 56.4105C148.543 56.1634 148.658 55.9034 148.703 55.6307L148.857 54.7102C148.805 54.7614 148.705 54.8082 148.554 54.8509C148.403 54.8906 148.233 54.9261 148.043 54.9574C147.855 54.9858 147.672 55.0114 147.493 55.0341C147.317 55.054 147.175 55.071 147.067 55.0852C146.8 55.1193 146.545 55.1747 146.304 55.2514C146.065 55.3253 145.864 55.4375 145.699 55.5881C145.537 55.7358 145.436 55.9375 145.396 56.1932C145.337 56.5426 145.42 56.8068 145.648 56.9858C145.875 57.1619 146.189 57.25 146.589 57.25ZM152.806 54.0625L152.158 58H151.152L152.243 51.4545H153.215L153.044 52.4773H153.13C153.334 52.1449 153.611 51.8778 153.961 51.6761C154.31 51.4716 154.732 51.3693 155.226 51.3693C155.664 51.3693 156.033 51.4602 156.334 51.642C156.638 51.821 156.853 52.0938 156.978 52.4602C157.105 52.8239 157.124 53.2841 157.033 53.8409L156.334 58H155.328L156.01 53.9091C156.096 53.3977 156.029 52.9972 155.81 52.7074C155.594 52.4176 155.252 52.2727 154.783 52.2727C154.459 52.2727 154.159 52.3423 153.884 52.4815C153.611 52.6207 153.38 52.8239 153.189 53.0909C153.002 53.358 152.874 53.6818 152.806 54.0625ZM161.547 58L162.638 51.4545H163.609L163.439 52.4773H163.524C163.72 52.1278 163.986 51.8565 164.321 51.6634C164.659 51.4673 165.041 51.3693 165.467 51.3693C165.893 51.3693 166.236 51.4673 166.494 51.6634C166.753 51.8565 166.933 52.1278 167.036 52.4773H167.104C167.325 52.1364 167.621 51.8665 167.99 51.6676C168.362 51.4688 168.783 51.3693 169.251 51.3693C169.831 51.3693 170.277 51.5526 170.589 51.919C170.905 52.2855 170.999 52.8523 170.871 53.6193L170.138 58H169.132L169.865 53.6193C169.942 53.1335 169.865 52.7884 169.635 52.5838C169.408 52.3764 169.115 52.2727 168.757 52.2727C168.297 52.2727 167.918 52.4105 167.619 52.6861C167.321 52.9616 167.138 53.3125 167.07 53.7386L166.354 58H165.331L166.081 53.517C166.141 53.142 166.07 52.8409 165.868 52.6136C165.666 52.3864 165.374 52.2727 164.99 52.2727C164.729 52.2727 164.473 52.3437 164.223 52.4858C163.973 52.625 163.759 52.8182 163.58 53.0653C163.401 53.3097 163.286 53.5909 163.234 53.9091L162.553 58H161.547ZM174.678 58.1364C174.076 58.1364 173.572 57.9929 173.165 57.706C172.759 57.419 172.472 57.017 172.305 56.5C172.14 55.983 172.113 55.3807 172.224 54.6932C172.332 54.0227 172.546 53.4389 172.867 52.9418C173.191 52.4418 173.593 52.0554 174.073 51.7827C174.556 51.5071 175.087 51.3693 175.667 51.3693C176.269 51.3693 176.772 51.5142 177.175 51.804C177.582 52.0909 177.869 52.4943 178.036 53.0142C178.204 53.5312 178.232 54.1364 178.121 54.8295C178.013 55.4943 177.796 56.0753 177.469 56.5724C177.146 57.0668 176.744 57.4517 176.263 57.7273C175.786 58 175.258 58.1364 174.678 58.1364ZM174.695 57.233C175.156 57.233 175.555 57.1151 175.893 56.8793C176.234 56.6435 176.509 56.3324 176.719 55.946C176.933 55.5597 177.076 55.142 177.15 54.6932C177.218 54.267 177.215 53.8707 177.141 53.5043C177.067 53.1349 176.91 52.8381 176.668 52.6136C176.427 52.3864 176.087 52.2727 175.65 52.2727C175.19 52.2727 174.788 52.392 174.444 52.6307C174.103 52.8693 173.827 53.1832 173.617 53.5724C173.407 53.9616 173.266 54.3807 173.195 54.8295C173.127 55.2557 173.129 55.652 173.2 56.0185C173.273 56.3821 173.431 56.6761 173.673 56.9006C173.917 57.1222 174.258 57.233 174.695 57.233ZM174.406 60.1477C174.21 60.1477 174.04 60.081 173.898 59.9474C173.759 59.8139 173.69 59.6534 173.69 59.4659C173.69 59.2784 173.759 59.1179 173.898 58.9844C174.04 58.8509 174.21 58.7841 174.406 58.7841C174.602 58.7841 174.769 58.8509 174.908 58.9844C175.05 59.1179 175.121 59.2784 175.121 59.4659C175.121 59.6534 175.05 59.8139 174.908 59.9474C174.769 60.081 174.602 60.1477 174.406 60.1477ZM179.137 58L180.228 51.4545H181.233L180.142 58H179.137ZM181.037 50.3466C180.841 50.3466 180.672 50.2798 180.53 50.1463C180.391 50.0128 180.321 49.8523 180.321 49.6648C180.321 49.4773 180.391 49.3168 180.53 49.1832C180.672 49.0497 180.841 48.983 181.037 48.983C181.233 48.983 181.401 49.0497 181.54 49.1832C181.682 49.3168 181.753 49.4773 181.753 49.6648C181.753 49.8523 181.682 50.0128 181.54 50.1463C181.401 50.2798 181.233 50.3466 181.037 50.3466ZM186.689 55.6136L186.876 54.3693H187.081L190.439 51.4545H191.683L188.121 54.5398H188.036L186.689 55.6136ZM185.359 58L186.808 49.2727H187.814L186.365 58H185.359ZM189.518 58L187.507 54.7614L188.325 54.0625L190.797 58H189.518ZM193.54 54.0625L192.892 58H191.887L193.336 49.2727H194.341L193.813 52.4773H193.898C194.103 52.1364 194.375 51.8665 194.716 51.6676C195.06 51.4688 195.492 51.3693 196.012 51.3693C196.455 51.3693 196.828 51.4588 197.132 51.6378C197.439 51.8139 197.655 52.0852 197.78 52.4517C197.908 52.8153 197.926 53.2784 197.836 53.8409L197.137 58H196.131L196.813 53.9091C196.898 53.3892 196.828 52.9872 196.604 52.7031C196.382 52.4162 196.037 52.2727 195.569 52.2727C195.239 52.2727 194.932 52.3423 194.648 52.4815C194.367 52.6207 194.128 52.8239 193.932 53.0909C193.739 53.358 193.608 53.6818 193.54 54.0625ZM201.678 58.1364C201.076 58.1364 200.572 57.9929 200.165 57.706C199.759 57.419 199.472 57.017 199.305 56.5C199.14 55.983 199.113 55.3807 199.224 54.6932C199.332 54.0227 199.546 53.4389 199.867 52.9418C200.191 52.4418 200.593 52.0554 201.073 51.7827C201.556 51.5071 202.087 51.3693 202.667 51.3693C203.269 51.3693 203.772 51.5142 204.175 51.804C204.582 52.0909 204.869 52.4943 205.036 53.0142C205.204 53.5312 205.232 54.1364 205.121 54.8295C205.013 55.4943 204.796 56.0753 204.469 56.5724C204.146 57.0668 203.744 57.4517 203.263 57.7273C202.786 58 202.258 58.1364 201.678 58.1364ZM201.695 57.233C202.156 57.233 202.555 57.1151 202.893 56.8793C203.234 56.6435 203.509 56.3324 203.719 55.946C203.933 55.5597 204.076 55.142 204.15 54.6932C204.218 54.267 204.215 53.8707 204.141 53.5043C204.067 53.1349 203.91 52.8381 203.668 52.6136C203.427 52.3864 203.087 52.2727 202.65 52.2727C202.19 52.2727 201.788 52.392 201.444 52.6307C201.103 52.8693 200.827 53.1832 200.617 53.5724C200.407 53.9616 200.266 54.3807 200.195 54.8295C200.127 55.2557 200.129 55.652 200.2 56.0185C200.273 56.3821 200.431 56.6761 200.673 56.9006C200.917 57.1222 201.258 57.233 201.695 57.233ZM208.046 58.1534C207.631 58.1534 207.267 58.0753 206.955 57.919C206.642 57.7599 206.411 57.5312 206.26 57.233C206.11 56.9318 206.069 56.5682 206.137 56.142C206.202 55.767 206.328 55.4631 206.516 55.2301C206.703 54.9943 206.931 54.8097 207.198 54.6761C207.468 54.5398 207.757 54.4389 208.067 54.3736C208.38 54.3054 208.691 54.2528 209 54.2159C209.404 54.1648 209.732 54.125 209.985 54.0966C210.238 54.0682 210.428 54.0213 210.556 53.956C210.684 53.8906 210.762 53.7784 210.79 53.6193V53.5852C210.858 53.1676 210.803 52.8423 210.624 52.6094C210.445 52.3736 210.125 52.2557 209.665 52.2557C209.188 52.2557 208.789 52.3608 208.468 52.571C208.147 52.7812 207.909 53.0057 207.756 53.2443L206.87 52.9034C207.103 52.5057 207.381 52.196 207.705 51.9744C208.029 51.75 208.368 51.5937 208.723 51.5057C209.078 51.4148 209.421 51.3693 209.75 51.3693C209.961 51.3693 210.198 51.3949 210.462 51.446C210.726 51.4943 210.973 51.5952 211.203 51.7486C211.436 51.902 211.611 52.1335 211.728 52.4432C211.847 52.7528 211.864 53.1676 211.779 53.6875L211.063 58H210.057L210.211 57.1136H210.159C210.069 57.2557 209.929 57.4077 209.742 57.5696C209.557 57.7315 209.323 57.8693 209.039 57.983C208.757 58.0966 208.426 58.1534 208.046 58.1534ZM208.336 57.25C208.733 57.25 209.081 57.1719 209.38 57.0156C209.681 56.8594 209.922 56.6577 210.104 56.4105C210.289 56.1634 210.404 55.9034 210.449 55.6307L210.603 54.7102C210.551 54.7614 210.451 54.8082 210.3 54.8509C210.15 54.8906 209.979 54.9261 209.789 54.9574C209.601 54.9858 209.418 55.0114 209.239 55.0341C209.063 55.054 208.921 55.071 208.813 55.0852C208.546 55.1193 208.292 55.1747 208.05 55.2514C207.811 55.3253 207.61 55.4375 207.445 55.5881C207.283 55.7358 207.182 55.9375 207.142 56.1932C207.083 56.5426 207.167 56.8068 207.394 56.9858C207.621 57.1619 207.935 57.25 208.336 57.25ZM210.381 50.5682H209.546L209.699 49.6477C209.998 49.6307 210.213 49.5895 210.347 49.5241C210.48 49.4588 210.56 49.358 210.586 49.2216C210.611 49.0682 210.539 48.956 210.368 48.8849C210.201 48.8139 209.989 48.7784 209.733 48.7784L209.887 48.1307C210.475 48.1307 210.901 48.233 211.165 48.4375C211.432 48.642 211.54 48.9148 211.489 49.2557C211.438 49.5455 211.309 49.7571 211.101 49.8906C210.897 50.0241 210.679 50.108 210.449 50.142L210.381 50.5682ZM214.552 54.0625L213.904 58H212.898L213.989 51.4545H214.961L214.79 52.4773H214.876C215.08 52.1449 215.357 51.8778 215.707 51.6761C216.056 51.4716 216.478 51.3693 216.972 51.3693C217.41 51.3693 217.779 51.4602 218.08 51.642C218.384 51.821 218.599 52.0938 218.724 52.4602C218.852 52.8239 218.87 53.2841 218.779 53.8409L218.08 58H217.075L217.756 53.9091C217.842 53.3977 217.775 52.9972 217.556 52.7074C217.34 52.4176 216.998 52.2727 216.529 52.2727C216.205 52.2727 215.906 52.3423 215.63 52.4815C215.357 52.6207 215.126 52.8239 214.935 53.0909C214.748 53.358 214.62 53.6818 214.552 54.0625ZM222.151 60.5909C221.662 60.5909 221.253 60.5284 220.924 60.4034C220.594 60.2812 220.33 60.1193 220.131 59.9176C219.932 59.7188 219.782 59.5057 219.679 59.2784L220.583 58.7159C220.651 58.8352 220.739 58.9716 220.847 59.125C220.955 59.2812 221.118 59.4162 221.337 59.5298C221.559 59.6463 221.87 59.7045 222.27 59.7045C222.796 59.7045 223.256 59.5767 223.651 59.321C224.046 59.0653 224.29 58.6648 224.384 58.1193L224.588 56.7898H224.503C224.412 56.9091 224.286 57.0568 224.124 57.233C223.962 57.4062 223.745 57.5611 223.472 57.6974C223.199 57.831 222.85 57.8977 222.424 57.8977C221.892 57.8977 221.438 57.7727 221.06 57.5227C220.682 57.2727 220.411 56.9091 220.246 56.4318C220.084 55.9545 220.06 55.375 220.174 54.6932C220.284 54.0227 220.498 53.4389 220.813 52.9418C221.131 52.4418 221.523 52.0554 221.989 51.7827C222.455 51.5071 222.963 51.3693 223.515 51.3693C223.941 51.3693 224.267 51.4403 224.495 51.5824C224.725 51.7216 224.892 51.8807 224.998 52.0597C225.103 52.2358 225.182 52.3807 225.236 52.4943H225.338L225.509 51.4545H226.48L225.373 58.1875C225.279 58.75 225.076 59.2074 224.763 59.5597C224.451 59.9148 224.067 60.1747 223.613 60.3395C223.158 60.5071 222.671 60.5909 222.151 60.5909ZM222.679 56.9943C223.08 56.9943 223.436 56.902 223.749 56.7173C224.064 56.5327 224.326 56.267 224.533 55.9205C224.74 55.5739 224.884 55.1591 224.963 54.6761C225.043 54.2045 225.037 53.7884 224.946 53.4276C224.855 53.0668 224.684 52.7841 224.431 52.5795C224.181 52.375 223.853 52.2727 223.446 52.2727C223.017 52.2727 222.647 52.3807 222.334 52.5966C222.025 52.8125 221.773 53.1023 221.58 53.4659C221.387 53.8295 221.253 54.233 221.179 54.6761C221.105 55.1307 221.108 55.5327 221.188 55.8821C221.267 56.2287 221.429 56.5014 221.674 56.7003C221.921 56.8963 222.256 56.9943 222.679 56.9943ZM233.248 58.1364C232.631 58.1364 232.125 57.9915 231.73 57.7017C231.338 57.4119 231.066 57.0128 230.912 56.5043C230.759 55.9957 230.736 55.4148 230.844 54.7614C230.952 54.0966 231.171 53.5099 231.5 53.0014C231.83 52.4901 232.24 52.0909 232.732 51.804C233.223 51.5142 233.765 51.3693 234.355 51.3693C234.816 51.3693 235.216 51.4545 235.557 51.625C235.898 51.7955 236.161 52.0341 236.346 52.3409C236.53 52.6477 236.617 53.0057 236.605 53.4148H235.6C235.571 53.1165 235.444 52.8523 235.216 52.6222C234.992 52.3892 234.659 52.2727 234.219 52.2727C233.827 52.2727 233.466 52.375 233.137 52.5795C232.807 52.7812 232.53 53.0668 232.306 53.4361C232.081 53.8026 231.929 54.233 231.85 54.7273C231.765 55.233 231.772 55.6733 231.871 56.0483C231.971 56.4233 232.151 56.7145 232.412 56.9219C232.674 57.1293 233.003 57.233 233.401 57.233C233.662 57.233 233.907 57.1875 234.134 57.0966C234.361 57.0057 234.563 56.875 234.739 56.7045C234.915 56.5341 235.054 56.3295 235.157 56.0909H236.162C236.037 56.4773 235.837 56.8253 235.561 57.1349C235.286 57.4418 234.952 57.6861 234.56 57.8679C234.168 58.0469 233.73 58.1364 233.248 58.1364ZM239.218 58.1534C238.803 58.1534 238.439 58.0753 238.127 57.919C237.814 57.7599 237.583 57.5312 237.432 57.233C237.282 56.9318 237.24 56.5682 237.309 56.142C237.374 55.767 237.5 55.4631 237.688 55.2301C237.875 54.9943 238.103 54.8097 238.37 54.6761C238.64 54.5398 238.929 54.4389 239.239 54.3736C239.551 54.3054 239.863 54.2528 240.172 54.2159C240.576 54.1648 240.904 54.125 241.157 54.0966C241.409 54.0682 241.6 54.0213 241.728 53.956C241.855 53.8906 241.934 53.7784 241.962 53.6193V53.5852C242.03 53.1676 241.975 52.8423 241.796 52.6094C241.617 52.3736 241.297 52.2557 240.837 52.2557C240.36 52.2557 239.961 52.3608 239.64 52.571C239.319 52.7812 239.081 53.0057 238.928 53.2443L238.042 52.9034C238.275 52.5057 238.553 52.196 238.877 51.9744C239.201 51.75 239.54 51.5937 239.895 51.5057C240.25 51.4148 240.593 51.3693 240.922 51.3693C241.132 51.3693 241.37 51.3949 241.634 51.446C241.898 51.4943 242.145 51.5952 242.375 51.7486C242.608 51.902 242.783 52.1335 242.9 52.4432C243.019 52.7528 243.036 53.1676 242.951 53.6875L242.235 58H241.229L241.382 57.1136H241.331C241.24 57.2557 241.101 57.4077 240.914 57.5696C240.729 57.7315 240.495 57.8693 240.211 57.983C239.929 58.0966 239.598 58.1534 239.218 58.1534ZM239.507 57.25C239.905 57.25 240.253 57.1719 240.551 57.0156C240.853 56.8594 241.094 56.6577 241.276 56.4105C241.461 56.1634 241.576 55.9034 241.621 55.6307L241.775 54.7102C241.723 54.7614 241.623 54.8082 241.472 54.8509C241.321 54.8906 241.151 54.9261 240.961 54.9574C240.773 54.9858 240.59 55.0114 240.411 55.0341C240.235 55.054 240.093 55.071 239.985 55.0852C239.718 55.1193 239.463 55.1747 239.222 55.2514C238.983 55.3253 238.782 55.4375 238.617 55.5881C238.455 55.7358 238.354 55.9375 238.314 56.1932C238.255 56.5426 238.338 56.8068 238.566 56.9858C238.793 57.1619 239.107 57.25 239.507 57.25ZM240.65 50.5682L242.013 48.5909H243.189L241.536 50.5682H240.65ZM246.712 58.1364C246.096 58.1364 245.59 57.9915 245.195 57.7017C244.803 57.4119 244.531 57.0128 244.377 56.5043C244.224 55.9957 244.201 55.4148 244.309 54.7614C244.417 54.0966 244.636 53.5099 244.965 53.0014C245.295 52.4901 245.705 52.0909 246.197 51.804C246.688 51.5142 247.229 51.3693 247.82 51.3693C248.281 51.3693 248.681 51.4545 249.022 51.625C249.363 51.7955 249.626 52.0341 249.81 52.3409C249.995 52.6477 250.082 53.0057 250.07 53.4148H249.065C249.036 53.1165 248.908 52.8523 248.681 52.6222C248.457 52.3892 248.124 52.2727 247.684 52.2727C247.292 52.2727 246.931 52.375 246.602 52.5795C246.272 52.7812 245.995 53.0668 245.771 53.4361C245.546 53.8026 245.394 54.233 245.315 54.7273C245.229 55.233 245.237 55.6733 245.336 56.0483C245.435 56.4233 245.616 56.7145 245.877 56.9219C246.138 57.1293 246.468 57.233 246.866 57.233C247.127 57.233 247.371 57.1875 247.599 57.0966C247.826 57.0057 248.028 56.875 248.204 56.7045C248.38 56.5341 248.519 56.3295 248.621 56.0909H249.627C249.502 56.4773 249.302 56.8253 249.026 57.1349C248.751 57.4418 248.417 57.6861 248.025 57.8679C247.633 58.0469 247.195 58.1364 246.712 58.1364ZM252.427 54.0625L251.779 58H250.773L252.222 49.2727H253.228L252.7 52.4773H252.785C252.989 52.1364 253.262 51.8665 253.603 51.6676C253.947 51.4688 254.379 51.3693 254.898 51.3693C255.342 51.3693 255.715 51.4588 256.019 51.6378C256.326 51.8139 256.542 52.0852 256.667 52.4517C256.795 52.8153 256.813 53.2784 256.722 53.8409L256.023 58H255.018L255.7 53.9091C255.785 53.3892 255.715 52.9872 255.491 52.7031C255.269 52.4162 254.924 52.2727 254.455 52.2727C254.126 52.2727 253.819 52.3423 253.535 52.4815C253.254 52.6207 253.015 52.8239 252.819 53.0909C252.626 53.358 252.495 53.6818 252.427 54.0625Z" fill="url(#paint2_linear_2_164)"/>
<path d="M129.822 27.9119C129.562 29.465 129.053 30.7836 128.295 31.8679C127.538 32.9522 126.617 33.7784 125.533 34.3466C124.448 34.9148 123.279 35.1989 122.024 35.1989C120.713 35.1989 119.583 34.8982 118.636 34.2969C117.689 33.6908 117.005 32.8196 116.584 31.6832C116.167 30.5421 116.091 29.1714 116.357 27.571C116.612 26.018 117.119 24.697 117.876 23.608C118.634 22.5189 119.557 21.688 120.646 21.1151C121.74 20.5421 122.919 20.2557 124.183 20.2557C125.485 20.2557 126.607 20.5587 127.55 21.1648C128.492 21.7708 129.171 22.6468 129.588 23.7926C130.009 24.9337 130.088 26.3068 129.822 27.9119ZM126.946 27.571C127.116 26.5436 127.107 25.6795 126.918 24.9787C126.728 24.2732 126.387 23.7405 125.895 23.3807C125.407 23.0208 124.799 22.8409 124.07 22.8409C123.269 22.8409 122.536 23.0398 121.868 23.4375C121.205 23.8305 120.644 24.4058 120.185 25.1634C119.725 25.9162 119.408 26.8324 119.233 27.9119C119.058 28.9489 119.067 29.8153 119.261 30.5114C119.455 31.2074 119.799 31.733 120.291 32.0881C120.788 32.4384 121.402 32.6136 122.131 32.6136C122.921 32.6136 123.648 32.4195 124.311 32.0312C124.974 31.6383 125.533 31.0677 125.987 30.3196C126.446 29.5668 126.766 28.6506 126.946 27.571ZM134.84 28.6577L133.789 35H130.941L132.759 24.0909H135.479L135.167 25.9872H135.295C135.636 25.3575 136.119 24.8603 136.744 24.4957C137.369 24.1312 138.088 23.9489 138.903 23.9489C139.656 23.9489 140.285 24.1122 140.792 24.4389C141.303 24.7656 141.663 25.2367 141.871 25.8523C142.085 26.4631 142.12 27.197 141.978 28.054L140.813 35H137.965L139.038 28.5369C139.156 27.8504 139.071 27.3106 138.782 26.9176C138.493 26.5246 138.031 26.3281 137.397 26.3281C136.971 26.3281 136.58 26.4205 136.225 26.6051C135.87 26.7898 135.572 27.0573 135.33 27.4077C135.089 27.7533 134.925 28.17 134.84 28.6577ZM148.533 20.4545L146.119 35H143.271L145.685 20.4545H148.533ZM158.317 24.6165C158.336 24.0009 158.151 23.5275 157.763 23.196C157.379 22.8598 156.809 22.6918 156.051 22.6918C155.53 22.6918 155.076 22.7675 154.688 22.919C154.299 23.0658 153.987 23.2694 153.75 23.5298C153.518 23.7902 153.374 24.0885 153.317 24.4247C153.269 24.6993 153.291 24.9408 153.381 25.1491C153.475 25.3527 153.622 25.5279 153.821 25.6747C154.025 25.8215 154.261 25.947 154.531 26.0511C154.801 26.1506 155.083 26.2358 155.376 26.3068L156.648 26.6335C157.225 26.7661 157.756 26.9484 158.239 27.1804C158.722 27.4077 159.134 27.6918 159.474 28.0327C159.815 28.3736 160.059 28.7784 160.206 29.2472C160.353 29.7159 160.374 30.258 160.27 30.8736C160.123 31.7495 159.773 32.5118 159.219 33.1605C158.67 33.8092 157.95 34.3134 157.06 34.6733C156.17 35.0331 155.135 35.2131 153.956 35.2131C152.801 35.2131 151.825 35.0355 151.03 34.6804C150.234 34.3205 149.654 33.795 149.29 33.1037C148.925 32.4077 148.814 31.553 148.956 30.5398H151.783C151.731 31.0322 151.806 31.4441 152.01 31.7756C152.218 32.1023 152.524 32.3485 152.926 32.5142C153.329 32.6799 153.797 32.7628 154.332 32.7628C154.877 32.7628 155.365 32.6823 155.795 32.5213C156.226 32.3603 156.577 32.1378 156.847 31.8537C157.121 31.5696 157.287 31.2382 157.344 30.8594C157.405 30.5137 157.353 30.2249 157.188 29.9929C157.027 29.7562 156.768 29.5573 156.413 29.3963C156.063 29.2353 155.634 29.0909 155.128 28.9631L153.587 28.5582C152.427 28.2505 151.548 27.7817 150.952 27.152C150.355 26.5223 150.142 25.6771 150.312 24.6165C150.459 23.7405 150.821 22.9759 151.399 22.3224C151.982 21.669 152.713 21.1624 153.594 20.8026C154.474 20.438 155.438 20.2557 156.484 20.2557C157.545 20.2557 158.442 20.4403 159.176 20.8097C159.91 21.1742 160.445 21.6856 160.781 22.3438C161.117 22.9972 161.224 23.7547 161.101 24.6165H158.317ZM169.155 24.0909L168.793 26.25H162.337L162.699 24.0909H169.155ZM164.638 21.4773H167.486L165.788 31.6761C165.741 31.9792 165.75 32.2135 165.817 32.3793C165.883 32.545 165.992 32.661 166.143 32.7273C166.3 32.7888 166.482 32.8196 166.69 32.8196C166.837 32.8196 166.982 32.8078 167.124 32.7841C167.266 32.7557 167.377 32.7344 167.457 32.7202L167.571 34.8793C167.405 34.9266 167.183 34.9787 166.903 35.0355C166.629 35.0971 166.302 35.1349 165.923 35.1491C165.218 35.1728 164.614 35.0734 164.112 34.8509C163.615 34.6283 163.255 34.2874 163.033 33.8281C162.81 33.3641 162.76 32.7841 162.884 32.0881L164.638 21.4773ZM169.384 35L171.202 24.0909H173.965L173.652 25.9588H173.766C174.074 25.3007 174.495 24.7988 175.03 24.4531C175.565 24.1075 176.141 23.9347 176.756 23.9347C176.908 23.9347 177.066 23.9418 177.232 23.956C177.402 23.9702 177.551 23.9915 177.679 24.0199L177.246 26.5909C177.123 26.5436 176.943 26.5057 176.706 26.4773C176.47 26.4441 176.24 26.4276 176.017 26.4276C175.568 26.4276 175.149 26.527 174.76 26.7259C174.372 26.92 174.045 27.1899 173.78 27.5355C173.52 27.8812 173.349 28.2812 173.269 28.7358L172.232 35H169.384ZM181.887 35.2131C180.779 35.2131 179.863 34.9858 179.139 34.5312C178.414 34.072 177.905 33.4233 177.612 32.5852C177.318 31.7424 177.269 30.7481 177.463 29.6023C177.647 28.4801 178.026 27.4953 178.599 26.6477C179.172 25.7955 179.889 25.1326 180.751 24.6591C181.618 24.1856 182.581 23.9489 183.642 23.9489C184.342 23.9489 184.979 24.0625 185.552 24.2898C186.13 24.5123 186.613 24.8532 187.001 25.3125C187.389 25.767 187.657 26.34 187.804 27.0312C187.95 27.7225 187.946 28.5369 187.789 29.4744L187.662 30.2912H178.556L178.841 28.473H185.247C185.323 28.0137 185.294 27.6065 185.162 27.2514C185.029 26.8963 184.806 26.617 184.494 26.4134C184.186 26.2098 183.8 26.108 183.336 26.108C182.868 26.108 182.43 26.2263 182.022 26.4631C181.615 26.6951 181.272 26.9981 180.993 27.3722C180.718 27.7462 180.543 28.1463 180.467 28.5724L180.147 30.3551C180.053 30.9706 180.074 31.4773 180.211 31.875C180.353 32.2727 180.6 32.5687 180.95 32.7628C181.305 32.9569 181.752 33.054 182.292 33.054C182.647 33.054 182.976 33.0066 183.279 32.9119C183.587 32.8125 183.862 32.6657 184.103 32.4716C184.345 32.2727 184.544 32.0265 184.7 31.733L187.299 31.9531C187.039 32.6113 186.653 33.1842 186.142 33.6719C185.63 34.1596 185.015 34.5384 184.295 34.8082C183.575 35.0781 182.773 35.2131 181.887 35.2131ZM192.031 35.2131C191.34 35.2131 190.741 35.09 190.234 34.8438C189.728 34.5975 189.354 34.233 189.112 33.75C188.875 33.2623 188.816 32.661 188.935 31.946C189.039 31.3352 189.238 30.8286 189.531 30.4261C189.825 30.0189 190.185 29.6922 190.611 29.446C191.037 29.1951 191.506 29.0057 192.017 28.8778C192.533 28.7453 193.063 28.6529 193.608 28.6009C194.247 28.5393 194.768 28.4777 195.17 28.4162C195.573 28.3546 195.874 28.267 196.072 28.1534C196.276 28.035 196.399 27.8598 196.442 27.6278V27.5852C196.518 27.1023 196.432 26.7282 196.186 26.4631C195.945 26.1979 195.552 26.0653 195.007 26.0653C194.434 26.0653 193.949 26.1908 193.551 26.4418C193.158 26.6927 192.876 27.0028 192.706 27.3722L190.114 27.1023C190.379 26.4394 190.762 25.8736 191.264 25.4048C191.771 24.9313 192.37 24.5715 193.061 24.3253C193.752 24.0743 194.515 23.9489 195.348 23.9489C195.921 23.9489 196.465 24.0175 196.982 24.1548C197.498 24.2874 197.947 24.5005 198.331 24.794C198.719 25.0829 199.001 25.464 199.176 25.9375C199.356 26.411 199.389 26.9863 199.276 27.6634L198.054 35H195.341L195.597 33.4943H195.511C195.289 33.821 195.012 34.1146 194.68 34.375C194.349 34.6307 193.961 34.8343 193.516 34.9858C193.075 35.1373 192.58 35.2131 192.031 35.2131ZM193.153 33.2031C193.622 33.2031 194.048 33.1084 194.432 32.919C194.82 32.7296 195.14 32.4763 195.391 32.1591C195.646 31.8419 195.807 31.4867 195.874 31.0938L196.065 29.8864C195.971 29.9527 195.831 30.0118 195.646 30.0639C195.462 30.1113 195.258 30.1562 195.036 30.1989C194.818 30.2415 194.598 30.2794 194.375 30.3125C194.157 30.3409 193.965 30.367 193.8 30.3906C193.421 30.4427 193.08 30.5279 192.777 30.6463C192.479 30.7599 192.232 30.9162 192.038 31.1151C191.844 31.3139 191.726 31.5649 191.683 31.8679C191.612 32.3035 191.714 32.6349 191.989 32.8622C192.268 33.0895 192.656 33.2031 193.153 33.2031ZM200.511 35L202.33 24.0909H205.05L204.737 25.9872H204.865C205.196 25.3527 205.656 24.8556 206.243 24.4957C206.835 24.1312 207.498 23.9489 208.232 23.9489C208.97 23.9489 209.569 24.1335 210.028 24.5028C210.492 24.8674 210.765 25.3622 210.845 25.9872H210.959C211.29 25.367 211.778 24.8722 212.422 24.5028C213.066 24.1335 213.788 23.9489 214.588 23.9489C215.592 23.9489 216.359 24.2708 216.889 24.9148C217.424 25.5587 217.59 26.4773 217.386 27.6705L216.165 35H213.317L214.467 28.1889C214.562 27.5497 214.465 27.0786 214.176 26.7756C213.892 26.4678 213.501 26.3139 213.004 26.3139C212.427 26.3139 211.946 26.4962 211.562 26.8608C211.184 27.2206 210.949 27.6941 210.859 28.2812L209.73 35H206.953L208.118 28.1037C208.198 27.5592 208.106 27.1259 207.841 26.804C207.576 26.4773 207.185 26.3139 206.669 26.3139C206.323 26.3139 205.994 26.4039 205.682 26.5838C205.369 26.759 205.104 27.0052 204.886 27.3224C204.673 27.6349 204.534 27.9995 204.467 28.4162L203.359 35H200.511ZM232.955 25.4759H230.064C230.069 25.0592 230.007 24.6899 229.879 24.3679C229.756 24.0412 229.576 23.7642 229.339 23.5369C229.103 23.3049 228.819 23.1321 228.487 23.0185C228.156 22.9001 227.784 22.8409 227.372 22.8409C226.581 22.8409 225.85 23.0398 225.178 23.4375C224.51 23.8305 223.944 24.4058 223.48 25.1634C223.021 25.9162 222.701 26.8277 222.521 27.8977C222.356 28.9394 222.37 29.8106 222.564 30.5114C222.758 31.2074 223.101 31.733 223.594 32.0881C224.086 32.4384 224.695 32.6136 225.419 32.6136C225.864 32.6136 226.288 32.5592 226.69 32.4503C227.093 32.3366 227.462 32.1709 227.798 31.9531C228.139 31.7353 228.438 31.4702 228.693 31.1577C228.949 30.8404 229.148 30.483 229.29 30.0852H232.209C232.005 30.7623 231.695 31.4086 231.278 32.0241C230.866 32.6397 230.36 33.1866 229.759 33.6648C229.162 34.1383 228.487 34.5123 227.734 34.7869C226.982 35.0616 226.16 35.1989 225.27 35.1989C223.958 35.1989 222.834 34.8958 221.896 34.2898C220.959 33.6837 220.284 32.8101 219.872 31.669C219.46 30.5279 219.384 29.1572 219.645 27.5568C219.905 25.9991 220.412 24.678 221.165 23.5938C221.922 22.5047 222.843 21.6761 223.928 21.108C225.012 20.5398 226.177 20.2557 227.422 20.2557C228.274 20.2557 229.046 20.3717 229.737 20.6037C230.429 20.8357 231.018 21.1766 231.506 21.6264C231.998 22.0715 232.37 22.6184 232.621 23.267C232.872 23.911 232.983 24.6473 232.955 25.4759ZM236.699 35.2131C236.008 35.2131 235.409 35.09 234.902 34.8438C234.396 34.5975 234.022 34.233 233.78 33.75C233.543 33.2623 233.484 32.661 233.603 31.946C233.707 31.3352 233.906 30.8286 234.199 30.4261C234.493 30.0189 234.853 29.6922 235.279 29.446C235.705 29.1951 236.174 29.0057 236.685 28.8778C237.201 28.7453 237.731 28.6529 238.276 28.6009C238.915 28.5393 239.436 28.4777 239.838 28.4162C240.241 28.3546 240.542 28.267 240.74 28.1534C240.944 28.035 241.067 27.8598 241.11 27.6278V27.5852C241.185 27.1023 241.1 26.7282 240.854 26.4631C240.613 26.1979 240.22 26.0653 239.675 26.0653C239.102 26.0653 238.617 26.1908 238.219 26.4418C237.826 26.6927 237.544 27.0028 237.374 27.3722L234.782 27.1023C235.047 26.4394 235.43 25.8736 235.932 25.4048C236.439 24.9313 237.038 24.5715 237.729 24.3253C238.42 24.0743 239.183 23.9489 240.016 23.9489C240.589 23.9489 241.133 24.0175 241.65 24.1548C242.166 24.2874 242.615 24.5005 242.999 24.794C243.387 25.0829 243.669 25.464 243.844 25.9375C244.024 26.411 244.057 26.9863 243.944 27.6634L242.722 35H240.009L240.265 33.4943H240.179C239.957 33.821 239.68 34.1146 239.348 34.375C239.017 34.6307 238.629 34.8343 238.184 34.9858C237.743 35.1373 237.248 35.2131 236.699 35.2131ZM237.821 33.2031C238.29 33.2031 238.716 33.1084 239.1 32.919C239.488 32.7296 239.808 32.4763 240.059 32.1591C240.314 31.8419 240.475 31.4867 240.542 31.0938L240.733 29.8864C240.639 29.9527 240.499 30.0118 240.314 30.0639C240.13 30.1113 239.926 30.1562 239.703 30.1989C239.486 30.2415 239.266 30.2794 239.043 30.3125C238.825 30.3409 238.633 30.367 238.468 30.3906C238.089 30.4427 237.748 30.5279 237.445 30.6463C237.147 30.7599 236.9 30.9162 236.706 31.1151C236.512 31.3139 236.394 31.5649 236.351 31.8679C236.28 32.3035 236.382 32.6349 236.657 32.8622C236.936 33.0895 237.324 33.2031 237.821 33.2031ZM250.428 20.4545L248.013 35H245.165L247.58 20.4545H250.428ZM255.779 20.4545L253.365 35H250.517L252.931 20.4545H255.779Z" fill="url(#paint3_linear_2_164)"/>
<defs>
<filter id="filter0_d_2_164" x="5.12216" y="12.8739" width="108.678" height="73.5779" filterUnits="userSpaceOnUse" color-interpolation-filters="sRGB">
<feFlood flood-opacity="0" result="BackgroundImageFix"/>
<feColorMatrix in="SourceAlpha" type="matrix" values="0 0 0 0 0 0 0 0 0 0 0 0 0 0 0 0 0 0 127 0" result="hardAlpha"/>
<feOffset dy="4"/>
<feGaussianBlur stdDeviation="2"/>
<feComposite in2="hardAlpha" operator="out"/>
<feColorMatrix type="matrix" values="0 0 0 0 0 0 0 0 0 0 0 0 0 0 0 0 0 0 0.25 0"/>
<feBlend mode="normal" in2="BackgroundImageFix" result="effect1_dropShadow_2_164"/>
<feBlend mode="normal" in="SourceGraphic" in2="effect1_dropShadow_2_164" result="shape"/>
</filter>
<filter id="filter1_d_2_164" x="5.12216" y="12.8739" width="80.4697" height="73.5779" filterUnits="userSpaceOnUse" color-interpolation-filters="sRGB">
<feFlood flood-opacity="0" result="BackgroundImageFix"/>
<feColorMatrix in="SourceAlpha" type="matrix" values="0 0 0 0 0 0 0 0 0 0 0 0 0 0 0 0 0 0 127 0" result="hardAlpha"/>
<feOffset dy="4"/>
<feGaussianBlur stdDeviation="2"/>
<feComposite in2="hardAlpha" operator="out"/>
<feColorMatrix type="matrix" values="0 0 0 0 0 0 0 0 0 0 0 0 0 0 0 0 0 0 0.25 0"/>
<feBlend mode="normal" in2="BackgroundImageFix" result="effect1_dropShadow_2_164"/>
<feBlend mode="normal" in="SourceGraphic" in2="effect1_dropShadow_2_164" result="shape"/>
</filter>
<filter id="filter2_d_2_164" x="61.384" y="18.76" width="52.416" height="51.52" filterUnits="userSpaceOnUse" color-interpolation-filters="sRGB">
<feFlood flood-opacity="0" result="BackgroundImageFix"/>
<feColorMatrix in="SourceAlpha" type="matrix" values="0 0 0 0 0 0 0 0 0 0 0 0 0 0 0 0 0 0 127 0" result="hardAlpha"/>
<feOffset dy="4"/>
<feGaussianBlur stdDeviation="2"/>
<feComposite in2="hardAlpha" operator="out"/>
<feColorMatrix type="matrix" values="0 0 0 0 0 0 0 0 0 0 0 0 0 0 0 0 0 0 0.25 0"/>
<feBlend mode="normal" in2="BackgroundImageFix" result="effect1_dropShadow_2_164"/>
<feBlend mode="normal" in="SourceGraphic" in2="effect1_dropShadow_2_164" result="shape"/>
</filter>
<linearGradient id="paint0_linear_2_164" x1="8.53908" y1="34.4079" x2="81.6302" y2="36.1437" gradientUnits="userSpaceOnUse">
<stop stop-color="#4891FF"/>
<stop offset="1" stop-color="#485BFF"/>
</linearGradient>
<linearGradient id="paint1_linear_2_164" x1="67.6095" y1="16.1281" x2="128.244" y2="46.0954" gradientUnits="userSpaceOnUse">
<stop stop-color="#4891FF"/>
<stop offset="1" stop-color="#485BFF"/>
</linearGradient>
<linearGradient id="paint2_linear_2_164" x1="101.308" y1="3.00001" x2="152.012" y2="82.8887" gradientUnits="userSpaceOnUse">
<stop stop-color="#DA48FF"/>
<stop offset="1" stop-color="#4891FF"/>
</linearGradient>
<linearGradient id="paint3_linear_2_164" x1="135" y1="6" x2="304" y2="62" gradientUnits="userSpaceOnUse">
<stop stop-color="#4891FF"/>
<stop offset="1" stop-color="#9948FF"/>
</linearGradient>
</defs>
</svg>
