<svg width="20" height="20" viewBox="0 0 20 20" fill="none" xmlns="http://www.w3.org/2000/svg">
<path d="M18.9304 0H13.9387C13.3148 0 12.8691 0.491071 12.8691 1.07143C12.8691 1.69643 13.3148 2.14286 13.9387 2.14286H16.3454L12.5571 5.9375C11.1755 4.86607 9.52646 4.28571 7.87744 4.28571C5.8273 4.28571 3.82173 5.08929 2.30641 6.60714C-0.768802 9.6875 -0.768802 14.6429 2.30641 17.7232C3.82173 19.2411 5.8273 20 7.87744 20C9.88301 20 11.844 19.2411 13.4039 17.7232C16.2117 14.9107 16.4345 10.5357 14.0724 7.45536L17.8607 3.66071V6.07143C17.8607 6.69643 18.3064 7.14286 18.9304 7.14286C19.5097 7.14286 20 6.69643 20 6.07143V1.07143C20 0.491071 19.5097 0 18.9304 0ZM11.8886 16.2054C10.8189 17.2768 9.39276 17.8571 7.87744 17.8571C6.31755 17.8571 4.89136 17.2768 3.82173 16.2054C1.59331 13.9732 1.59331 10.3571 3.82173 8.125C4.89136 7.05357 6.31755 6.42857 7.87744 6.42857C9.39276 6.42857 10.8189 7.05357 11.8886 8.125C14.117 10.3571 14.117 13.9732 11.8886 16.2054Z" fill="#427EEB"/>
</svg>
