<svg width="20" height="20" viewBox="0 0 20 20" fill="none" xmlns="http://www.w3.org/2000/svg">
<path d="M17.75 9C17.75 13.02 14.673 16.3329 10.75 16.7119V19C10.75 19.414 10.414 19.75 10 19.75C9.58602 19.75 9.25002 19.414 9.25002 19V16.7019C8.83802 16.6619 8.43091 16.6011 8.03591 16.4951C7.63691 16.3881 7.39813 15.9759 7.50613 15.5769C7.61313 15.1779 8.02207 14.9409 8.42507 15.0459C8.93107 15.1819 9.46102 15.251 10 15.251C13.446 15.251 16.25 12.447 16.25 9.00098C16.25 8.58698 16.586 8.25098 17 8.25098C17.414 8.25098 17.75 8.586 17.75 9ZM11.4141 13.5359C12.9031 13.0719 14.0699 11.9051 14.5359 10.4141C14.5579 10.3421 14.5701 10.2659 14.5701 10.1899V10.1799C14.5701 9.76593 14.2341 9.43506 13.8201 9.43506C13.4771 9.43506 13.1869 9.66889 13.0979 9.98389C12.7809 10.9789 12.0071 11.7599 11.0191 12.0869C10.6831 12.1609 10.4351 12.4611 10.4351 12.8201C10.4351 13.2341 10.776 13.5701 11.19 13.5701C11.267 13.5701 11.3421 13.5589 11.4141 13.5359ZM19.5301 1.53003L1.53005 19.53C1.38405 19.676 1.19202 19.75 1.00002 19.75C0.808023 19.75 0.615994 19.677 0.469994 19.53C0.176994 19.237 0.176994 18.762 0.469994 18.469L4.49099 14.448C3.04599 12.988 2.25002 11.055 2.25002 8.99902C2.25002 8.58502 2.58602 8.24902 3.00002 8.24902C3.41402 8.24902 3.75002 8.58502 3.75002 8.99902C3.75002 10.654 4.39105 12.21 5.55105 13.387L6.62014 12.3181C5.75514 11.4401 5.25002 10.254 5.25002 8.99805V4.99805C5.25002 3.74005 5.74201 2.54809 6.63601 1.64209C7.55101 0.74109 8.74202 0.248047 10 0.248047C12.367 0.248047 14.319 1.99396 14.676 4.26196L18.47 0.468018C18.763 0.175018 19.238 0.175018 19.531 0.468018C19.824 0.761018 19.8231 1.23703 19.5301 1.53003ZM7.68606 11.2529L13.25 5.68896V5C13.25 3.208 11.792 1.75 10 1.75C9.13902 1.75 8.32007 2.0891 7.69607 2.7041C7.08907 3.3201 6.75002 4.139 6.75002 5V9C6.75002 9.854 7.10006 10.6539 7.68606 11.2529Z" fill="#0B224B"/>
</svg>
