<svg width="159" height="123" viewBox="0 0 159 123" fill="none" xmlns="http://www.w3.org/2000/svg">
<path d="M141.39 41.5446C134.025 46.525 125.366 49.4086 118.205 54.6707C111.043 59.9328 105.402 68.9889 108.048 77.4848C109.841 83.2467 115 87.332 117.528 92.8156C119.072 96.4934 119.508 100.542 118.782 104.464C118.056 108.386 116.201 112.011 113.443 114.893C110.612 117.7 107.145 119.78 103.335 120.955C99.5265 122.13 95.4896 122.365 91.5699 121.641C83.6813 120.053 76.7098 115.481 72.1084 108.88C69.0171 104.575 66.9356 99.6352 63.937 95.2541C60.9385 90.8731 56.6759 86.9506 51.4276 86.2001C41.2125 84.7455 32.5242 95.6215 22.2319 94.9019C15.6766 94.4468 10.0917 88.8912 8.67997 82.4819C8.09395 79.2388 8.25824 75.905 9.16024 72.7352C10.0622 69.5654 11.678 66.6439 13.8837 64.1952C18.3602 59.3325 24.1327 55.8503 30.5218 54.1575C34.8444 52.8781 39.3131 52.187 43.531 50.6431C47.8751 49.3093 51.575 46.4214 53.9229 42.5307C59.0974 32.6523 49.9249 20.0838 53.9229 9.6764C55.2227 6.72912 57.3704 4.23559 60.0925 2.51334C62.8146 0.791088 65.9878 -0.0816658 69.2077 0.00601391C72.4234 0.171114 75.5661 1.02405 78.4239 2.50747C81.2817 3.99088 83.7881 6.06997 85.7737 8.60471C88.178 11.5002 91.3157 23.6117 94.2112 24.5082C97.5928 25.5524 108.837 14.396 111.983 12.3523C118.95 7.84069 127.02 4.37141 135.295 4.98796C143.569 5.6045 151.861 11.2789 153.389 19.4382C155.015 28.1694 148.738 36.5624 141.39 41.5446Z" fill="#E8F0FD"/>
<path d="M62.8907 116.694C62.887 116.409 62.9962 116.134 63.1943 115.929C63.3925 115.724 63.6636 115.606 63.9486 115.6L65.4943 115.579L65.4754 114.034C65.4718 113.749 65.5815 113.474 65.7806 113.27C65.9796 113.066 66.2516 112.949 66.5367 112.945C66.8219 112.942 67.0968 113.052 67.301 113.251C67.5052 113.45 67.6219 113.721 67.6256 114.006L67.6462 115.552L69.1918 115.532C69.4703 115.538 69.7354 115.652 69.9314 115.85C70.1273 116.048 70.2389 116.315 70.2427 116.593C70.2465 116.872 70.1421 117.141 69.9516 117.345C69.7611 117.548 69.4992 117.669 69.221 117.683L67.6754 117.703L67.696 119.248C67.6996 119.533 67.5898 119.808 67.3908 120.012C67.1918 120.216 66.9198 120.333 66.6346 120.337C66.3495 120.34 66.0746 120.23 65.8704 120.031C65.6662 119.832 65.5495 119.561 65.5458 119.276L65.5252 117.729L63.9795 117.75C63.6956 117.753 63.4219 117.644 63.2181 117.446C63.0142 117.248 62.8966 116.978 62.8907 116.694Z" fill="#E8F0FD"/>
<path d="M8.28136 14.2071C8.27722 13.9222 8.38596 13.6473 8.58385 13.4423C8.78174 13.2374 9.05269 13.1186 9.33754 13.1128L10.8832 13.0926L10.8626 11.5472C10.8589 11.262 10.9687 10.9866 11.1678 10.7824C11.3668 10.5782 11.6388 10.4615 11.924 10.4579C12.2091 10.4542 12.484 10.564 12.6882 10.7631C12.8924 10.9621 13.0091 11.2344 13.0128 11.5195L13.0334 13.065L14.579 13.044C14.8575 13.0507 15.1226 13.1655 15.3186 13.3635C15.5145 13.5615 15.6261 13.8279 15.6299 14.1065C15.6337 14.385 15.5294 14.6537 15.3388 14.857C15.1483 15.0602 14.8864 15.1824 14.6082 15.1966L13.0626 15.2167L13.0815 16.7622C13.0851 17.0474 12.9754 17.3228 12.7763 17.527C12.5773 17.7312 12.3053 17.8479 12.0201 17.8515C11.735 17.8552 11.4601 17.7453 11.2559 17.5463C11.0517 17.3472 10.9349 17.075 10.9313 16.7899L10.9107 15.2444L9.36503 15.2654C9.08164 15.2668 8.80907 15.1564 8.60628 14.9585C8.40349 14.7605 8.28678 14.4904 8.28136 14.2071V14.2071Z" fill="#E8F0FD"/>
<path d="M116.145 15.7542L116.111 36.9298L116.059 68.4265L115.991 107.823H37.025L37.0593 60.2521V55.941L37.0936 36.4317V23.9118L30.0352 7.20166H108.029C110.238 7.26281 112.333 8.1972 113.854 9.80039C115.376 11.4036 116.2 13.5447 116.145 15.7542V15.7542Z" fill="white"/>
<path d="M116.141 15.7594L116.107 36.9349L115.987 107.829H110.096L110.216 36.9349L110.251 15.7594C110.309 13.5504 109.488 11.4093 107.968 9.80552C106.448 8.20172 104.353 7.26657 102.145 7.20679H108.018C110.229 7.26615 112.325 8.20046 113.848 9.80384C115.371 11.4072 116.196 13.5487 116.141 15.7594V15.7594Z" fill="#E8F0FD"/>
<g opacity="0.3">
<g opacity="0.3">
<g opacity="0.3">
<g opacity="0.3">
<path opacity="0.3" d="M116.054 68.4263L115.985 107.823H103.586C102.962 107.299 102.365 106.744 101.8 106.158C98.8666 103.117 96.8573 99.3056 96.0053 95.1674C95.1533 91.0292 95.4937 86.7341 96.9868 82.7817C98.48 78.8294 101.065 75.3817 104.44 72.8405C107.815 70.2993 111.843 68.7684 116.054 68.4263V68.4263Z" fill="#CEDBF0"/>
</g>
</g>
</g>
</g>
<path d="M105.827 99.2263H47.319C46.8635 99.2263 46.4266 99.0452 46.1046 98.7231C45.7825 98.4011 45.6016 97.9644 45.6016 97.5089C45.6016 97.0534 45.7825 96.6167 46.1046 96.2946C46.4266 95.9726 46.8635 95.7915 47.319 95.7915H105.827C106.283 95.7915 106.719 95.9726 107.041 96.2946C107.363 96.6167 107.544 97.0534 107.544 97.5089C107.544 97.9644 107.363 98.4011 107.041 98.7231C106.719 99.0452 106.283 99.2263 105.827 99.2263V99.2263Z" fill="#E8F0FD"/>
<path d="M105.827 87.9638H47.319C46.8635 87.9638 46.4266 87.7836 46.1046 87.4615C45.7825 87.1395 45.6016 86.7019 45.6016 86.2464C45.6016 85.791 45.7825 85.3543 46.1046 85.0322C46.4266 84.7101 46.8635 84.5291 47.319 84.5291H105.827C106.283 84.5291 106.719 84.7101 107.041 85.0322C107.363 85.3543 107.544 85.791 107.544 86.2464C107.544 86.7019 107.363 87.1395 107.041 87.4615C106.719 87.7836 106.283 87.9638 105.827 87.9638V87.9638Z" fill="#E8F0FD"/>
<path d="M105.827 31.6528H47.319C46.8635 31.6528 46.4266 31.4717 46.1046 31.1497C45.7825 30.8276 45.6016 30.3909 45.6016 29.9354C45.6016 29.4799 45.7825 29.0424 46.1046 28.7203C46.4266 28.3982 46.8635 28.218 47.319 28.218H105.827C106.283 28.218 106.719 28.3982 107.041 28.7203C107.363 29.0424 107.544 29.4799 107.544 29.9354C107.544 30.3909 107.363 30.8276 107.041 31.1497C106.719 31.4717 106.283 31.6528 105.827 31.6528V31.6528Z" fill="#E8F0FD"/>
<path d="M105.827 20.3882H47.319C46.8635 20.3882 46.4266 20.2071 46.1046 19.885C45.7825 19.5629 45.6016 19.1262 45.6016 18.6708C45.6016 18.2153 45.7825 17.7786 46.1046 17.4565C46.4266 17.1344 46.8635 16.9534 47.319 16.9534H105.827C106.283 16.9534 106.719 17.1344 107.041 17.4565C107.363 17.7786 107.544 18.2153 107.544 18.6708C107.544 19.1262 107.363 19.5629 107.041 19.885C106.719 20.2071 106.283 20.3882 105.827 20.3882V20.3882Z" fill="#E8F0FD"/>
<path d="M37.0968 14.224V33.8985H26.4387C25.5277 33.8985 24.6541 33.5372 24.0099 32.8931C23.3658 32.2489 23.0039 31.3747 23.0039 30.4637V14.224C23.0039 12.3565 23.7458 10.5659 25.0663 9.2454C26.3868 7.9249 28.1778 7.18336 30.0452 7.18336V7.18336C30.9708 7.182 31.8875 7.3626 32.743 7.71585C33.5984 8.0691 34.3759 8.58807 35.0308 9.24205C35.6858 9.89603 36.2053 10.6722 36.5598 11.5271C36.9143 12.3821 37.0968 13.2984 37.0968 14.224Z" fill="white"/>
<path d="M37.0993 14.2348V33.8934H30.0374V14.2348C30.04 13.3071 29.8593 12.3881 29.5057 11.5304C29.152 10.6728 28.6323 9.89314 27.9765 9.23695C27.5432 8.81181 27.0606 8.4399 26.5391 8.1292C27.6001 7.50368 28.8091 7.17318 30.0408 7.17239C30.9689 7.16967 31.8885 7.35095 32.7465 7.70489C33.6045 8.05882 34.3841 8.57897 35.0404 9.23528C35.6967 9.89158 36.2168 10.6707 36.5707 11.5288C36.9246 12.3868 37.1054 13.3067 37.1027 14.2348H37.0993Z" fill="#E8F0FD"/>
<path d="M57.379 62.6168L59.2579 55.4227C59.278 55.3458 59.3195 55.2765 59.3777 55.2223C59.4359 55.1681 59.5083 55.1312 59.5864 55.1166C59.6646 55.1021 59.7452 55.1097 59.819 55.1393C59.8928 55.1688 59.9567 55.219 60.0032 55.2835L64.3207 61.2567C64.3632 61.315 64.3899 61.3829 64.3982 61.4546C64.4065 61.5262 64.3961 61.5994 64.3682 61.6659C64.3402 61.7324 64.2955 61.7903 64.2384 61.8344C64.1814 61.8786 64.1139 61.907 64.0425 61.9174L62.8249 62.0894C62.7631 62.0984 62.704 62.1212 62.6519 62.1556C62.5997 62.19 62.5557 62.2349 62.523 62.2881C62.4902 62.3413 62.4695 62.4013 62.4623 62.4634C62.4552 62.5254 62.4617 62.5886 62.4814 62.6478C63.3086 65.4101 64.9336 67.8659 67.1522 69.7078C69.3707 71.5496 72.0841 72.6951 74.9514 73V44.9431H78.144V73.3061C80.9106 72.7999 83.5051 71.6047 85.6879 69.831C87.8706 68.0574 89.5714 65.7622 90.6329 63.1577C90.6566 63.1036 90.6688 63.0457 90.6689 62.9866C90.669 62.9276 90.6569 62.8689 90.6333 62.8147C90.6098 62.7606 90.5753 62.7116 90.5321 62.6713C90.4889 62.6311 90.4378 62.6004 90.3821 62.5808L88.9653 62.0961C88.9012 62.0738 88.8435 62.0364 88.797 61.987C88.7505 61.9377 88.7166 61.8779 88.6982 61.8126C88.6798 61.7474 88.6775 61.6786 88.6914 61.6122C88.7053 61.5458 88.7351 61.4843 88.7781 61.4319L93.5714 55.6164C93.6218 55.555 93.6887 55.5096 93.7641 55.4848C93.8396 55.4599 93.9206 55.4569 93.9977 55.4764C94.0747 55.4958 94.1447 55.5369 94.1993 55.5946C94.254 55.6523 94.2911 55.7246 94.3064 55.8026L95.7833 63.2265C95.7967 63.2941 95.7932 63.3642 95.7732 63.4302C95.7532 63.4962 95.7173 63.5558 95.6686 63.6047C95.6199 63.6535 95.56 63.6901 95.494 63.7103C95.4281 63.7305 95.3582 63.7343 95.2904 63.7212L93.8496 63.4327C93.7471 63.4138 93.6411 63.4332 93.5525 63.4881C93.4639 63.543 93.399 63.6293 93.3704 63.7296C91.4435 70.2162 87.4403 73.3629 81.9463 75.4478C79.8355 76.256 77.9316 77.5244 76.3734 79.1618C74.5821 77.3261 72.4142 75.9012 70.019 74.984C69.0122 74.6136 68.0492 74.1333 67.1476 73.5518C63.3891 71.1968 60.6786 67.488 59.5756 63.1921C59.5491 63.0909 59.4854 63.0033 59.3971 62.9472C59.3089 62.8911 59.2027 62.8712 59.0999 62.8902L57.8582 63.1283C57.7897 63.1403 57.7192 63.1353 57.6533 63.1132C57.5873 63.0912 57.5279 63.0533 57.4803 63.0026C57.4328 62.9518 57.3986 62.8895 57.381 62.8223C57.3633 62.755 57.3626 62.6844 57.379 62.6168V62.6168Z" fill="#E8F0FD"/>
<path d="M84.6072 53.7516H68.4363C68.0263 53.7516 67.6332 53.5887 67.3433 53.2988C67.0535 53.0089 66.8906 52.6161 66.8906 52.2061C66.8906 51.7962 67.0535 51.4033 67.3433 51.1135C67.6332 50.8236 68.0263 50.6606 68.4363 50.6606H84.6072C85.0172 50.6606 85.4103 50.8236 85.7002 51.1135C85.99 51.4033 86.1529 51.7962 86.1529 52.2061C86.1529 52.6161 85.99 53.0089 85.7002 53.2988C85.4103 53.5887 85.0172 53.7516 84.6072 53.7516V53.7516Z" fill="#E8F0FD"/>
<path d="M76.5347 44.1877C75.996 44.1941 75.4675 44.0403 75.0165 43.7457C74.5654 43.4512 74.2121 43.029 74.0014 42.5332C73.7908 42.0373 73.7323 41.49 73.8334 40.9608C73.9346 40.4317 74.1907 39.9445 74.5693 39.5613C74.948 39.178 75.432 38.9157 75.9599 38.8082C76.4878 38.7007 77.0358 38.7529 77.5341 38.9575C78.0325 39.1621 78.4587 39.5104 78.7587 39.9579C79.0587 40.4054 79.2189 40.932 79.219 41.4707C79.2181 42.1854 78.9361 42.8709 78.4338 43.3793C77.9315 43.8877 77.2493 44.1782 76.5347 44.1877V44.1877Z" fill="white"/>
<path d="M135.006 90.9674C134.947 94.3602 133.882 97.6595 131.948 100.447C130.013 103.235 127.295 105.387 124.138 106.63C120.98 107.873 117.525 108.152 114.209 107.432C110.893 106.711 107.865 105.024 105.509 102.582C103.152 100.141 101.572 97.0555 100.969 93.7162C100.365 90.3769 100.766 86.9336 102.12 83.8219C103.473 80.7103 105.719 78.0697 108.574 76.2345C111.428 74.3994 114.762 73.4518 118.155 73.5117C122.704 73.593 127.035 75.4778 130.195 78.7511C133.354 82.0244 135.085 86.4184 135.006 90.9674V90.9674Z" fill="white"/>
<path d="M135.005 90.9729C134.924 95.5222 133.04 99.8528 129.766 103.013C126.493 106.173 122.099 107.905 117.549 107.826C116.716 107.812 115.885 107.738 115.062 107.607C119.148 107.079 122.908 105.099 125.655 102.029C128.402 98.9595 129.953 95.0046 130.026 90.8857C130.098 86.7668 128.687 82.7591 126.049 79.5944C123.412 76.4297 119.725 74.3185 115.66 73.6472C116.487 73.5448 117.321 73.5017 118.154 73.5172C122.703 73.5981 127.034 75.4824 130.194 78.7558C133.354 82.0292 135.084 86.4238 135.005 90.9729Z" fill="#E8F0FD"/>
<path d="M145.861 17.9853C145.87 17.654 145.748 17.3324 145.521 17.0906C145.294 16.8488 144.981 16.7056 144.65 16.6931L142.845 16.6352L142.904 14.8281C142.915 14.4952 142.793 14.1715 142.565 13.9283C142.337 13.6852 142.022 13.5426 141.689 13.5317C141.357 13.5208 141.033 13.6428 140.79 13.8705C140.547 14.0982 140.404 14.413 140.393 14.7459L140.334 16.553L138.528 16.4943C138.363 16.4889 138.199 16.5159 138.044 16.574C137.89 16.6321 137.748 16.7204 137.628 16.8331C137.508 16.9459 137.411 17.0812 137.342 17.2315C137.274 17.3817 137.237 17.5437 137.231 17.7086C137.226 17.8735 137.253 18.0372 137.311 18.1916C137.369 18.346 137.457 18.488 137.57 18.6084C137.682 18.7288 137.818 18.8254 137.968 18.8935C138.118 18.9616 138.28 18.9996 138.445 19.005L140.252 19.0637L140.194 20.8633C140.188 21.1925 140.313 21.5104 140.54 21.7488C140.767 21.9872 141.079 22.1271 141.408 22.1379C141.737 22.1487 142.057 22.0297 142.299 21.8067C142.541 21.5837 142.686 21.2743 142.703 20.9455L142.763 19.1392L144.57 19.1971C144.901 19.2054 145.222 19.0835 145.464 18.8566C145.706 18.6297 145.848 18.3167 145.861 17.9853Z" fill="#427EEB"/>
<path d="M2.48119 59.0788L4.28789 59.1392L4.22777 60.9454C4.21684 61.2784 4.33861 61.6021 4.56632 61.8452C4.79403 62.0884 5.10901 62.2318 5.44197 62.2427C5.77493 62.2536 6.09859 62.1316 6.34176 61.9039C6.58492 61.6762 6.72768 61.3614 6.73861 61.0285L6.79699 59.2197L8.60369 59.28C8.93665 59.291 9.26031 59.169 9.50348 58.9413C9.74665 58.7136 9.88938 58.3988 9.90031 58.0658C9.91124 57.7328 9.78947 57.4092 9.56176 57.166C9.33405 56.9228 9.01907 56.7803 8.68611 56.7694L6.87944 56.7107L6.93953 54.9036C6.95046 54.5706 6.82868 54.2469 6.60098 54.0038C6.37327 53.7606 6.05828 53.6181 5.72533 53.6071C5.39237 53.5962 5.06871 53.7182 4.82554 53.9459C4.58238 54.1736 4.43965 54.4884 4.42872 54.8214L4.3686 56.6285L2.5619 56.5698C2.23295 56.5652 1.91535 56.6897 1.67743 56.917C1.43951 57.1442 1.30029 57.4561 1.28971 57.7849C1.27913 58.1137 1.39805 58.4334 1.62087 58.6754C1.84369 58.9175 2.15263 59.0622 2.48119 59.0788V59.0788Z" fill="#427EEB"/>
<path d="M156.284 106.11H145.655C145.199 106.11 144.763 106.29 144.441 106.612C144.118 106.934 143.938 107.372 143.938 107.827C143.938 108.283 144.118 108.72 144.441 109.042C144.763 109.364 145.199 109.545 145.655 109.545H156.284C156.739 109.545 157.176 109.364 157.498 109.042C157.82 108.72 158.001 108.283 158.001 107.827C158.001 107.372 157.82 106.934 157.498 106.612C157.176 106.29 156.739 106.11 156.284 106.11Z" fill="#427EEB"/>
<path d="M135.423 106.11H128.665C131.934 103.829 134.395 100.571 135.697 96.8036C136.998 93.0364 137.072 88.9536 135.909 85.1416C134.745 81.3296 132.403 77.9841 129.219 75.5861C126.036 73.1881 122.174 71.8605 118.189 71.7941C118.076 71.7941 117.966 71.8067 117.846 71.8067V15.7592C117.906 13.0906 116.905 10.5077 115.063 8.57599C113.22 6.64429 110.687 5.52146 108.019 5.45483H30.0183C27.6993 5.46255 25.4777 6.38869 23.8395 8.03008C22.2014 9.67148 21.2799 11.8947 21.2767 14.2137V30.4534C21.2767 31.8199 21.8196 33.13 22.7858 34.0962C23.752 35.0624 25.0625 35.6056 26.4289 35.6056H35.3594L35.2958 106.099H1.71739C1.26191 106.099 0.825084 106.28 0.503011 106.602C0.180938 106.924 0 107.361 0 107.817C0 108.272 0.180938 108.709 0.503011 109.031C0.825084 109.353 1.26191 109.534 1.71739 109.534H51.4445C51.4685 109.534 51.4874 109.522 51.5114 109.521H51.7673C52.2228 109.521 52.6596 109.339 52.9817 109.017C53.3038 108.695 53.4847 108.259 53.4847 107.803C53.4847 107.348 53.3038 106.911 52.9817 106.589C52.6596 106.267 52.2228 106.086 51.7673 106.086H38.7152L38.7924 14.2053C38.7845 12.2733 38.131 10.3992 36.9359 8.88123H108.024C109.781 8.94791 111.441 9.70857 112.639 10.9961C113.837 12.2836 114.476 13.9931 114.416 15.7508V72.1153C110.763 72.7891 107.391 74.5271 104.722 77.1106C102.054 79.6941 100.208 83.0087 99.416 86.6376C98.6242 90.2666 98.9219 94.0485 100.272 97.5088C101.622 100.969 103.964 103.953 107.004 106.087H62.7208C62.2654 106.087 61.8285 106.268 61.5065 106.591C61.1844 106.913 61.0035 107.349 61.0035 107.805C61.0035 108.26 61.1844 108.697 61.5065 109.019C61.8285 109.341 62.2654 109.522 62.7208 109.522H63.5126C63.5349 109.522 63.5555 109.536 63.5795 109.536H135.423C135.879 109.536 136.315 109.355 136.638 109.032C136.96 108.71 137.141 108.274 137.141 107.818C137.141 107.363 136.96 106.926 136.638 106.604C136.315 106.282 135.879 106.101 135.423 106.101V106.11ZM26.4289 32.1809C25.9734 32.1809 25.5366 31.9998 25.2145 31.6778C24.8925 31.3557 24.7115 30.919 24.7115 30.4635V14.2238C24.7115 12.8104 25.273 11.4555 26.2724 10.4561C27.2718 9.45667 28.6273 8.89465 30.0406 8.89465C31.454 8.89465 32.8094 9.45667 33.8088 10.4561C34.8082 11.4555 35.3697 12.8104 35.3697 14.2238C35.3542 38.7636 35.3594 30.3811 35.3594 32.1809H26.4289ZM102.42 90.4011C102.496 86.3562 104.154 82.5016 107.039 79.6658C109.925 76.8299 113.807 75.2387 117.853 75.2331H118.127C121.18 75.2869 124.148 76.2445 126.657 77.9853C129.165 79.726 131.101 82.1716 132.22 85.0125C133.338 87.8534 133.589 90.9622 132.941 93.9458C132.293 96.9294 130.774 99.6531 128.578 101.774C126.381 103.894 123.605 105.316 120.601 105.859C117.596 106.402 114.498 106.042 111.698 104.825C108.898 103.607 106.522 101.586 104.871 99.0183C103.219 96.4502 102.367 93.4497 102.42 90.3969V90.4011Z" fill="#427EEB"/>
<path d="M68.1683 49.0891C67.5525 49.0891 66.9505 49.2719 66.4385 49.6141C65.9264 49.9562 65.5274 50.4422 65.2917 51.0111C65.056 51.5801 64.9944 52.2059 65.1145 52.8098C65.2347 53.4138 65.5312 53.9685 65.9666 54.404C66.4021 54.8394 66.9569 55.1367 67.5609 55.2568C68.1648 55.3769 68.7909 55.3147 69.3598 55.079C69.9288 54.8434 70.4151 54.4447 70.7572 53.9327C71.0993 53.4207 71.2819 52.8185 71.2819 52.2027C71.2801 51.3775 70.9515 50.5867 70.368 50.0032C69.7845 49.4196 68.9935 49.0909 68.1683 49.0891V49.0891Z" fill="#427EEB"/>
<path d="M84.9847 55.3164C86.7043 55.3164 88.0984 53.9224 88.0984 52.2027C88.0984 50.4831 86.7043 49.0891 84.9847 49.0891C83.2651 49.0891 81.8711 50.4831 81.8711 52.2027C81.8711 53.9224 83.2651 55.3164 84.9847 55.3164Z" fill="#427EEB"/>
<path d="M76.5241 35.8548C75.4128 35.852 74.3257 36.1794 73.4004 36.7948C72.4751 37.4102 71.7531 38.2863 71.326 39.3122C70.8988 40.3381 70.7856 41.4672 71.0008 42.5574C71.2159 43.6477 71.7497 44.6503 72.5345 45.4371C73.3194 46.2239 74.32 46.7597 75.4097 46.9775C76.4995 47.1954 77.6293 47.0852 78.6563 46.6606C79.6833 46.2359 80.5612 45.5156 81.1789 44.5918C81.7965 43.668 82.1263 42.582 82.1263 41.4707C82.1254 39.9839 81.5353 38.5576 80.4853 37.5051C79.4353 36.4525 78.0109 35.8593 76.5241 35.8548V35.8548Z" fill="#427EEB"/>
<path d="M123.688 91.0321L127.662 87.0549C128.296 86.4376 128.691 85.6181 128.78 84.7396C128.869 83.8611 128.646 82.9795 128.149 82.2484C127.841 81.8158 127.442 81.4555 126.979 81.1931C126.517 80.9308 126.002 80.7725 125.472 80.7293C124.941 80.6862 124.408 80.7593 123.909 80.9435C123.409 81.1277 122.957 81.4184 122.582 81.7954L118.506 85.8606L114.436 81.8014C114.062 81.4231 113.609 81.131 113.11 80.9458C112.61 80.7605 112.076 80.6864 111.545 80.729C111.014 80.7716 110.499 80.9298 110.036 81.1923C109.572 81.4547 109.173 81.8153 108.864 82.2484C108.367 82.9792 108.144 83.8606 108.233 84.739C108.322 85.6175 108.717 86.4369 109.351 87.0538L113.323 91.0309L109.36 94.9827C109.005 95.3128 108.72 95.71 108.52 96.151C108.32 96.5921 108.21 97.0681 108.197 97.5519C108.183 98.0356 108.266 98.5174 108.44 98.969C108.615 99.4206 108.877 99.8331 109.213 100.183C109.548 100.532 109.95 100.812 110.395 101.006C110.84 101.199 111.319 101.303 111.804 101.311C112.29 101.318 112.771 101.229 113.222 101.05C113.673 100.87 114.083 100.603 114.43 100.264L118.506 96.199L122.582 100.264C122.94 100.616 123.365 100.892 123.833 101.074C124.301 101.257 124.802 101.341 125.304 101.324C125.806 101.306 126.299 101.186 126.753 100.971C127.207 100.756 127.612 100.451 127.943 100.074C128.546 99.3452 128.852 98.4159 128.798 97.4719C128.744 96.5279 128.335 95.6389 127.652 94.9827L123.688 91.0321ZM126.173 98.5423C126.052 98.6767 125.906 98.7853 125.743 98.8619C125.58 98.9385 125.402 98.9813 125.222 98.9878C125.041 98.9944 124.862 98.9647 124.693 98.9001C124.525 98.8356 124.371 98.7375 124.241 98.6123L119.774 94.1567C119.436 93.8225 118.98 93.635 118.505 93.635C118.029 93.635 117.573 93.8225 117.236 94.1567L112.771 98.6088C112.642 98.7345 112.488 98.8328 112.32 98.8976C112.151 98.9624 111.971 98.9926 111.791 98.9861C111.611 98.9796 111.433 98.9365 111.27 98.8599C111.107 98.7832 110.961 98.6745 110.841 98.54C110.63 98.2566 110.532 97.9052 110.565 97.5539C110.598 97.2025 110.76 96.8757 111.02 96.6365L115.372 92.2967C115.708 91.9609 115.897 91.5059 115.897 91.0315C115.897 90.5571 115.708 90.1024 115.372 89.7666L111.011 85.4056C110.77 85.1811 110.615 84.8807 110.57 84.5551C110.526 84.2295 110.595 83.8985 110.767 83.6181C110.876 83.4606 111.019 83.3292 111.186 83.2334C111.352 83.1376 111.538 83.0798 111.729 83.064C111.921 83.0483 112.113 83.075 112.293 83.1423C112.473 83.2095 112.636 83.3156 112.77 83.453L117.234 87.9054C117.576 88.2319 118.031 88.414 118.504 88.414C118.978 88.414 119.433 88.2319 119.775 87.9054L124.246 83.4484C124.379 83.313 124.54 83.2083 124.717 83.142C124.895 83.0757 125.086 83.0494 125.275 83.0649C125.467 83.0799 125.654 83.1371 125.822 83.2328C125.989 83.3285 126.134 83.4602 126.244 83.6181C126.416 83.8985 126.485 84.2295 126.441 84.5551C126.396 84.8807 126.241 85.1811 126 85.4056L121.636 89.7677C121.301 90.1039 121.113 90.5583 121.113 91.0321C121.113 91.5059 121.301 91.9605 121.636 92.2967L125.988 96.6365C126.25 96.8754 126.413 97.2023 126.447 97.5541C126.481 97.906 126.383 98.2581 126.173 98.5423Z" fill="#427EEB"/>
</svg>
