<svg width="162" height="125" viewBox="0 0 162 125" fill="none" xmlns="http://www.w3.org/2000/svg">
<path d="M149.045 62.8809C149.059 71.4072 141.756 78.3953 133.788 81.2754C125.821 84.1554 117.156 83.9601 108.737 84.7432C100.317 85.5263 90.4335 93.3416 84.6436 99.5467C80.8123 103.643 78.7853 109.065 76.0594 113.969C73.3335 118.872 69.3813 123.669 63.898 124.774C57.8856 125.978 51.763 122.217 48.2382 117.17C44.7135 112.123 43.1578 105.989 41.49 100.034C39.8222 94.0797 38.8027 82.2811 34.6246 77.7665C30.9877 73.8547 26.0598 71.4915 21.3105 69.074C16.5612 66.6564 11.7436 63.9438 8.62001 59.615C5.49645 55.2861 4.60821 48.863 7.91922 44.6866C12.0571 39.4871 19.8722 40.1441 26.4662 39.5713C32.6873 38.978 38.6782 36.9146 43.9452 33.551C49.2121 30.1874 53.6043 25.62 56.7593 20.2256C59.077 16.1963 60.6746 11.7558 63.2148 7.8702C65.755 3.98459 69.5723 0.531745 74.1814 0.056992C80.651 -0.599954 86.0942 4.54255 90.5631 9.29359C99.17 18.4365 107.404 29.9119 118.677 35.9068C129.789 41.8035 149.003 47.0301 149.045 62.8809Z" fill="#E8F0FD"/>
<path d="M11.4704 17.3435C11.3985 17.675 11.1986 17.9646 10.9142 18.1493C10.6297 18.334 10.2837 18.3981 9.95162 18.3289L8.14886 17.9406L7.76009 19.7421C7.67896 20.0649 7.47552 20.3449 7.19274 20.5205C6.90996 20.696 6.57003 20.7535 6.24475 20.683C5.91947 20.6125 5.63436 20.4193 5.44965 20.1424C5.26495 19.8655 5.195 19.5272 5.25484 19.1997L5.64383 17.3966L3.84279 17.0082C3.6783 16.9727 3.52245 16.9055 3.38408 16.8098C3.24571 16.714 3.12754 16.5919 3.03636 16.4505C2.94518 16.309 2.88277 16.1507 2.85266 15.9851C2.82255 15.8196 2.82546 15.6501 2.861 15.4856C2.89655 15.3211 2.9641 15.1655 3.05988 15.0271C3.15567 14.8887 3.2777 14.7693 3.41915 14.6781C3.5606 14.5869 3.7187 14.5252 3.88427 14.495C4.04984 14.4649 4.21976 14.4681 4.38425 14.5036L6.18508 14.8919L6.57579 13.0905C6.6478 12.7585 6.8487 12.4685 7.13436 12.2847C7.42002 12.1009 7.76707 12.0382 8.09904 12.1102C8.43101 12.1822 8.72079 12.384 8.90461 12.6696C9.08843 12.9553 9.15113 13.3025 9.07911 13.6345L8.69033 15.4343L10.4929 15.826C10.8228 15.8991 11.1107 16.0997 11.2937 16.3838C11.4768 16.6679 11.5402 17.0129 11.4704 17.3435Z" fill="#E8F0FD"/>
<path d="M100.141 119.215C100.07 119.547 99.87 119.837 99.5854 120.022C99.3007 120.207 98.9543 120.273 98.622 120.203L96.8192 119.81L96.4304 121.613C96.3586 121.945 96.1577 122.235 95.8721 122.419C95.5864 122.603 95.2394 122.667 94.9072 122.595C94.575 122.523 94.2849 122.323 94.1008 122.037C93.9166 121.752 93.8534 121.405 93.9252 121.072L94.3159 119.269L92.5131 118.881C92.1821 118.808 91.8938 118.605 91.7108 118.32C91.5278 118.034 91.4651 117.69 91.5367 117.358C91.6082 117.027 91.8081 116.737 92.0925 116.553C92.3769 116.368 92.7229 116.303 93.0546 116.373L94.8571 116.766L95.2461 114.963C95.2817 114.799 95.3492 114.643 95.445 114.505C95.5408 114.366 95.6628 114.249 95.8043 114.157C95.9457 114.066 96.1038 114.003 96.2694 113.973C96.435 113.943 96.6049 113.946 96.7694 113.981C96.9339 114.017 97.0897 114.084 97.2281 114.18C97.3665 114.275 97.4846 114.398 97.5758 114.539C97.667 114.68 97.7294 114.839 97.7595 115.004C97.7896 115.17 97.7867 115.339 97.7512 115.504L97.3607 117.307L99.1632 117.695C99.4936 117.768 99.7816 117.97 99.9647 118.255C100.148 118.539 100.211 118.884 100.141 119.215Z" fill="#E8F0FD"/>
<path d="M91.3067 15.0523V110.581H19.5156V15.0523C19.5189 13.4612 20.1536 11.9363 21.2803 10.8129C22.407 9.6895 23.9335 9.05964 25.5246 9.06104H85.2804C86.8732 9.05917 88.4017 9.68819 89.5313 10.8112C90.6609 11.9342 91.2993 13.4595 91.3067 15.0523Z" fill="white"/>
<g opacity="0.3">
<g opacity="0.3">
<g opacity="0.3">
<path opacity="0.3" d="M91.3138 52.2459V93.2384L76.4055 90.0854C75.2271 89.8273 74.1114 89.339 73.1224 88.6483C72.1335 87.9576 71.2908 87.0791 70.6428 86.0616C69.9949 85.0441 69.5545 83.907 69.3469 82.7187C69.1393 81.5304 69.1685 80.3132 69.4331 79.1363C69.9766 76.7972 71.4092 74.7611 73.4274 73.4598C73.8171 73.2045 74.2272 72.9821 74.6536 72.7943L67.804 61.8452C67.137 60.7648 66.6914 59.5631 66.4929 58.309C66.2944 57.0549 66.3469 55.7737 66.6477 54.5401C66.9237 53.3525 67.4389 52.2339 68.1618 51.252C68.8846 50.2701 69.8001 49.4458 70.8522 48.8295C72.2662 48.0012 73.8735 47.5592 75.5122 47.5498C76.22 47.5532 76.925 47.6371 77.6143 47.7979C78.7912 48.0668 79.9033 48.5652 80.8865 49.2657C81.8696 49.9663 82.7045 50.8553 83.343 51.8798L84.5166 53.8062C85.68 53.2879 86.9395 53.019 88.2132 53.0175C88.8364 53.0139 89.4584 53.0736 90.07 53.1937C90.4532 52.8593 90.857 52.5488 91.2789 52.2648C91.2964 52.263 91.2963 52.2459 91.3138 52.2459Z" fill="#CEDBF0"/>
</g>
</g>
</g>
<path d="M77.8266 59.8275C77.8304 64.2706 76.5166 68.6149 74.0513 72.3112C71.586 76.0076 68.0798 78.8895 63.9764 80.5932C59.873 82.2969 55.3564 82.7446 50.9981 81.8814C46.6397 81.0182 42.6353 78.8822 39.491 75.7431C36.3467 72.6039 34.204 68.6035 33.3336 64.2465C32.4633 59.8895 32.9046 55.3729 34.6016 51.2667C36.2986 47.1605 39.175 43.6495 42.8673 41.1781C46.5596 38.7068 50.9019 37.3853 55.345 37.3819C58.2953 37.3779 61.2173 37.9563 63.9443 39.0824C66.6713 40.2085 69.1495 41.86 71.2374 43.9445C73.3253 46.029 74.982 48.5057 76.1126 51.2308C77.2431 53.9559 77.8257 56.8772 77.8266 59.8275Z" fill="#E8F0FD"/>
<path d="M123.568 91.3737C123.568 91.9974 123.383 92.607 123.037 93.1256C122.69 93.6441 122.198 94.0485 121.622 94.2872C121.046 94.5259 120.411 94.5885 119.8 94.4668C119.188 94.3452 118.626 94.0439 118.185 93.6029C117.744 93.1619 117.444 92.5996 117.322 91.9879C117.201 91.3762 117.263 90.7421 117.502 90.1659C117.74 89.5897 118.145 89.0976 118.663 88.7511C119.182 88.4046 119.791 88.2207 120.415 88.2207C120.83 88.2193 121.24 88.2988 121.623 88.4568C122.006 88.6148 122.355 88.848 122.648 89.1411C122.941 89.4342 123.173 89.781 123.331 90.1642C123.489 90.5474 123.57 90.9592 123.568 91.3737Z" fill="white"/>
<path d="M107.593 55.7547L115.835 68.856C116.243 69.5037 116.508 70.231 116.611 70.9894C116.715 71.7478 116.655 72.5211 116.436 73.2545C116.22 73.9879 116.163 74.7572 116.268 75.5144C116.373 76.2716 116.638 76.9991 117.046 77.6461L119.628 81.752L98.9437 94.7643L96.2828 90.5352C95.8969 89.9225 95.3917 89.3936 94.7974 88.9801C94.203 88.5666 93.5313 88.2768 92.8227 88.1281L77.4747 84.9443C76.9774 84.832 76.5074 84.6228 76.0913 84.3284C75.6751 84.0341 75.3211 83.6599 75.0496 83.2284C74.7781 82.7969 74.5945 82.3161 74.5092 81.8136C74.4239 81.311 74.4387 80.7964 74.5526 80.2995C74.7855 79.2964 75.4025 78.425 76.2711 77.8719C76.703 77.5996 77.1846 77.415 77.6879 77.3296C78.1912 77.2442 78.7064 77.2595 79.2039 77.3741L84.4331 78.5648L72.2683 59.06C71.9755 58.6046 71.7751 58.0958 71.6789 57.563C71.5827 57.0302 71.5923 56.4839 71.7074 55.9549C71.8224 55.4258 72.0406 54.9249 72.3493 54.4802C72.6581 54.0354 73.0515 53.6557 73.5069 53.363C74.3976 52.8411 75.4562 52.6863 76.4593 52.9302C77.4624 53.174 78.3316 53.7975 78.8833 54.6701L84.8711 64.3566C84.3108 63.4657 84.1273 62.3889 84.3611 61.3627C84.5948 60.3365 85.2267 59.4441 86.1176 58.8838C87.0085 58.3234 88.0855 58.1402 89.1117 58.3739C90.1379 58.6077 91.0291 59.24 91.5894 60.1309L92.8719 62.1702C92.3115 61.2793 92.1281 60.2025 92.3618 59.1763C92.5956 58.1501 93.2273 57.2577 94.1182 56.6974C95.0091 56.137 96.0861 55.9538 97.1123 56.1875C98.1385 56.4213 99.0298 57.0536 99.5902 57.9445L100.874 59.9838C100.314 59.0929 100.131 58.0161 100.364 56.9899C100.598 55.9637 101.23 55.0713 102.121 54.511C103.012 53.9506 104.089 53.7674 105.115 54.0011C106.141 54.2349 107.032 54.8672 107.593 55.7581V55.7547Z" fill="white"/>
<path d="M119.632 81.7464L98.9431 94.7621L98.8203 94.5876L115.568 84.0389L112.993 79.9398C112.585 79.2922 112.319 78.5662 112.213 77.8081C112.108 77.05 112.164 76.2775 112.38 75.543C112.597 74.8097 112.657 74.0377 112.554 73.2796C112.452 72.5216 112.189 71.7952 111.784 71.1463L103.533 58.0416C102.969 57.1579 102.083 56.5292 101.063 56.2897C100.92 56.2511 100.773 56.2275 100.625 56.2196C100.94 55.5129 101.458 54.9167 102.114 54.5054C103.007 53.9471 104.085 53.7643 105.112 53.9972C106.139 54.2302 107.032 54.8602 107.597 55.7491L115.831 68.8504C116.24 69.4977 116.506 70.2264 116.609 70.9855C116.711 71.7446 116.649 72.5176 116.427 73.2506C116.215 73.9856 116.161 74.7565 116.267 75.5139C116.372 76.2714 116.636 76.9981 117.04 77.6473L119.632 81.7464Z" fill="#E8F0FD"/>
<path d="M105.445 110.588H142.371L134.069 98.2071L123.363 82.0743C123.044 81.5666 122.537 81.2072 121.952 81.0735C121.368 80.9398 120.755 81.0441 120.247 81.3626L98.3167 95.1585C98.066 95.3172 97.8489 95.5232 97.678 95.7658C97.507 96.0084 97.3857 96.282 97.3206 96.5716C97.2556 96.8611 97.2481 97.1602 97.2988 97.4526C97.3495 97.7451 97.4572 98.0248 97.616 98.2755L105.445 110.588Z" fill="white"/>
<path d="M142.372 110.582H136.258L129.863 101.051L119.159 84.9163C118.836 84.4134 118.329 84.0579 117.746 83.924C117.164 83.7901 116.552 83.8898 116.041 84.2012L97.6992 95.7456C97.8534 95.5012 98.0636 95.2973 98.3123 95.1503L120.246 81.363C120.497 81.2042 120.778 81.0964 121.071 81.0465C121.364 80.9966 121.664 81.0055 121.954 81.0721C122.244 81.1387 122.518 81.262 122.76 81.4348C123.002 81.6077 123.207 81.8255 123.364 82.0781L134.068 98.216L142.372 110.582Z" fill="#E8F0FD"/>
<path d="M137.369 14.9671L139.166 14.5548L139.578 16.3528C139.653 16.6841 139.858 16.9711 140.145 17.1518C140.433 17.3325 140.781 17.3918 141.113 17.316C141.444 17.2403 141.731 17.0358 141.912 16.748C142.093 16.4602 142.152 16.1127 142.076 15.7814L141.664 13.9851L143.462 13.5745C143.793 13.4985 144.08 13.2945 144.261 13.0065C144.442 12.7186 144.5 12.3695 144.424 12.0382C144.348 11.7069 144.144 11.4198 143.856 11.2393C143.568 11.0587 143.22 11.0008 142.889 11.0767L141.091 11.4856L140.68 9.691C140.604 9.35972 140.4 9.07104 140.112 8.89035C139.824 8.70965 139.476 8.65209 139.145 8.72782C138.814 8.80355 138.526 9.0063 138.346 9.29409C138.165 9.58189 138.106 9.93113 138.181 10.2624L138.593 12.057L136.796 12.4693C136.632 12.5069 136.477 12.5754 136.34 12.6729C136.202 12.7704 136.086 12.8947 135.997 13.0373C135.907 13.1799 135.847 13.3384 135.819 13.5044C135.791 13.6703 135.796 13.8399 135.833 14.0039C135.871 14.168 135.94 14.3236 136.038 14.4607C136.135 14.5979 136.259 14.7152 136.402 14.8046C136.544 14.894 136.703 14.9545 136.869 14.9825C137.035 15.0105 137.205 15.0047 137.369 14.9671Z" fill="#427EEB"/>
<path d="M156.14 83.6833C156.063 83.3542 155.859 83.0692 155.572 82.8895C155.286 82.7097 154.94 82.65 154.61 82.7235L152.813 83.1358L152.401 81.3378C152.325 81.0067 152.121 80.7192 151.833 80.5388C151.545 80.3585 151.198 80.3003 150.867 80.3763C150.536 80.4523 150.248 80.6565 150.068 80.9443C149.888 81.2321 149.829 81.5798 149.905 81.9109L150.315 83.7072L148.519 84.1178C148.188 84.1935 147.9 84.398 147.719 84.6858C147.539 84.9736 147.48 85.3211 147.556 85.6524C147.631 85.9837 147.836 86.2724 148.123 86.4531C148.411 86.6338 148.759 86.693 149.09 86.6173L150.888 86.205L151.299 88.003C151.375 88.3343 151.579 88.6213 151.867 88.802C152.155 88.9827 152.503 89.042 152.834 88.9662C153.165 88.8905 153.453 88.686 153.634 88.3982C153.814 88.1104 153.873 87.7629 153.798 87.4316L153.386 85.6336L155.183 85.223C155.514 85.1451 155.8 84.9381 155.979 84.6499C156.158 84.3616 156.216 84.014 156.14 83.6833Z" fill="#427EEB"/>
<path d="M5.46305 108.814H2.16592C1.7013 108.814 1.25584 108.999 0.927302 109.328C0.598765 109.656 0.414062 110.102 0.414062 110.566C0.414062 111.031 0.598765 111.476 0.927302 111.805C1.25584 112.133 1.7013 112.318 2.16592 112.318H5.46305C5.92768 112.318 6.37313 112.133 6.70167 111.805C7.03021 111.476 7.21491 111.031 7.21491 110.566C7.21491 110.102 7.03021 109.656 6.70167 109.328C6.37313 108.999 5.92768 108.814 5.46305 108.814Z" fill="#427EEB"/>
<path d="M149.048 108.926H143.364L124.845 81.1493C124.373 80.4007 123.666 79.8286 122.835 79.524C122.004 79.2195 121.096 79.1997 120.251 79.4659L118.522 76.7183C118.248 76.2829 118.069 75.7945 117.998 75.2847C117.926 74.7748 117.964 74.2561 118.109 73.762C118.399 72.7899 118.478 71.7666 118.341 70.7613C118.203 69.7561 117.853 68.7919 117.312 67.9334L109.078 54.8304C108.682 54.1934 108.163 53.6423 107.551 53.2085C106.939 52.7748 106.247 52.4681 105.515 52.3052C105.145 52.9856 104.641 53.5831 104.033 54.0639C103.426 54.5447 102.728 54.8982 101.98 55.1024C101.233 55.3066 100.452 55.358 99.6849 55.2529C98.9174 55.1479 98.179 54.8892 97.5141 54.4916C96.7809 54.3182 96.0204 54.2926 95.2775 54.4181C94.5346 54.5435 93.8244 54.8175 93.1888 55.2221C93.1082 55.2712 93.0522 55.3441 92.9752 55.3966V15.0902C92.9728 13.0345 92.1551 11.0625 90.7015 9.60885C89.2479 8.15525 87.2771 7.33923 85.2214 7.33691H25.4393C23.3836 7.33923 21.4128 8.15525 19.9592 9.60885C18.5056 11.0625 17.6878 13.0345 17.6855 15.0902V108.832H12.8065C12.3419 108.832 11.8965 109.016 11.5679 109.345C11.2394 109.673 11.0547 110.119 11.0547 110.584C11.0547 111.048 11.2394 111.494 11.5679 111.822C11.8965 112.151 12.3419 112.335 12.8065 112.335L149.057 112.441C149.522 112.441 149.968 112.258 150.296 111.93C150.625 111.601 150.809 111.154 150.809 110.69C150.809 110.225 150.625 109.78 150.296 109.451C149.968 109.122 149.522 108.938 149.057 108.938L149.048 108.926ZM92.9664 90.0061C93.7206 90.2787 94.3636 90.7929 94.7952 91.4688L96.6014 94.3395C96.1128 94.8523 95.771 95.4884 95.6117 96.1786C95.4937 96.6948 95.4794 97.2291 95.5696 97.7509C95.6598 98.2726 95.8526 98.7704 96.1371 99.217L102.292 108.89H92.9698L92.9664 90.0061ZM121.902 83.0448L132.614 99.1845L139.086 108.839H106.415L99.103 97.3437C99.0661 97.2868 99.0411 97.2224 99.0297 97.1555C99.0182 97.0886 99.0206 97.0196 99.0365 96.9536C99.0502 96.8891 99.0768 96.8279 99.1148 96.774C99.1527 96.7201 99.2011 96.6752 99.2572 96.6405L99.9458 96.206L120.565 83.2416L121.182 82.8532C121.302 82.7822 121.445 82.7623 121.58 82.7968C121.715 82.8313 121.831 82.9181 121.902 83.038V83.0448ZM95.0459 58.1784C95.5449 57.8688 96.1459 57.7683 96.7184 57.8995C97.2908 58.0308 97.7885 58.3837 98.1028 58.8798L101.523 64.3099C101.642 64.5097 101.801 64.6837 101.989 64.8214C102.177 64.9592 102.391 65.0581 102.617 65.1123C102.844 65.1664 103.079 65.1741 103.309 65.1362C103.539 65.0983 103.759 65.0156 103.957 64.8916C104.154 64.7676 104.324 64.605 104.458 64.4143C104.592 64.2235 104.687 64.009 104.736 63.7813C104.786 63.5535 104.789 63.3175 104.747 63.0884C104.704 62.8592 104.616 62.6416 104.488 62.4468L102.351 59.0509C102.196 58.8042 102.091 58.5289 102.043 58.2417C101.994 57.9545 102.003 57.6617 102.068 57.3777C102.133 57.0938 102.253 56.8247 102.422 56.5874C102.591 56.35 102.805 56.1483 103.052 55.9937C103.55 55.6837 104.152 55.5836 104.724 55.7148C105.296 55.8461 105.793 56.1988 106.107 56.6951L114.341 69.7981C114.616 70.2346 114.795 70.7256 114.864 71.2369C114.934 71.7482 114.894 72.2686 114.745 72.7629C114.459 73.7346 114.383 74.7552 114.522 75.7586C114.66 76.7619 115.011 77.7254 115.55 78.5831L117.202 81.2109L99.4832 92.355L97.756 89.6126C97.2425 88.8019 96.572 88.1006 95.7841 87.5528C94.9961 87.0049 94.1066 86.621 93.1678 86.422L77.8496 83.2433C77.3011 83.1187 76.8245 82.7831 76.5243 82.3075C76.2242 81.8319 76.125 81.2566 76.2485 80.7079C76.3759 80.1535 76.7146 79.6698 77.1926 79.3615C77.4301 79.2114 77.6951 79.1101 77.9721 79.0638C78.2492 79.0175 78.5328 79.0283 78.8061 79.0929L84.0337 80.2819C84.3699 80.3576 84.721 80.3313 85.043 80.2083C85.3651 80.0854 85.6436 79.8713 85.8439 79.5907C86.0442 79.3102 86.1572 78.9772 86.169 78.6327C86.1807 78.2882 86.0905 77.9476 85.9098 77.6541L73.7398 58.1442C73.5631 57.8595 73.4451 57.541 73.3927 57.2101C73.3404 56.8792 73.3547 56.5414 73.4349 56.2161C73.4948 55.9417 73.6096 55.6819 73.7725 55.4531C73.9354 55.2243 74.143 55.0316 74.3826 54.8851C74.8754 54.5956 75.4608 54.5078 76.0171 54.6388C76.297 54.7005 76.5619 54.8158 76.7961 54.9809C77.0304 55.146 77.2296 55.3574 77.3819 55.6002L87.6443 72.1128C87.7643 72.3126 87.9227 72.4866 88.1107 72.6244C88.2987 72.7621 88.5123 72.8611 88.739 72.9152C88.9657 72.9694 89.2011 72.9771 89.431 72.9392C89.661 72.9013 89.881 72.8185 90.0784 72.6945C90.2757 72.5705 90.4462 72.408 90.58 72.2172C90.7139 72.0264 90.8085 71.8102 90.858 71.5825C90.9076 71.3548 90.9111 71.1205 90.8685 70.8913C90.826 70.6622 90.7382 70.4428 90.6102 70.2481L86.3777 63.5195C86.3702 63.4943 86.3608 63.4697 86.3497 63.4459L86.3234 63.4015C86.0228 62.9046 85.9292 62.3089 86.0629 61.7437C86.1966 61.1785 86.5467 60.6881 87.038 60.3785C87.5369 60.0679 88.1383 59.9683 88.711 60.0996C89.2837 60.2309 89.7813 60.5831 90.095 61.0799C90.2054 61.2551 94.14 67.5115 94.0296 67.3346C94.2768 67.7281 94.6702 68.0078 95.1233 68.1113C95.5763 68.2148 96.052 68.1343 96.4455 67.8872C96.839 67.64 97.1183 67.247 97.2218 66.794C97.3253 66.3409 97.2446 65.8651 96.9975 65.4715L94.3417 61.251C94.1848 61.0032 94.0785 60.7274 94.029 60.4384C93.9795 60.1493 93.9879 59.8534 94.0534 59.5676C94.1189 59.2817 94.2402 59.0107 94.4105 58.772C94.5809 58.5334 94.7968 58.3315 95.0459 58.1767V58.1784ZM21.1805 15.0834C21.1814 13.9565 21.6295 12.8761 22.4264 12.0792C23.2232 11.2824 24.3036 10.833 25.4305 10.8321H85.218C86.3449 10.833 87.4253 11.2824 88.2221 12.0792C89.019 12.8761 89.4669 13.9565 89.4678 15.0834V19.954H21.1858L21.1805 15.0834ZM21.1805 23.4578H89.4627V56.6609C88.3669 56.415 87.2228 56.4987 86.1741 56.9004C85.1254 57.3022 84.2187 58.0041 83.5677 58.9192L80.3617 53.732C79.566 52.4746 78.3128 51.5765 76.8667 51.2257C75.4206 50.875 73.8949 51.0986 72.6115 51.8519C71.9545 52.263 71.3854 52.8004 70.9371 53.4326C70.4888 54.0649 70.17 54.7809 69.9994 55.5369C69.8287 56.293 69.8095 57.0744 69.9427 57.8379C70.0759 58.6015 70.359 59.3315 70.7756 59.985L80.7156 75.9262L79.5875 75.6713C78.86 75.4933 78.1042 75.4615 77.3646 75.5789C76.6249 75.6963 75.9159 75.9594 75.2793 76.3539C74.6427 76.7484 74.0912 77.2664 73.6568 77.8765C73.2225 78.4867 72.9141 79.1766 72.7497 79.9072C72.5853 80.6379 72.5682 81.3956 72.6994 82.133C72.8306 82.8704 73.1074 83.5739 73.5138 84.203C73.9201 84.8322 74.4478 85.3729 75.0659 85.7958C75.684 86.2187 76.3801 86.5142 77.1137 86.6649L89.4627 89.2277V96.218H21.1805V23.4578ZM21.1805 99.7149H89.4627V108.837L21.1805 108.825V99.7149Z" fill="#427EEB"/>
<path d="M159.837 108.935H157.385C156.92 108.935 156.475 109.119 156.146 109.448C155.818 109.776 155.633 110.222 155.633 110.686C155.633 111.151 155.818 111.597 156.146 111.925C156.475 112.254 156.92 112.438 157.385 112.438H159.837C160.302 112.438 160.748 112.254 161.076 111.925C161.405 111.597 161.589 111.151 161.589 110.686C161.589 110.222 161.405 109.776 161.076 109.448C160.748 109.119 160.302 108.935 159.837 108.935Z" fill="#427EEB"/>
<path d="M55.3244 107.196C55.9018 107.195 56.4662 107.022 56.9462 106.701C57.4262 106.38 57.8002 105.924 58.021 105.391C58.2419 104.857 58.2995 104.27 58.1868 103.704C58.074 103.138 57.7959 102.619 57.3876 102.21C56.9793 101.802 56.4591 101.522 55.8928 101.41C55.3265 101.297 54.7395 101.355 54.206 101.576C53.6724 101.796 53.2163 102.172 52.8953 102.652C52.5742 103.132 52.4027 103.696 52.4023 104.274C52.4017 104.657 52.4767 105.038 52.6233 105.392C52.7699 105.747 52.9852 106.069 53.2567 106.34C53.5282 106.612 53.8505 106.827 54.2053 106.973C54.5602 107.12 54.9405 107.196 55.3244 107.196Z" fill="#427EEB"/>
<path d="M65.1204 13.6411H54.4901C54.0255 13.6411 53.5798 13.8258 53.2513 14.1544C52.9228 14.4829 52.7383 14.9283 52.7383 15.393C52.7383 15.8576 52.9228 16.3031 53.2513 16.6316C53.5798 16.9601 54.0255 17.1448 54.4901 17.1448H65.1204C65.585 17.1448 66.0307 16.9601 66.3592 16.6316C66.6878 16.3031 66.8722 15.8576 66.8722 15.393C66.8722 14.9283 66.6878 14.4829 66.3592 14.1544C66.0307 13.8258 65.585 13.6411 65.1204 13.6411Z" fill="#427EEB"/>
<path d="M47.6274 13.6411H45.5253C45.0607 13.6411 44.615 13.8258 44.2865 14.1544C43.9579 14.4829 43.7734 14.9283 43.7734 15.393C43.7734 15.8576 43.9579 16.3031 44.2865 16.6316C44.615 16.9601 45.0607 17.1448 45.5253 17.1448H47.6274C48.0921 17.1448 48.5377 16.9601 48.8663 16.6316C49.1948 16.3031 49.3793 15.8576 49.3793 15.393C49.3793 14.9283 49.1948 14.4829 48.8663 14.1544C48.5377 13.8258 48.0921 13.6411 47.6274 13.6411Z" fill="#427EEB"/>
<path d="M65.2476 56.8081L52.9144 48.1018C52.361 47.711 51.7108 47.4792 51.0349 47.4329C50.359 47.3866 49.6833 47.5284 49.0818 47.8401C48.4803 48.1518 47.976 48.623 47.624 49.2019C47.272 49.7808 47.0858 50.4439 47.0859 51.1214V68.5339C47.0858 69.2114 47.272 69.8762 47.624 70.4551C47.976 71.034 48.4803 71.5052 49.0818 71.8169C49.6833 72.1286 50.359 72.2686 51.0349 72.2223C51.7108 72.1761 52.361 71.9442 52.9144 71.5534L65.2476 62.8472C65.7309 62.5058 66.125 62.0536 66.3972 61.5282C66.6694 61.0027 66.8114 60.4193 66.8114 59.8276C66.8114 59.2359 66.6694 58.6525 66.3972 58.1271C66.125 57.6017 65.7309 57.1494 65.2476 56.8081Z" fill="#427EEB"/>
<path d="M117.273 91.3727C117.273 91.9964 117.458 92.606 117.805 93.1246C118.151 93.6431 118.644 94.0475 119.22 94.2862C119.796 94.5249 120.43 94.5875 121.042 94.4658C121.654 94.3442 122.216 94.0429 122.657 93.6019C123.098 93.1609 123.398 92.5986 123.52 91.9869C123.641 91.3752 123.579 90.7411 123.34 90.1649C123.101 89.5887 122.697 89.0966 122.179 88.7501C121.66 88.4036 121.051 88.2197 120.427 88.2197C119.591 88.2197 118.788 88.5505 118.197 89.1418C117.606 89.7332 117.273 90.5364 117.273 91.3727Z" fill="#427EEB"/>
</svg>
