<svg width="160" height="125" viewBox="0 0 160 125" fill="none" xmlns="http://www.w3.org/2000/svg">
<path d="M146.776 63.3843C146.788 71.8412 139.546 78.7726 131.641 81.6292C123.737 84.4858 115.146 84.2912 106.794 85.0679C98.4409 85.8446 88.6374 93.596 82.8963 99.7506C79.0962 103.813 77.0858 109.191 74.382 114.058C71.6783 118.925 67.7601 123.679 62.3196 124.774C56.3579 125.968 50.285 122.237 46.7872 117.233C43.2894 112.228 41.7481 106.142 40.0956 100.235C38.4432 94.3294 37.4301 82.6282 33.2859 78.1504C29.6787 74.2685 24.7908 71.9245 20.0801 69.5266C15.3695 67.1287 10.5928 64.4391 7.49466 60.1437C4.39651 55.8483 3.51556 49.4816 6.79963 45.3357C10.9021 40.1784 18.6553 40.8302 25.1956 40.262C31.366 39.6737 37.3082 37.6272 42.5323 34.2913C47.7564 30.9554 52.1128 26.4256 55.2423 21.0754C57.5412 17.0789 59.1242 12.6739 61.6454 8.81984C64.1667 4.96583 67.9512 1.54108 72.5228 1.07019C78.9398 0.418588 84.3385 5.52028 88.7712 10.2344C97.308 19.3012 105.475 30.6824 116.655 36.6302C127.676 42.4773 146.734 47.6625 146.776 63.3843Z" fill="#E8F0FD"/>
<path d="M157.738 3.3137C157.813 3.64197 157.755 3.98663 157.577 4.27244C157.399 4.55825 157.115 4.76188 156.787 4.8392L155.005 5.24772L155.413 7.03051C155.482 7.35662 155.42 7.69685 155.241 7.97779C155.061 8.25873 154.779 8.45769 154.454 8.53203C154.129 8.60638 153.788 8.55004 153.504 8.37507C153.22 8.20011 153.016 7.92059 152.937 7.59684L152.529 5.81406L150.746 6.22237C150.417 6.29771 150.073 6.23964 149.787 6.06074C149.502 5.88184 149.299 5.59686 149.224 5.26851C149.148 4.94016 149.206 4.59523 149.385 4.30977C149.564 4.02431 149.849 3.82175 150.178 3.74641L151.96 3.33809L151.552 1.55531C151.477 1.22673 151.535 0.881555 151.714 0.595935C151.893 0.310315 152.178 0.107494 152.507 0.0321468C152.835 -0.0432008 153.18 0.0151365 153.466 0.194199C153.752 0.373261 153.954 0.658486 154.03 0.987066L154.438 2.76985L156.221 2.36154C156.548 2.28863 156.891 2.34766 157.175 2.52592C157.459 2.70419 157.661 2.98727 157.738 3.3137V3.3137Z" fill="#E8F0FD"/>
<path d="M18.4069 17.3155C18.3356 17.6443 18.1373 17.9315 17.8551 18.1148C17.573 18.298 17.2298 18.3624 16.9004 18.2938L15.1124 17.908L14.7267 19.6961C14.6453 20.0151 14.4435 20.29 14.1635 20.4633C13.8836 20.6365 13.5473 20.6944 13.2256 20.6249C12.9038 20.5553 12.6215 20.3637 12.438 20.0904C12.2546 19.817 12.1843 19.4833 12.2419 19.1592L12.6277 17.3711L10.8396 16.9836C10.5104 16.9124 10.2229 16.7134 10.0404 16.4302C9.85793 16.147 9.79539 15.8028 9.86659 15.4736C9.93779 15.1443 10.1369 14.8568 10.42 14.6743C10.7032 14.4919 11.0473 14.4294 11.3766 14.5006L13.1646 14.8862L13.5503 13.0984C13.6317 12.7794 13.8336 12.5042 14.1135 12.331C14.3935 12.1577 14.7297 12.0998 15.0515 12.1693C15.3732 12.2389 15.6555 12.4305 15.839 12.7038C16.0224 12.9772 16.0927 13.3111 16.0351 13.6352L15.6493 15.4233L17.4373 15.8089C17.7645 15.8822 18.0497 16.0814 18.2312 16.3634C18.4127 16.6453 18.4758 16.9874 18.4069 17.3155V17.3155Z" fill="#E8F0FD"/>
<path d="M98.9831 113.148C98.9126 113.477 98.7144 113.765 98.432 113.948C98.1496 114.132 97.806 114.195 97.4766 114.126L95.6886 113.74L95.3029 115.528C95.2215 115.847 95.0197 116.122 94.7397 116.296C94.4598 116.469 94.1236 116.527 93.8018 116.457C93.48 116.388 93.1976 116.196 93.0142 115.923C92.8308 115.649 92.7605 115.315 92.8181 114.991L93.2055 113.203L91.4175 112.818C91.0985 112.736 90.8235 112.534 90.6503 112.254C90.4771 111.974 90.4191 111.638 90.4887 111.316C90.5582 110.995 90.7498 110.712 91.0232 110.529C91.2965 110.345 91.6304 110.275 91.9545 110.333L93.7425 110.719L94.1282 108.932C94.2096 108.613 94.4115 108.338 94.6915 108.165C94.9714 107.992 95.3076 107.934 95.6294 108.003C95.9512 108.073 96.2334 108.264 96.4169 108.538C96.6003 108.811 96.6707 109.145 96.6131 109.469L96.2256 111.255L98.0135 111.643C98.3411 111.715 98.6268 111.914 98.8084 112.195C98.9901 112.477 99.0528 112.82 98.9831 113.148V113.148Z" fill="#E8F0FD"/>
<path d="M104.209 81.5092V104.567H93.9226V81.5092C93.9276 79.8937 93.6135 78.2932 92.9981 76.7995C92.3827 75.3058 91.4783 73.9482 90.3368 72.8051C89.1952 71.6619 87.8391 70.7557 86.3462 70.1382C84.8534 69.5207 83.2532 69.2043 81.6377 69.207H91.907C93.5228 69.2064 95.1227 69.524 96.6156 70.142C98.1085 70.76 99.465 71.6662 100.608 72.8087C101.75 73.9512 102.656 75.3077 103.274 76.8006C103.892 78.2935 104.21 79.8935 104.209 81.5092V81.5092Z" fill="#E8F0FD"/>
<path d="M99.0127 20.9154C99.0127 11.3881 110.643 3.67486 125.013 3.67486C129.81 3.6385 134.566 4.56188 139.002 6.39072C146.216 9.43848 151.012 14.8025 151.012 20.9154C151.012 29.6277 141.238 36.8406 128.559 37.9735C127.38 38.0905 126.197 38.1485 125.013 38.1472C123.438 38.148 121.865 38.0535 120.302 37.864C119.959 37.8259 119.612 37.8741 119.292 38.0042C118.973 38.1344 118.691 38.3425 118.472 38.6094C115.876 41.538 112.648 43.8392 109.033 45.3392C108.705 45.48 108.41 45.0351 108.635 44.7432C110.183 42.763 111.318 40.4922 111.972 38.0655C112.124 37.5377 112.085 36.9733 111.863 36.4711C111.64 35.9689 111.248 35.5607 110.755 35.3183C103.678 32.2393 99.0127 26.9379 99.0127 20.9154Z" fill="white"/>
<path d="M130.43 20.86L134.452 16.836C135.093 16.2114 135.493 15.3823 135.583 14.4935C135.673 13.6047 135.447 12.7127 134.945 11.9729C134.633 11.5353 134.229 11.1707 133.761 10.9053C133.293 10.6398 132.772 10.4796 132.236 10.436C131.699 10.3924 131.159 10.4664 130.654 10.6527C130.149 10.839 129.691 11.1332 129.312 11.5147L125.187 15.6276L121.07 11.5207C120.691 11.1379 120.233 10.8425 119.728 10.655C119.223 10.4676 118.683 10.3926 118.145 10.4357C117.608 10.4788 117.087 10.6389 116.618 10.9044C116.149 11.1699 115.745 11.5348 115.432 11.9729C114.93 12.7123 114.704 13.6042 114.794 14.4929C114.884 15.3817 115.284 16.2107 115.925 16.8349L119.944 20.8589L115.935 24.8571C115.575 25.1912 115.287 25.593 115.085 26.0392C114.882 26.4855 114.771 26.9671 114.757 27.4566C114.743 27.946 114.827 28.4334 115.004 28.8903C115.18 29.3473 115.446 29.7647 115.785 30.1184C116.125 30.4721 116.531 30.7553 116.982 30.9512C117.432 31.147 117.916 31.2518 118.407 31.2595C118.898 31.2671 119.386 31.1774 119.842 30.9957C120.298 30.8139 120.713 30.5437 121.064 30.2007L125.187 26.0878L129.312 30.2007C129.674 30.5572 130.104 30.8362 130.578 31.0205C131.051 31.2049 131.558 31.2907 132.066 31.2728C132.574 31.2548 133.072 31.1332 133.532 30.9159C133.991 30.6986 134.401 30.3899 134.736 30.0089C135.346 29.271 135.656 28.3308 135.601 27.3756C135.546 26.4205 135.132 25.5211 134.441 24.8571L130.43 20.86ZM132.945 28.4586C132.823 28.5946 132.675 28.7045 132.51 28.782C132.345 28.8595 132.165 28.9028 131.983 28.9094C131.8 28.916 131.618 28.886 131.448 28.8207C131.277 28.7554 131.122 28.6562 130.991 28.5294L126.471 24.0215C126.129 23.6833 125.668 23.4935 125.187 23.4935C124.706 23.4935 124.244 23.6833 123.903 24.0215L119.385 28.526C119.254 28.6531 119.099 28.7525 118.929 28.8181C118.758 28.8837 118.576 28.9142 118.394 28.9077C118.211 28.9012 118.032 28.8575 117.867 28.78C117.702 28.7024 117.554 28.5925 117.433 28.4563C117.219 28.1696 117.12 27.8141 117.153 27.4586C117.187 27.1031 117.351 26.7725 117.614 26.5305L122.017 22.1395C122.357 21.7998 122.548 21.3394 122.548 20.8594C122.548 20.3795 122.357 19.9194 122.017 19.5797L117.605 15.1673C117.361 14.9402 117.204 14.6363 117.159 14.3068C117.114 13.9774 117.184 13.6425 117.358 13.3588C117.468 13.1995 117.613 13.0665 117.782 12.9696C117.95 12.8726 118.138 12.8142 118.331 12.7982C118.525 12.7822 118.72 12.8093 118.902 12.8774C119.084 12.9454 119.249 13.0527 119.384 13.1918L123.901 17.6966C124.247 18.0269 124.707 18.2112 125.186 18.2112C125.665 18.2112 126.126 18.0269 126.472 17.6966L130.995 13.1871C131.13 13.05 131.293 12.9442 131.472 12.8771C131.652 12.81 131.845 12.7834 132.037 12.7991C132.231 12.8143 132.42 12.8722 132.59 12.969C132.759 13.0658 132.905 13.199 133.017 13.3588C133.191 13.6425 133.261 13.9774 133.216 14.3068C133.171 14.6363 133.014 14.9402 132.77 15.1673L128.354 19.5808C128.016 19.9209 127.825 20.3806 127.825 20.86C127.825 21.3394 128.016 21.7994 128.354 22.1395L132.758 26.5305C133.023 26.7721 133.188 27.1029 133.222 27.4589C133.257 27.8149 133.158 28.1711 132.945 28.4586Z" fill="#427EEB"/>
<path d="M151.019 20.9092C151.019 29.6338 141.233 36.8447 128.552 37.9741C127.374 38.0935 126.191 38.1482 125.007 38.1377C123.965 38.1377 122.922 38.1012 121.913 38.0108C122.047 38.0073 122.18 37.9949 122.312 37.9741C134.997 36.8447 144.778 29.6338 144.778 20.9092C144.778 14.8102 139.968 9.44095 132.762 6.39667C129.286 4.95587 125.6 4.0823 121.847 3.80935C122.877 3.71899 123.942 3.68251 125.007 3.68251C129.807 3.64929 134.565 4.57196 139.004 6.39667C146.213 9.43748 151.019 14.8102 151.019 20.9092Z" fill="#E8F0FD"/>
<path d="M121.913 38.0075C120.981 38.0979 120.033 38.1344 119.051 38.1344C119.422 37.9016 119.863 37.805 120.298 37.8614C120.83 37.9153 121.365 37.9711 121.913 38.0075Z" fill="#E8F0FD"/>
<path d="M123.889 104.565V81.4997C123.891 79.884 123.574 78.2838 122.956 76.7907C122.339 75.2976 121.433 73.9411 120.29 72.7986C119.148 71.656 117.791 70.7499 116.298 70.1323C114.805 69.5147 113.205 69.1977 111.589 69.1993H46.3679C44.2803 69.1935 42.2266 69.7273 40.4062 70.7492C38.4849 71.8106 36.8833 73.368 35.7685 75.2588C34.6536 77.1496 34.0662 79.3047 34.0674 81.4997V104.565H123.889Z" fill="white"/>
<path d="M87.8744 61.3867V69.1451L79.5182 75.2649L71.1777 69.1451V61.3867C73.7113 62.4373 76.428 62.9748 79.1707 62.968H79.9005C82.6367 62.9721 85.3468 62.4347 87.8744 61.3867V61.3867Z" fill="white"/>
<path d="M87.8744 61.3867V69.1451L79.5182 75.2649L71.1777 69.1451V61.3867C73.7113 62.4373 76.428 62.9748 79.1707 62.968H79.9005C82.6367 62.9721 85.3468 62.4347 87.8744 61.3867V61.3867Z" fill="white"/>
<path d="M71.1479 62.3594L61.751 69.1692C62.1296 71.8932 63.074 74.5078 64.5236 76.845C65.9732 79.1822 67.8959 81.1901 70.1679 82.7398C70.6161 83.0529 71.1244 83.2699 71.6607 83.3765C72.1969 83.4831 72.7495 83.4773 73.2834 83.3593C73.8173 83.2414 74.3209 83.014 74.7624 82.6914C75.2039 82.3688 75.5735 81.9582 75.8481 81.4853L79.5232 75.2682C77.2937 73.8312 75.3944 71.9376 73.9506 69.7124C72.5069 67.4872 71.5517 64.981 71.1479 62.3594V62.3594Z" fill="white"/>
<path d="M79.5218 75.2615L75.8451 81.4803C75.5724 81.9526 75.2048 82.3633 74.7654 82.6864C74.3261 83.0095 73.8245 83.238 73.2924 83.3575C72.7603 83.477 72.2092 83.485 71.6739 83.3808C71.1386 83.2767 70.6307 83.0627 70.1822 82.7524C70.3569 82.5649 70.5102 82.3586 70.6392 82.1372L74.2882 75.9165C70.6195 73.495 67.8801 69.9013 66.5176 65.722L71.1483 62.3633C71.5531 64.9829 72.5087 67.4868 73.9521 69.7101C75.3954 71.9334 77.2938 73.8255 79.5218 75.2615V75.2615Z" fill="#E8F0FD"/>
<path d="M87.8977 62.3594L97.293 69.1692C96.9147 71.8931 95.9705 74.5076 94.5212 76.8448C93.0719 79.182 91.1496 81.19 88.8777 82.7398C88.4296 83.0529 87.9212 83.2699 87.385 83.3765C86.8487 83.4831 86.2962 83.4773 85.7623 83.3593C85.2284 83.2414 84.7247 83.014 84.2833 82.6914C83.8418 82.3688 83.4721 81.9582 83.1975 81.4853L79.5225 75.2682C81.7514 73.8306 83.6504 71.9368 85.094 69.7117C86.5377 67.4867 87.4932 64.9807 87.8977 62.3594V62.3594Z" fill="white"/>
<path d="M97.2869 69.1799C96.912 71.9012 95.9702 74.5137 94.5224 76.8483C93.0747 79.1829 91.1531 81.1876 88.882 82.7331C88.4392 83.0438 87.9371 83.2603 87.4071 83.3688C86.8771 83.4772 86.3304 83.4755 85.801 83.3637C85.2717 83.2519 84.7711 83.0324 84.3302 82.7189C83.8893 82.4053 83.5176 82.0045 83.2383 81.5412C83.7479 81.4408 84.2294 81.2303 84.6492 80.9244C86.9204 79.3726 88.8428 77.3639 90.2936 75.0269C91.7445 72.6899 92.6917 70.0758 93.0749 67.3519L87.6883 63.4561C87.7682 63.1086 87.829 62.7421 87.8881 62.3633L97.2869 69.1799Z" fill="#E8F0FD"/>
<path d="M99.1344 43.366C99.1344 48.567 97.0682 53.555 93.3905 57.2327C89.7128 60.9104 84.7248 62.9766 79.5237 62.9766C74.3227 62.9766 69.3346 60.9104 65.6569 57.2327C61.9792 53.555 59.9131 48.567 59.9131 43.366C59.9131 32.4955 68.6741 19.7344 79.5237 19.7344C90.3455 19.7274 99.1344 32.4955 99.1344 43.366Z" fill="white"/>
<path d="M99.1365 43.3644C99.1384 45.9416 98.6324 48.4941 97.6476 50.8758C96.6628 53.2575 95.2185 55.4217 93.3971 57.2451C91.5756 59.0684 89.4128 60.5152 87.0322 61.5025C84.6515 62.4899 82.0997 62.9985 79.5225 62.9994C78.431 62.9947 77.3414 62.9088 76.2627 62.7423C80.8429 61.9712 85.0015 59.6014 87.9996 56.0539C90.9977 52.5064 92.6411 48.011 92.6379 43.3663C92.6379 33.6096 85.5641 22.322 76.2627 20.1152C77.332 19.8692 78.4253 19.7429 79.5225 19.7383C90.353 19.7452 99.1365 32.4939 99.1365 43.3644Z" fill="#E8F0FD"/>
<path d="M60.2939 47.2009C57.6875 37.5624 56.5772 28.7406 57.545 20.9631C59.8717 6.08051 85.0409 0.916411 93.3693 13.7295C93.6645 14.1861 94.1288 14.5066 94.6603 14.6208C99.3049 15.6234 102.44 18.652 101.717 26.8587C101.473 33.6485 100.477 40.3906 98.7488 46.9612C99.3066 46.7058 96.2068 33.1334 92.3198 26.3081C92.0601 25.8609 91.6337 25.5347 91.134 25.4015C90.6343 25.2683 90.1021 25.3387 89.6542 25.5973C85.8641 27.4875 81.5872 28.1756 77.3954 27.5695C70.6014 26.7302 66.1879 28.4783 64.412 33.0899C62.9073 37.4009 60.2939 47.2009 60.2939 47.2009Z" fill="white"/>
<path d="M101.72 26.8503C101.479 33.5357 100.499 40.1738 98.7972 46.6434C98.2455 42.7104 97.3002 38.8427 95.9754 35.0986V35.0779C96.2152 32.951 96.2743 31.1821 96.4967 28.2212C97.2317 20.0145 94.0918 16.9946 89.442 15.9816C88.9104 15.8645 88.446 15.543 88.1492 15.0867C84.2153 9.02592 76.5072 6.99807 69.251 8.11187C77.7374 4.87124 88.4672 6.18306 93.3759 13.7347C93.6726 14.1912 94.137 14.5126 94.6687 14.6296C99.2977 15.6235 102.434 18.6436 101.72 26.8503Z" fill="#E8F0FD"/>
<path d="M151.242 83.141C151.57 83.0668 151.856 82.8651 152.036 82.5804C152.216 82.2957 152.276 81.9511 152.203 81.6223L151.794 79.8395L153.577 79.4312C153.895 79.3459 154.168 79.1404 154.337 78.8583C154.507 78.5762 154.561 78.2394 154.487 77.9184C154.414 77.5975 154.218 77.3176 153.943 77.1377C153.667 76.9577 153.332 76.8916 153.009 76.9533L151.226 77.3616L150.818 75.5789C150.742 75.2503 150.54 74.9651 150.254 74.786C149.968 74.6069 149.623 74.5486 149.295 74.6239C148.966 74.6993 148.681 74.9021 148.502 75.1877C148.323 75.4734 148.265 75.8185 148.34 76.1471L148.748 77.9282L146.967 78.3365C146.639 78.4116 146.353 78.6142 146.174 78.8997C145.995 79.1851 145.936 79.53 146.011 79.8586C146.087 80.1872 146.289 80.4725 146.575 80.6517C146.86 80.8309 147.205 80.8893 147.534 80.8142L149.316 80.4059L149.725 82.1886C149.8 82.516 150.002 82.8004 150.286 82.979C150.571 83.1575 150.914 83.2158 151.242 83.141V83.141Z" fill="#427EEB"/>
<path d="M140.769 102.936L126.173 102.919V81.5044C126.169 77.7807 124.688 74.2105 122.055 71.5774C119.422 68.9444 115.852 67.4634 112.128 67.4593H97.8969L90.1785 61.866C92.9305 60.2722 95.2928 58.0851 97.0936 55.4638C98.8943 52.8425 100.088 49.8528 100.588 46.7122C101.767 42.046 102.596 37.2985 103.068 32.5091C105.153 34.3347 107.514 35.8185 110.064 36.9053C110.17 36.9821 110.251 37.0904 110.293 37.2149C110.335 37.3395 110.338 37.4741 110.3 37.6001C109.705 39.8031 108.674 41.8641 107.268 43.661C106.98 44.0345 106.824 44.4927 106.824 44.9642C106.824 45.4357 106.98 45.8939 107.268 46.2674C107.462 46.52 107.711 46.7249 107.997 46.8662C108.282 47.0074 108.597 47.0813 108.915 47.0823C109.191 47.0796 109.464 47.0205 109.716 46.9086C113.579 45.3095 117.025 42.8503 119.794 39.7183C119.829 39.6702 119.875 39.631 119.928 39.6033C119.981 39.5756 120.039 39.5603 120.098 39.5586C122.96 39.9041 125.85 39.9453 128.72 39.6818C142.423 38.4655 152.755 30.3804 152.755 20.8931C152.755 14.2537 147.869 8.22609 139.688 4.76826C135.036 2.85061 130.049 1.88046 125.018 1.91495C113.028 1.91495 102.823 7.14872 98.9534 14.4449C97.7473 13.7045 96.4204 13.1816 95.0333 12.9001C94.9505 12.8809 94.8784 12.8306 94.8318 12.7595C90.5921 6.23827 81.8571 3.30684 72.5904 5.28771C63.5688 7.21646 56.9902 13.2546 55.8226 20.7211C54.8773 28.337 55.7861 37.1172 58.6027 47.5585C59.207 50.5303 60.4354 53.3399 62.2066 55.8015C63.9778 58.2632 66.2515 60.3208 68.8772 61.8382L61.157 67.4332H46.926C43.2026 67.4378 39.6331 68.9189 37.0004 71.552C34.3677 74.185 32.8868 77.7549 32.8827 81.4783V102.827L1.81085 102.802C1.35001 102.802 0.908012 102.985 0.582147 103.311C0.256283 103.637 0.0732422 104.079 0.0732422 104.54C0.0732422 105.001 0.256283 105.443 0.582147 105.769C0.908012 106.094 1.35001 106.277 1.81085 106.277L36.0868 106.303C36.132 106.303 36.1685 106.281 36.2137 106.277H56.3126C56.7734 106.277 57.2154 106.094 57.5412 105.769C57.8671 105.443 58.0502 105.001 58.0502 104.54C58.0502 104.079 57.8671 103.637 57.5412 103.311C57.2154 102.985 56.7734 102.802 56.3126 102.802H36.351V81.4783C36.3537 78.6761 37.468 75.9896 39.4493 74.008C41.4305 72.0264 44.1169 70.9116 46.9191 70.9084H60.2795C61.4553 76.2762 64.6219 80.9988 69.1413 84.1246C70.0917 84.8053 71.2321 85.17 72.4011 85.1671C73.3977 85.163 74.3762 84.9005 75.2409 84.405C76.1056 83.9094 76.8268 83.1979 77.3341 82.3401L79.5148 78.6511L81.6955 82.3401C82.1036 83.0295 82.6509 83.6264 83.3025 84.0925C83.9541 84.5587 84.6957 84.8837 85.48 85.0473C86.2387 85.2069 87.0223 85.207 87.781 85.0473C88.5396 84.8875 89.2567 84.5716 89.8866 84.1195C94.4093 80.9952 97.5791 76.2723 98.757 70.9031H112.116C114.918 70.9059 117.605 72.0204 119.587 74.002C121.568 75.9837 122.683 78.6705 122.686 81.473V102.797H67.8155C67.3547 102.797 66.9127 102.98 66.5869 103.306C66.261 103.632 66.0779 104.074 66.0779 104.534C66.0779 104.995 66.261 105.437 66.5869 105.763C66.9127 106.089 67.3547 106.272 67.8155 106.272H81.4575C81.5147 106.288 81.5726 106.3 81.6312 106.309L140.76 106.38C141.221 106.38 141.663 106.197 141.989 105.871C142.315 105.545 142.498 105.103 142.498 104.642C142.498 104.181 142.315 103.74 141.989 103.414C141.663 103.088 141.221 102.905 140.76 102.905L140.769 102.936ZM125.011 5.41286C129.576 5.37744 134.102 6.25414 138.324 7.99148C145.181 10.8881 149.271 15.7186 149.271 20.9158C149.271 28.5908 140.3 35.1798 128.385 36.245C125.763 36.4853 123.124 36.4474 120.51 36.1319C119.885 36.0572 119.251 36.1398 118.666 36.3722C118.081 36.6047 117.563 36.9796 117.16 37.4629C115.829 38.9848 114.301 40.3224 112.616 41.4404C113.035 40.4918 113.38 39.5123 113.648 38.5107C113.911 37.58 113.833 36.5863 113.428 35.7079C113.024 34.8295 112.319 34.124 111.442 33.7183C108.312 32.4486 105.544 30.426 103.384 27.8297C103.405 27.5552 103.423 27.3084 103.445 27.0095C103.997 23.559 103.332 20.024 101.565 17.0096C104.288 10.351 113.749 5.41286 125.014 5.41286H125.011ZM59.2613 21.225C60.1961 15.2459 65.7113 10.3321 73.3133 8.71435C74.9204 8.37418 76.5585 8.20231 78.2012 8.20168C83.2733 8.20168 88.7832 9.86279 91.9127 14.6742C92.1812 15.0926 92.53 15.4535 92.9389 15.7363C93.3478 16.019 93.8086 16.2179 94.2949 16.3215C97.499 17.0165 100.682 18.7889 99.9838 26.7193C99.8778 28.0225 99.81 29.0982 99.7475 30.0747C99.6157 32.8321 99.2935 35.5772 98.7831 38.2901C97.5912 33.847 95.9318 29.5426 93.8327 25.4492C93.3436 24.6044 92.5405 23.987 91.5983 23.7315C90.6562 23.4761 89.6512 23.6031 88.8023 24.0851C85.3398 25.8056 81.4321 26.4202 77.6087 25.8454C69.8433 24.888 64.8529 27.1156 62.773 32.5178C62.0901 34.4674 61.2092 37.4769 60.4186 40.2275C59.0086 33.9993 58.6178 27.5837 59.2613 21.2303V21.225ZM62.0849 47.2386C62.5888 45.3585 64.7539 37.3743 66.0362 33.7079C66.5575 32.3387 68.1682 28.1684 77.2351 29.2926C81.7794 29.9522 86.4164 29.1881 90.5087 27.1051C90.5572 27.0748 90.6152 27.0637 90.6715 27.074C90.7277 27.0843 90.7781 27.1152 90.8127 27.1607C93.8173 33.2709 95.9241 39.7828 97.0681 46.495L97.0525 46.5749C97.0197 46.722 97.0074 46.8729 97.016 47.0233C96.1834 51.0237 94.0042 54.6176 90.8421 57.2055C87.68 59.7934 83.7262 61.2188 79.6401 61.2441C75.5541 61.2693 71.583 59.8927 68.3892 57.344C65.1954 54.7953 62.9721 51.2284 62.0901 47.2386H62.0849ZM74.3489 80.6008C74.1973 80.8652 73.9926 81.0956 73.7478 81.2772C73.5029 81.4589 73.2232 81.5879 72.9262 81.6565C72.6291 81.725 72.3211 81.7314 72.0214 81.6753C71.7217 81.6193 71.4369 81.5018 71.1847 81.3305C67.279 78.67 64.5625 74.5938 63.6105 69.965L69.9997 65.3342C71.2436 69.4779 73.7793 73.1156 77.2368 75.7163L74.3489 80.6008ZM79.5218 73.0683C76.4147 70.7831 74.1805 67.5061 73.1882 63.779C77.3129 65.0597 81.729 65.0597 85.8536 63.779C84.8625 67.5071 82.6288 70.7854 79.5218 73.0717V73.0683ZM87.8623 81.3305C87.6097 81.5018 87.3245 81.6191 87.0245 81.6751C86.7245 81.7311 86.4162 81.7245 86.1188 81.6558C85.8215 81.5872 85.5415 81.458 85.2965 81.2762C85.0514 81.0943 84.8465 80.8638 84.6946 80.5991L81.8085 75.7163C85.266 73.1156 87.8017 69.4779 89.0456 65.3342L95.4348 69.965C94.4835 74.5955 91.7662 78.6734 87.8588 81.3341L87.8623 81.3305Z" fill="#427EEB"/>
<path d="M158.188 102.949H151.933C151.472 102.949 151.03 103.132 150.704 103.458C150.378 103.784 150.195 104.226 150.195 104.687C150.195 105.148 150.378 105.59 150.704 105.916C151.03 106.241 151.472 106.424 151.933 106.424H158.188C158.649 106.424 159.091 106.241 159.417 105.916C159.743 105.59 159.926 105.148 159.926 104.687C159.926 104.226 159.743 103.784 159.417 103.458C159.091 103.132 158.649 102.949 158.188 102.949Z" fill="#427EEB"/>
<path d="M83.3012 90.9423C83.3032 90.1952 83.0837 89.4641 82.6703 88.8418C82.257 88.2194 81.6683 87.7337 80.9789 87.4459C80.2894 87.1581 79.5301 87.0811 78.7969 87.2249C78.0637 87.3686 77.3897 87.7265 76.8599 88.2534C76.3302 88.7802 75.9685 89.4523 75.8207 90.1846C75.673 90.917 75.7457 91.6768 76.0297 92.3679C76.3137 93.0589 76.7962 93.6501 77.4163 94.0669C78.0363 94.4837 78.7661 94.7073 79.5132 94.7094C80.5141 94.7089 81.4742 94.3126 82.1839 93.6068C82.8936 92.901 83.2952 91.9432 83.3012 90.9423V90.9423Z" fill="#427EEB"/>
</svg>
