<svg width="20" height="17" viewBox="0 0 20 17" fill="none" xmlns="http://www.w3.org/2000/svg">
<path d="M1.13 16.8701C0.870005 16.8701 0.609054 16.7601 0.430054 16.5701C0.330054 16.4801 0.259961 16.37 0.209961 16.25C0.159961 16.13 0.130005 16.0001 0.130005 15.8701C0.130005 15.8001 0.140024 15.7299 0.150024 15.6699C0.161024 15.6099 0.18006 15.54 0.21106 15.48C0.23106 15.42 0.271025 15.3601 0.301025 15.3101C0.341025 15.2601 0.38103 15.2099 0.43103 15.1599C0.80103 14.7899 1.47094 14.7899 1.84094 15.1599C2.02094 15.3399 2.13098 15.6001 2.13098 15.8701C2.13098 16.0001 2.11004 16.13 2.06104 16.25C2.01104 16.37 1.93094 16.4801 1.84094 16.5701C1.64894 16.7601 1.399 16.8701 1.13 16.8701ZM4.72498 16.6201C5.13498 16.5641 5.42194 16.1859 5.36694 15.7749C5.22394 14.7279 4.74706 13.7729 3.98706 13.0129C3.22806 12.2539 2.27298 11.777 1.22498 11.634C0.820976 11.583 0.437005 11.8649 0.380005 12.2749C0.324005 12.6859 0.609973 13.0641 1.02197 13.1201C1.74297 13.2191 2.40103 13.549 2.92603 14.074C3.45203 14.6 3.781 15.259 3.88 15.979C3.932 16.355 4.25295 16.627 4.62195 16.627C4.65595 16.627 4.68998 16.6251 4.72498 16.6201ZM8.05701 16.748C8.47001 16.717 8.78005 16.3571 8.74805 15.9441C8.59905 13.9601 7.73795 12.089 6.32495 10.675C4.91095 9.26205 3.04003 8.40095 1.05603 8.25195C0.64203 8.21895 0.283977 8.53009 0.250977 8.94409C0.219977 9.35709 0.529017 9.71705 0.942017 9.74805C2.56902 9.87105 4.10294 10.5771 5.26294 11.7361C6.42194 12.8961 7.128 14.4299 7.25 16.0559C7.28 16.4499 7.60795 16.75 7.99695 16.75C8.01895 16.75 8.03701 16.75 8.05701 16.748ZM19.75 13V4C19.75 1.582 18.418 0.25 16 0.25H4C1.582 0.25 0.25 1.582 0.25 4V5C0.25 5.414 0.586 5.75 1 5.75C1.414 5.75 1.75 5.414 1.75 5V4C1.75 2.423 2.423 1.75 4 1.75H16C17.577 1.75 18.25 2.423 18.25 4V13C18.25 14.577 17.577 15.25 16 15.25H12C11.586 15.25 11.25 15.586 11.25 16C11.25 16.414 11.586 16.75 12 16.75H16C18.418 16.75 19.75 15.418 19.75 13Z" fill="#0B224B"/>
</svg>
