<svg width="24" height="24" viewBox="0 0 24 24" fill="none" xmlns="http://www.w3.org/2000/svg">
<path d="M12.3677 20.75C11.7957 20.75 11.2587 20.476 10.9207 19.998L8.50166 16.571C8.46166 16.514 8.40676 16.483 8.32576 16.482L3.98677 16.547C3.97777 16.547 3.96767 16.547 3.95967 16.547C3.31367 16.547 2.73267 16.1921 2.43867 15.6161C2.13967 15.0311 2.19972 14.3401 2.59272 13.8121L5.19868 10.324C5.24068 10.268 5.25269 10.1941 5.22969 10.1271L3.88667 6.14506C3.66867 5.49906 3.83372 4.79802 4.31672 4.31602C4.79772 3.83502 5.4957 3.66906 6.1457 3.88706L10.1267 5.23002C10.1947 5.25202 10.2677 5.24004 10.3217 5.19804L13.8087 2.59202C14.3337 2.19802 15.0268 2.13903 15.6118 2.43803C16.1968 2.73603 16.5538 3.32906 16.5448 3.98606L16.4797 8.32707C16.4787 8.39707 16.5117 8.46205 16.5687 8.50205L19.9978 10.923C20.5538 11.315 20.8338 11.9771 20.7268 12.6501C20.6218 13.3241 20.1507 13.87 19.4987 14.074L15.4727 15.334C15.4067 15.355 15.3527 15.4081 15.3317 15.4761L14.0727 19.498C13.8687 20.15 13.3227 20.621 12.6477 20.727C12.5557 20.743 12.4607 20.75 12.3677 20.75ZM8.32869 14.982C8.88569 14.982 9.40576 15.251 9.72676 15.706L12.1447 19.133C12.2317 19.256 12.3527 19.257 12.4157 19.247C12.4797 19.237 12.5957 19.198 12.6417 19.052L13.9007 15.029C14.0697 14.492 14.4897 14.072 15.0257 13.904L19.0517 12.644C19.1967 12.599 19.2357 12.484 19.2447 12.419C19.2547 12.356 19.2537 12.2361 19.1317 12.1501L15.7027 9.72904C15.2407 9.40304 14.9707 8.87107 14.9787 8.30607L15.0437 3.96604C15.0457 3.85804 14.9818 3.80304 14.9298 3.77604C14.8768 3.74904 14.7947 3.73006 14.7067 3.79606L11.2197 6.40202C10.7677 6.73902 10.1797 6.83306 9.64766 6.65306L5.66572 5.31004C5.51972 5.26104 5.42266 5.33203 5.37666 5.37803C5.32966 5.42403 5.25967 5.52403 5.30867 5.66703L6.65168 9.65006C6.83068 10.1841 6.73671 10.772 6.40071 11.222L3.79365 14.7101C3.72865 14.7981 3.74676 14.8801 3.77376 14.9341C3.80076 14.9871 3.89572 15.046 3.96272 15.048L8.30269 14.983C8.31169 14.982 8.32069 14.982 8.32869 14.982ZM21.5297 21.5301C21.8227 21.2371 21.8227 20.762 21.5297 20.469L18.5297 17.469C18.2367 17.176 17.7617 17.176 17.4687 17.469C17.1757 17.762 17.1757 18.2371 17.4687 18.5301L20.4687 21.5301C20.6147 21.6761 20.8067 21.75 20.9987 21.75C21.1907 21.75 21.3837 21.6771 21.5297 21.5301Z" fill="#0B224B"/>
</svg>
