<svg width="22" height="22" viewBox="0 0 22 22" fill="none" xmlns="http://www.w3.org/2000/svg">
<path d="M17.25 21.9375C14.6663 21.9375 12.5625 19.835 12.5625 17.25C12.5625 14.665 14.6663 12.5625 17.25 12.5625C19.8337 12.5625 21.9375 14.665 21.9375 17.25C21.9375 19.835 19.8337 21.9375 17.25 21.9375ZM17.25 14.4375C15.7 14.4375 14.4375 15.6987 14.4375 17.25C14.4375 18.8013 15.7 20.0625 17.25 20.0625C18.8 20.0625 20.0625 18.8013 20.0625 17.25C20.0625 15.6987 18.8 14.4375 17.25 14.4375ZM19.125 9.4375H15.375C13.6137 9.4375 12.5625 8.38625 12.5625 6.625V2.875C12.5625 1.11375 13.6137 0.0625 15.375 0.0625H19.125C20.8862 0.0625 21.9375 1.11375 21.9375 2.875V6.625C21.9375 8.38625 20.8862 9.4375 19.125 9.4375ZM15.375 1.9375C14.6388 1.9375 14.4375 2.13875 14.4375 2.875V6.625C14.4375 7.36125 14.6388 7.5625 15.375 7.5625H19.125C19.8612 7.5625 20.0625 7.36125 20.0625 6.625V2.875C20.0625 2.13875 19.8612 1.9375 19.125 1.9375H15.375ZM6.625 9.4375H2.875C1.11375 9.4375 0.0625 8.38625 0.0625 6.625V2.875C0.0625 1.11375 1.11375 0.0625 2.875 0.0625H6.625C8.38625 0.0625 9.4375 1.11375 9.4375 2.875V6.625C9.4375 8.38625 8.38625 9.4375 6.625 9.4375ZM2.875 1.9375C2.13875 1.9375 1.9375 2.13875 1.9375 2.875V6.625C1.9375 7.36125 2.13875 7.5625 2.875 7.5625H6.625C7.36125 7.5625 7.5625 7.36125 7.5625 6.625V2.875C7.5625 2.13875 7.36125 1.9375 6.625 1.9375H2.875ZM6.625 21.9375H2.875C1.11375 21.9375 0.0625 20.8862 0.0625 19.125V15.375C0.0625 13.6137 1.11375 12.5625 2.875 12.5625H6.625C8.38625 12.5625 9.4375 13.6137 9.4375 15.375V19.125C9.4375 20.8862 8.38625 21.9375 6.625 21.9375ZM2.875 14.4375C2.13875 14.4375 1.9375 14.6388 1.9375 15.375V19.125C1.9375 19.8612 2.13875 20.0625 2.875 20.0625H6.625C7.36125 20.0625 7.5625 19.8612 7.5625 19.125V15.375C7.5625 14.6388 7.36125 14.4375 6.625 14.4375H2.875Z" fill="white"/>
</svg>
