<svg width="23" height="23" viewBox="0 0 23 23" fill="none" xmlns="http://www.w3.org/2000/svg">
<path d="M11.5001 1.91699C6.21008 1.91699 1.91675 6.21033 1.91675 11.5003C1.91675 16.7903 6.21008 21.0837 11.5001 21.0837C16.7901 21.0837 21.0834 16.7903 21.0834 11.5003C21.0834 6.21033 16.7901 1.91699 11.5001 1.91699ZM15.3622 9.77534L10.8867 14.2411C10.7526 14.3849 10.5705 14.452 10.3788 14.452C10.1967 14.452 10.0147 14.3849 9.8709 14.2411L7.638 12.0083C7.36008 11.7304 7.36008 11.2703 7.638 10.9924C7.91592 10.7145 8.37591 10.7145 8.65383 10.9924L10.3788 12.7174L14.3463 8.75951C14.6242 8.47201 15.0842 8.47201 15.3622 8.75951C15.6401 9.03742 15.6401 9.48784 15.3622 9.77534Z" fill="white"/>
</svg>
