<svg width="163" height="100" viewBox="0 0 163 100" fill="none" xmlns="http://www.w3.org/2000/svg">
<path d="M16.2062 5.24326L14.3662 5.06761L14.5417 3.22755C14.5743 2.88853 14.4709 2.55045 14.2543 2.28769C14.0376 2.02492 13.7254 1.85893 13.3864 1.82633C13.0474 1.79373 12.7093 1.89719 12.4466 2.11386C12.1838 2.33053 12.0179 2.64269 11.9853 2.9817L11.8098 4.82177L9.96951 4.64623C9.6305 4.61363 9.29242 4.71698 9.02965 4.93365C8.76688 5.15032 8.601 5.46259 8.5684 5.8016C8.5358 6.14061 8.63916 6.47869 8.85582 6.74146C9.07249 7.00422 9.38487 7.17011 9.72388 7.2027L11.5639 7.37824L11.3884 9.21659C11.3556 9.5556 11.4587 9.89384 11.6752 10.1568C11.8917 10.4197 12.2038 10.5858 12.5428 10.6187C12.8818 10.6515 13.22 10.5483 13.4829 10.3318C13.7458 10.1153 13.9119 9.80327 13.9448 9.46426L14.1203 7.62409L15.9587 7.79973C16.2977 7.83256 16.6358 7.72935 16.8987 7.51285C17.1617 7.29634 17.328 6.98423 17.3608 6.64522C17.3937 6.30621 17.2903 5.96808 17.0738 5.70515C16.8573 5.44222 16.5452 5.27609 16.2062 5.24326V5.24326Z" fill="#1369F0"/>
<path d="M148.63 8.19827C148.619 8.53868 148.743 8.86943 148.976 9.11788C149.209 9.36632 149.531 9.51213 149.872 9.52308C150.212 9.53402 150.543 9.40925 150.791 9.17628C151.04 8.94332 151.185 8.6212 151.196 8.28079L151.256 6.43537L153.103 6.49506C153.444 6.50624 153.775 6.38172 154.023 6.14891C154.272 5.91611 154.418 5.59415 154.429 5.25374C154.44 4.91334 154.316 4.58243 154.083 4.33382C153.85 4.08521 153.528 3.93926 153.188 3.92808L151.34 3.86839L151.4 2.02126C151.406 1.68467 151.278 1.35944 151.046 1.11569C150.814 0.87194 150.496 0.729153 150.159 0.7181C149.823 0.707046 149.495 0.828655 149.247 1.05664C149 1.28463 148.852 1.60071 148.835 1.93691L148.773 3.78405L146.926 3.72436C146.59 3.71969 146.265 3.84722 146.022 4.07951C145.779 4.31181 145.636 4.63036 145.626 4.96654C145.615 5.30271 145.737 5.62969 145.964 5.87714C146.192 6.12459 146.508 6.27267 146.844 6.28962L148.689 6.35114L148.63 8.19827Z" fill="#1369F0"/>
<path d="M141.038 95.8334L114.7 95.814C115.038 95.002 115.171 94.119 115.086 93.2433C115.001 92.3677 114.701 91.5265 114.212 90.7948C113.724 90.063 113.062 89.4632 112.286 89.0487C111.51 88.6341 110.644 88.4177 109.764 88.4185H105.705C104.525 87.07 103.629 85.4977 103.07 83.7954C102.511 82.0932 102.301 80.2957 102.451 78.5104H133.767C135.392 78.4759 136.941 77.815 138.09 76.6656C139.239 75.5162 139.9 73.9672 139.935 72.3421V11.7432C139.929 10.1111 139.277 8.54777 138.121 7.39583C136.964 6.2439 135.399 5.5973 133.767 5.59778H45.378C43.7459 5.5973 42.1802 6.2439 41.024 7.39583C39.8678 8.54777 39.2154 10.1111 39.2099 11.7432V57.4878C35.1983 58.4598 31.5587 60.5844 28.7398 63.5996C25.921 66.6149 24.0461 70.3891 23.3461 74.457C22.6461 78.5249 23.1517 82.7087 24.8006 86.4927C26.4494 90.2768 29.1695 93.4957 32.6255 95.7526L21.7832 95.7439C21.3175 95.7439 20.871 95.9289 20.5417 96.2582C20.2125 96.5874 20.0273 97.034 20.0273 97.4997C20.0273 97.9654 20.2125 98.4119 20.5417 98.7412C20.871 99.0705 21.3175 99.2555 21.7832 99.2555L141.03 99.3433C141.496 99.3433 141.943 99.1583 142.272 98.829C142.601 98.4997 142.786 98.0531 142.786 97.5875C142.786 97.1218 142.601 96.6752 142.272 96.3459C141.943 96.0166 141.496 95.8316 141.03 95.8316L141.038 95.8334ZM109.771 91.9302C110.258 91.9302 110.725 92.1235 111.069 92.4676C111.413 92.8117 111.606 93.2784 111.606 93.765C111.606 94.2516 111.413 94.7184 111.069 95.0625C110.725 95.4066 110.258 95.5999 109.771 95.5999H69.3786C68.8919 95.5999 68.4253 95.4066 68.0812 95.0625C67.7371 94.7184 67.5436 94.2516 67.5436 93.765C67.5436 93.2784 67.7371 92.8117 68.0812 92.4676C68.4253 92.1235 68.8919 91.9302 69.3786 91.9302H109.771ZM80.226 78.5104H98.9257C98.6913 81.9887 99.5509 85.4531 101.384 88.4185H77.782C79.6104 85.451 80.4649 81.986 80.226 78.5087V78.5104ZM136.421 72.3404C136.421 72.5097 136.403 72.6784 136.37 72.8443C135.615 74.184 135.317 74.9918 133.768 74.9918H65.1804C64.7937 72.3104 63.8915 69.7292 62.5237 67.3907H136.421V72.3404ZM51.2883 58.0901V17.9413H127.863V63.8773H59.9515C57.5903 61.2558 54.6128 59.2643 51.2883 58.0831V58.0901ZM42.7286 11.7362C42.7328 11.035 43.0147 10.3641 43.5126 9.87043C44.0106 9.37676 44.6839 9.1006 45.3851 9.10247H133.774C134.475 9.10106 135.148 9.37729 135.645 9.87086C136.143 10.3644 136.426 11.0352 136.43 11.7362V63.8773H131.375V16.1855C131.375 15.7198 131.19 15.2731 130.861 14.9438C130.532 14.6146 130.085 14.4297 129.619 14.4297H49.5324C49.0668 14.4297 48.6201 14.6146 48.2908 14.9438C47.9615 15.2731 47.7766 15.7198 47.7766 16.1855V57.1788C46.6124 56.974 45.4329 56.8677 44.2508 56.861C43.7364 56.861 43.2325 56.9014 42.7286 56.9382V11.7362ZM26.5592 78.0275C26.562 74.5324 27.6007 71.1165 29.5442 68.2116C31.4878 65.3067 34.2487 63.0431 37.4783 61.7069C40.7079 60.3706 44.2611 60.0217 47.689 60.7042C51.1168 61.3867 54.2655 63.0701 56.7369 65.5415C59.2083 68.0129 60.8917 71.1615 61.5742 74.5893C62.2567 78.0172 61.9078 81.5704 60.5715 84.8C59.2353 88.0296 56.9716 90.7906 54.0667 92.7342C51.1618 94.6777 47.7459 95.7165 44.2508 95.7193C39.5603 95.7179 35.0624 93.8544 31.745 90.5384C28.4277 87.2224 26.5625 82.7251 26.5592 78.0346V78.0275ZM65.4016 78.5016H76.6934C76.844 80.287 76.6336 82.0844 76.0746 83.7867C75.5156 85.4889 74.6195 87.0612 73.4398 88.4097H69.3786C68.5016 88.4071 67.6375 88.6207 66.8629 89.0319C66.0883 89.443 65.4272 90.0389 64.938 90.7667C64.4488 91.4945 64.1468 92.3317 64.0586 93.2042C63.9703 94.0767 64.0987 94.9574 64.4324 95.7684H55.8287C58.7045 93.8836 61.0787 91.3275 62.7464 88.3206C64.4141 85.3137 65.3254 81.9463 65.4016 78.5087V78.5016Z" fill="#1369F0"/>
<path d="M10.6087 95.7333H2.4863C2.02062 95.7333 1.57394 95.9182 1.24466 96.2475C0.915376 96.5767 0.730469 97.0234 0.730469 97.4891C0.730469 97.9548 0.915376 98.4014 1.24466 98.7306C1.57394 99.0599 2.02062 99.2449 2.4863 99.2449H10.6087C11.0744 99.2449 11.5211 99.0599 11.8504 98.7306C12.1797 98.4014 12.3646 97.9548 12.3646 97.4891C12.3646 97.0234 12.1797 96.5767 11.8504 96.2475C11.5211 95.9182 11.0744 95.7333 10.6087 95.7333Z" fill="#1369F0"/>
<path d="M160.513 95.8563L150.17 95.8387C149.704 95.8387 149.258 96.0238 148.928 96.353C148.599 96.6823 148.414 97.1289 148.414 97.5946C148.414 98.0603 148.599 98.5068 148.928 98.8361C149.258 99.1654 149.704 99.3504 150.17 99.3504L160.513 99.368C160.979 99.368 161.426 99.183 161.755 98.8537C162.084 98.5244 162.269 98.0778 162.269 97.6122C162.269 97.1465 162.084 96.6998 161.755 96.3705C161.426 96.0412 160.979 95.8563 160.513 95.8563Z" fill="#1369F0"/>
<path d="M89.58 73.826C90.1006 73.8243 90.609 73.6683 91.0409 73.3778C91.4729 73.0874 91.8089 72.6755 92.0069 72.1941C92.2049 71.7127 92.2559 71.1833 92.1533 70.673C92.0507 70.1627 91.7991 69.6942 91.4304 69.3268C91.0617 68.9593 90.5924 68.7094 90.0818 68.6084C89.5711 68.5075 89.042 68.5602 88.5613 68.7598C88.0806 68.9594 87.6698 69.2969 87.3807 69.7298C87.0917 70.1628 86.9375 70.6717 86.9375 71.1923C86.9375 71.5389 87.0059 71.882 87.1388 72.2021C87.2717 72.5222 87.4664 72.8129 87.7119 73.0576C87.9574 73.3023 88.2489 73.4961 88.5694 73.628C88.89 73.7598 89.2334 73.8272 89.58 73.826Z" fill="#1369F0"/>
<path d="M117.732 50.0608C118.99 48.926 119.999 47.5422 120.694 45.9971C121.39 44.452 121.756 42.7792 121.771 41.085L108.691 40.9252L117.732 50.0608Z" fill="#1369F0"/>
<path d="M54.6392 70.5707C54.4368 70.3681 54.1966 70.2073 53.9321 70.0976C53.6676 69.988 53.3838 69.9315 53.0975 69.9315C52.8111 69.9315 52.5276 69.988 52.2631 70.0976C51.9986 70.2073 51.7584 70.3681 51.556 70.5707L41.2212 80.9072L36.9176 76.6019C36.7169 76.3919 36.4761 76.224 36.2096 76.1082C35.9431 75.9925 35.6563 75.9312 35.3658 75.9279C35.0753 75.9246 34.787 75.9794 34.5179 76.089C34.2488 76.1987 34.0045 76.361 33.799 76.5665C33.5936 76.7719 33.4311 77.0164 33.3215 77.2855C33.2118 77.5545 33.157 77.8427 33.1603 78.1333C33.1636 78.4238 33.225 78.7107 33.3408 78.9772C33.4565 79.2437 33.6243 79.4844 33.8344 79.6851L39.6795 85.5303C39.8817 85.7328 40.122 85.8936 40.3864 86.0032C40.6508 86.1128 40.9341 86.1692 41.2204 86.1692C41.5066 86.1692 41.79 86.1128 42.0543 86.0032C42.3187 85.8936 42.5588 85.7328 42.761 85.5303L54.6392 73.6522C54.8417 73.4499 55.0024 73.2098 55.112 72.9454C55.2217 72.681 55.2781 72.3976 55.2781 72.1114C55.2781 71.8252 55.2217 71.5418 55.112 71.2774C55.0024 71.0131 54.8417 70.7729 54.6392 70.5707V70.5707Z" fill="#1369F0"/>
</svg>
