<svg width="20" height="18" viewBox="0 0 20 18" fill="none" xmlns="http://www.w3.org/2000/svg">
<path d="M16 17.25H4C1.582 17.25 0.25 15.918 0.25 13.5V4.5C0.25 2.082 1.582 0.75 4 0.75H16C18.418 0.75 19.75 2.082 19.75 4.5V13.5C19.75 15.918 18.418 17.25 16 17.25ZM4 2.25C2.423 2.25 1.75 2.923 1.75 4.5V13.5C1.75 15.077 2.423 15.75 4 15.75H16C17.577 15.75 18.25 15.077 18.25 13.5V4.5C18.25 2.923 17.577 2.25 16 2.25H4ZM11.0291 9.679L15.9409 6.10699C16.2759 5.86399 16.35 5.39401 16.106 5.05901C15.863 4.72501 15.3951 4.649 15.0581 4.894L10.146 8.466C10.058 8.53 9.94103 8.53 9.85303 8.466L4.94092 4.894C4.60292 4.649 4.13607 4.72601 3.89307 5.05901C3.64907 5.39401 3.72311 5.86299 4.05811 6.10699L8.96997 9.67999C9.27797 9.90399 9.63902 10.015 9.99902 10.015C10.359 10.015 10.7221 9.903 11.0291 9.679Z" fill="#727688"/>
</svg>
