<svg width="23" height="23" viewBox="0 0 23 23" fill="none" xmlns="http://www.w3.org/2000/svg">
<path d="M11.5 1.91663C6.20708 1.91663 1.91663 6.20708 1.91663 11.5C1.91663 16.7928 6.20708 21.0833 11.5 21.0833C16.7928 21.0833 21.0833 16.7928 21.0833 11.5C21.0833 6.20708 16.7928 1.91663 11.5 1.91663ZM10.7812 7.18746C10.7812 6.79071 11.1032 6.46871 11.5 6.46871C11.8967 6.46871 12.2187 6.79071 12.2187 7.18746V11.568C12.2187 11.9648 11.8967 12.2868 11.5 12.2868C11.1032 12.2868 10.7812 11.9648 10.7812 11.568V7.18746ZM11.5191 15.8125C10.9901 15.8125 10.5559 15.3831 10.5559 14.8541C10.5559 14.3251 10.9806 13.8958 11.5096 13.8958H11.5191C12.0491 13.8958 12.4775 14.3251 12.4775 14.8541C12.4775 15.3831 12.0481 15.8125 11.5191 15.8125Z" fill="white"/>
</svg>
