<svg width="16" height="12" viewBox="0 0 16 12" fill="none" xmlns="http://www.w3.org/2000/svg">
  <path
    d="M10.2917 6.00008C10.2917 7.26425 9.2642 8.29175 8.00003 8.29175C6.73587 8.29175 5.70837 7.26425 5.70837 6.00008C5.70837 5.70925 5.7683 5.43338 5.86747 5.17672C6.02913 5.30505 6.22419 5.39339 6.44669 5.39339C6.96919 5.39339 7.39334 4.96924 7.39334 4.44674C7.39334 4.22424 7.305 4.02918 7.17667 3.86751C7.43334 3.76835 7.7092 3.70841 8.00003 3.70841C9.2642 3.70841 10.2917 4.73591 10.2917 6.00008ZM15.1601 7.23096C14.1376 8.94262 11.8409 11.8334 8.00003 11.8334C4.1592 11.8334 1.8625 8.94262 0.84 7.23096C0.386667 6.47262 0.386667 5.52754 0.84 4.76921C1.8625 3.05754 4.1592 0.166748 8.00003 0.166748C11.8409 0.166748 14.1376 3.05754 15.1601 4.76921C15.6134 5.52754 15.6134 6.47262 15.1601 7.23096ZM11.5417 6.00008C11.5417 4.04758 9.95337 2.45841 8.00003 2.45841C6.0467 2.45841 4.45837 4.04758 4.45837 6.00008C4.45837 7.95258 6.0467 9.54175 8.00003 9.54175C9.95337 9.54175 11.5417 7.95258 11.5417 6.00008Z"
    fill="currentColor" />
</svg>