<svg width="28" height="28" viewBox="0 0 28 28" fill="none" xmlns="http://www.w3.org/2000/svg">
<path d="M14 27.4375C6.59 27.4375 0.5625 21.41 0.5625 14C0.5625 6.59 6.59 0.5625 14 0.5625C21.41 0.5625 27.4375 6.59 27.4375 14C27.4375 21.41 21.41 27.4375 14 27.4375ZM14 2.4375C7.62375 2.4375 2.4375 7.62375 2.4375 14C2.4375 20.3762 7.62375 25.5625 14 25.5625C20.3762 25.5625 25.5625 20.3762 25.5625 14C25.5625 7.62375 20.3762 2.4375 14 2.4375ZM14.9375 19.625V13.9112C14.9375 13.3937 14.5175 12.9737 14 12.9737C13.4825 12.9737 13.0625 13.3937 13.0625 13.9112V19.625C13.0625 20.1425 13.4825 20.5625 14 20.5625C14.5175 20.5625 14.9375 20.1425 14.9375 19.625ZM15.275 9.625C15.275 8.935 14.7163 8.375 14.025 8.375H14.0125C13.3225 8.375 12.7686 8.935 12.7686 9.625C12.7686 10.315 13.335 10.875 14.025 10.875C14.715 10.875 15.275 10.315 15.275 9.625Z" fill="white"/>
</svg>
