<svg width="15" height="15" viewBox="0 0 15 15" fill="none" xmlns="http://www.w3.org/2000/svg">
<path d="M7.5 14.2188C3.795 14.2188 0.78125 11.205 0.78125 7.5C0.78125 3.795 3.795 0.78125 7.5 0.78125C11.205 0.78125 14.2188 3.795 14.2188 7.5C14.2188 11.205 11.205 14.2188 7.5 14.2188ZM7.5 1.71875C4.31188 1.71875 1.71875 4.31188 1.71875 7.5C1.71875 10.6881 4.31188 13.2812 7.5 13.2812C10.6881 13.2812 13.2812 10.6881 13.2812 7.5C13.2812 4.31188 10.6881 1.71875 7.5 1.71875ZM7.96875 10.3125V7.4556C7.96875 7.19685 7.75875 6.98685 7.5 6.98685C7.24125 6.98685 7.03125 7.19685 7.03125 7.4556V10.3125C7.03125 10.5712 7.24125 10.7812 7.5 10.7812C7.75875 10.7812 7.96875 10.5712 7.96875 10.3125ZM8.13751 5.3125C8.13751 4.9675 7.85814 4.6875 7.51251 4.6875H7.50626C7.16126 4.6875 6.88431 4.9675 6.88431 5.3125C6.88431 5.6575 7.16751 5.9375 7.51251 5.9375C7.85751 5.9375 8.13751 5.6575 8.13751 5.3125Z" fill="#727688"/>
</svg>
