<svg width="30" height="31" viewBox="0 0 30 31" fill="none" xmlns="http://www.w3.org/2000/svg">
<path d="M22.5 4.25H7.5C5 4.25 3.75 5.5 3.75 8V26.75L7.5 23H22.5C25 23 26.25 21.75 26.25 19.25V8C26.25 5.5 25 4.25 22.5 4.25ZM16.25 17.0625H10C9.4825 17.0625 9.0625 16.6425 9.0625 16.125C9.0625 15.6075 9.4825 15.1875 10 15.1875H16.25C16.7675 15.1875 17.1875 15.6075 17.1875 16.125C17.1875 16.6425 16.7675 17.0625 16.25 17.0625ZM20 12.0625H10C9.4825 12.0625 9.0625 11.6425 9.0625 11.125C9.0625 10.6075 9.4825 10.1875 10 10.1875H20C20.5175 10.1875 20.9375 10.6075 20.9375 11.125C20.9375 11.6425 20.5175 12.0625 20 12.0625Z" fill="white"/>
</svg>
