<svg width="104" height="80" viewBox="0 0 104 80" fill="none" xmlns="http://www.w3.org/2000/svg">
<path d="M98.0848 43.6278C98.0939 49.1261 93.2637 53.6329 87.9929 55.4897C82.7222 57.3465 76.9918 57.2214 71.4169 57.7262C65.842 58.2309 59.9572 59.583 56.1276 63.5851C53.5936 66.226 52.2528 69.7233 50.4524 72.8871C48.6519 76.0509 46.0357 79.1426 42.4089 79.8546C38.4327 80.6298 34.3822 78.2051 32.0499 74.9512C29.7177 71.6973 28.689 67.7403 27.5871 63.9005C26.4852 60.0607 25.1636 56.1387 22.4043 53.2273C20.2181 51.0207 17.7318 49.1333 15.0187 47.6208C12.2811 46.1139 9.90222 44.0321 8.04556 41.5186C5.97919 38.7243 5.39219 34.5871 7.58701 31.892C10.3238 28.5378 14.0734 28.9626 18.4349 28.5919C26.626 27.9159 32.9277 23.1026 37.0514 16.1171C38.5848 13.5257 39.6428 7.5857 41.3216 5.07541C43.0004 2.56512 45.5275 0.343207 48.5753 0.0367437C52.8567 -0.386896 56.4543 2.93014 59.4119 5.99477C65.1052 11.8897 70.5505 22.359 78.0025 26.2258C85.3475 30.0352 98.0567 33.4063 98.0848 43.6278Z" fill="#E8F0FD"/>
<path d="M9.00684 8.05103C8.99653 8.15906 8.96503 8.26395 8.91414 8.3598C8.86325 8.45565 8.79395 8.54058 8.71024 8.60964C8.62653 8.6787 8.53 8.73056 8.42623 8.7623C8.32245 8.79405 8.21344 8.80503 8.10542 8.79462L6.92577 8.68198L6.81313 9.86273C6.79221 10.0803 6.68569 10.2806 6.51708 10.4196C6.34846 10.5587 6.13152 10.625 5.91398 10.6041C5.69644 10.5832 5.49613 10.4767 5.35709 10.3081C5.21806 10.1395 5.15174 9.92252 5.17266 9.70498L5.2853 8.52423L4.10454 8.41158C3.887 8.39052 3.68672 8.28384 3.5478 8.11512C3.40887 7.9464 3.34264 7.72943 3.3637 7.51189C3.38477 7.29434 3.49144 7.09406 3.66016 6.95514C3.82888 6.81621 4.04586 6.74998 4.2634 6.77104L5.44305 6.88375L5.5557 5.7041C5.57661 5.48656 5.68313 5.28625 5.85174 5.14721C6.02036 5.00818 6.2373 4.94179 6.45484 4.96271C6.67238 4.98362 6.8727 5.09014 7.01173 5.25876C7.15076 5.42737 7.21709 5.64431 7.19617 5.86186L7.08352 7.04261L8.26428 7.15525C8.48142 7.17581 8.68156 7.28166 8.82075 7.44958C8.95995 7.6175 9.02691 7.83384 9.00684 8.05103Z" fill="#E8F0FD"/>
<path d="M10.4806 60.215C10.4598 60.4332 10.3531 60.6343 10.1841 60.774C10.015 60.9136 9.79751 60.9804 9.57924 60.9597L8.39841 60.8471L8.28577 62.0267C8.26485 62.2443 8.15834 62.4446 7.98972 62.5836C7.82111 62.7227 7.60416 62.789 7.38662 62.7681C7.16908 62.7471 6.96877 62.6407 6.82974 62.4721C6.6907 62.3035 6.62438 62.0865 6.6453 61.869L6.75794 60.6882L5.57829 60.5755C5.36408 60.5507 5.16815 60.4428 5.03261 60.2751C4.89707 60.1073 4.83275 59.8932 4.8534 59.6785C4.87405 59.4638 4.97802 59.2658 5.14305 59.127C5.30809 58.9882 5.52103 58.9197 5.73604 58.9361L6.9168 59.0489L7.02951 57.868C7.05043 57.6505 7.15687 57.4502 7.32549 57.3111C7.4941 57.1721 7.71105 57.1058 7.92859 57.1267C8.14613 57.1476 8.34644 57.2541 8.48547 57.4227C8.62451 57.5913 8.6909 57.8082 8.66998 58.0258L8.55727 59.2065L9.73692 59.3193C9.95403 59.3401 10.1541 59.446 10.2934 59.6138C10.4327 59.7816 10.5 59.9977 10.4806 60.215Z" fill="#E8F0FD"/>
<path d="M69.2483 21.2604C69.2474 24.5475 68.2719 27.7605 66.4452 30.4933C64.6185 33.2261 62.0226 35.3559 58.9856 36.6135C55.9486 37.8711 52.6069 38.2 49.3829 37.5587C46.159 36.9174 43.1976 35.3346 40.8731 33.0104C38.5486 30.6863 36.9654 27.725 36.3237 24.5012C35.6819 21.2774 36.0104 17.9356 37.2676 14.8985C38.5248 11.8613 40.6542 9.26507 43.3867 7.43798C46.1193 5.61089 49.3322 4.635 52.6193 4.63367C54.803 4.63293 56.9656 5.06249 58.9833 5.89777C61.001 6.73305 62.8343 7.95766 64.3786 9.50172C65.9229 11.0458 67.1478 12.879 67.9834 14.8966C68.8189 16.9142 69.2487 19.0767 69.2483 21.2604Z" fill="white"/>
<path d="M69.2472 21.2627C69.2463 23.4452 68.8155 25.6063 67.9794 27.6223C67.1432 29.6384 65.9181 31.4699 64.3741 33.0125C62.83 34.555 60.9972 35.7782 58.9803 36.6123C56.9634 37.4464 54.8019 37.875 52.6193 37.8737C51.3347 37.8714 50.0546 37.7236 48.8032 37.4332C52.7208 37.0557 56.3774 35.3009 59.1228 32.4809C61.8682 29.6609 63.5243 25.9585 63.7965 22.0322C64.0688 18.1059 62.9395 14.2103 60.6097 11.0384C58.2798 7.86643 54.9003 5.62376 51.0724 4.70922C51.5839 4.6664 52.0943 4.63825 52.6193 4.63825C54.8029 4.63736 56.9652 5.06669 58.9828 5.9018C61.0004 6.7369 62.8337 7.96134 64.3778 9.5052C65.922 11.0491 67.1468 12.8821 67.9823 14.8995C68.8178 16.9169 69.2476 19.0791 69.2472 21.2627Z" fill="#E8F0FD"/>
<path d="M63.8479 33.2373C60.8696 36.2095 56.8338 37.8788 52.626 37.8788C48.4183 37.8788 44.3824 36.2095 41.4041 33.2373C41.9796 31.7362 42.8514 30.3664 43.9675 29.2094C45.0837 28.0525 46.4212 27.132 47.9006 26.5029C46.3764 25.4899 45.2185 24.0134 44.598 22.2917C43.9775 20.5699 43.9274 18.6943 44.455 16.9418C44.9827 15.1894 46.0601 13.6531 47.528 12.5602C48.996 11.4672 50.7766 10.8755 52.6067 10.8724C54.4369 10.8694 56.2195 11.4552 57.691 12.5432C59.1626 13.6313 60.2451 15.1639 60.7786 16.9146C61.3121 18.6653 61.2682 20.5411 60.6535 22.2649C60.0388 23.9887 58.8858 25.4691 57.3649 26.4872C58.8432 27.1198 60.1789 28.0434 61.2927 29.203C62.4065 30.3627 63.2755 31.7347 63.8479 33.2373Z" fill="white"/>
<path d="M54.5264 59.2089C54.5258 61.5399 53.8339 63.8185 52.5384 65.7565C51.2429 67.6944 49.4019 69.2047 47.2482 70.0964C45.0944 70.9882 42.7246 71.2213 40.4384 70.7664C38.1521 70.3114 36.0521 69.1889 34.4038 67.5406C32.7554 65.8923 31.6329 63.7922 31.178 61.5059C30.723 59.2197 30.9562 56.8499 31.8479 54.6961C32.7397 52.5424 34.2499 50.7014 36.1879 49.4059C38.1258 48.1104 40.4044 47.4186 42.7355 47.418C44.284 47.4177 45.8173 47.7224 47.248 48.3148C48.6787 48.9073 49.9786 49.7758 51.0736 50.8708C52.1685 51.9657 53.037 53.2657 53.6295 54.6964C54.2219 56.127 54.5267 57.6604 54.5264 59.2089Z" fill="white"/>
<path d="M54.5255 59.2111C54.5248 60.7587 54.2193 62.2908 53.6264 63.7203C53.0335 65.1497 52.1648 66.4484 51.0701 67.5422C49.9753 68.6359 48.6758 69.5033 47.2458 70.0948C45.8158 70.6864 44.2832 70.9904 42.7357 70.9897C41.8255 70.988 40.9184 70.8837 40.0316 70.6787C42.8117 70.4132 45.4073 69.1696 47.3563 67.1694C49.3052 65.1691 50.481 62.5422 50.6743 59.7561C50.8676 56.9701 50.0658 54.2059 48.4117 51.9557C46.7576 49.7056 44.3585 48.1155 41.6417 47.4686C42.0034 47.4394 42.3662 47.4191 42.738 47.4191C44.2864 47.4189 45.8196 47.7239 47.2501 48.3165C48.6806 48.9091 49.9803 49.7777 51.0749 50.8728C52.1696 51.9679 53.0378 53.268 53.6299 54.6987C54.222 56.1294 54.5263 57.6628 54.5255 59.2111Z" fill="#E8F0FD"/>
<path d="M50.6968 67.7031C48.5845 69.8108 45.7224 70.9946 42.7383 70.9946C39.7543 70.9946 36.8922 69.8108 34.7799 67.7031C35.188 66.6385 35.8062 65.667 36.5977 64.8465C37.3892 64.0259 38.3378 63.3731 39.387 62.9269C38.3059 62.2089 37.4845 61.162 37.0442 59.9412C36.604 58.7203 36.5682 57.3901 36.9422 56.1473C37.3162 54.9045 38.0801 53.815 39.1211 53.0399C40.162 52.2647 41.4247 51.845 42.7225 51.8428C44.0204 51.8407 45.2845 52.2561 46.3281 53.0278C47.3716 53.7994 48.1391 54.8863 48.5173 56.1279C48.8955 57.3694 48.8642 58.6997 48.428 59.922C47.9919 61.1444 47.174 62.194 46.0953 62.9157C47.1443 63.3641 48.0923 64.019 48.8829 64.8415C49.6734 65.6639 50.2903 66.6371 50.6968 67.7031Z" fill="white"/>
<path d="M94.8872 32.8485C94.8857 34.6529 94.3493 36.4163 93.3459 37.9159C92.3425 39.4155 90.9171 40.584 89.2498 41.2738C87.5825 41.9635 85.7481 42.1436 83.9785 41.7912C82.209 41.4388 80.5835 40.5698 79.3077 39.2939C78.0318 38.0181 77.1628 36.3926 76.8104 34.623C76.458 32.8534 76.638 31.0191 77.3278 29.3518C78.0176 27.6845 79.1861 26.2591 80.6857 25.2557C82.1853 24.2523 83.9487 23.7159 85.753 23.7144C86.9526 23.7141 88.1405 23.9501 89.2489 24.4091C90.3572 24.868 91.3643 25.5408 92.2125 26.389C93.0608 27.2373 93.7336 28.2443 94.1925 29.3527C94.6514 30.461 94.8875 31.6489 94.8872 32.8485Z" fill="white"/>
<path d="M91.9206 39.4342C90.2838 41.0662 88.0667 41.9826 85.7553 41.9826C83.4439 41.9826 81.2268 41.0662 79.59 39.4342C79.9062 38.6095 80.3851 37.8569 80.9983 37.2212C81.6116 36.5855 82.3465 36.0798 83.1593 35.7341C82.3218 35.1778 81.6854 34.3668 81.3443 33.421C81.0032 32.4751 80.9755 31.4446 81.2652 30.4818C81.5549 29.519 82.1467 28.6748 82.9531 28.0743C83.7595 27.4737 84.7377 27.1485 85.7432 27.1468C86.7486 27.1451 87.728 27.4668 88.5365 28.0646C89.345 28.6623 89.9397 29.5044 90.2328 30.4662C90.5258 31.4281 90.5016 32.4586 90.1638 33.4056C89.826 34.3526 89.1924 35.1658 88.3568 35.725C89.1692 36.0726 89.9034 36.5802 90.5157 37.2174C91.1279 37.8546 91.6057 38.6085 91.9206 39.4342Z" fill="#E8F0FD"/>
<path d="M90.8751 61.6426C90.8746 63.4968 90.3243 65.3092 89.2939 66.8508C88.2635 68.3924 86.7992 69.5938 85.0861 70.3033C83.3729 71.0127 81.4878 71.1983 79.6692 70.8365C77.8506 70.4747 76.1801 69.5819 74.8689 68.2708C73.5577 66.9597 72.6646 65.2893 72.3026 63.4708C71.9406 61.6522 72.1259 59.7671 72.8352 58.0539C73.5444 56.3406 74.7457 54.8762 76.2871 53.8456C77.8286 52.815 79.641 52.2645 81.4952 52.2639C82.727 52.2637 83.9466 52.5062 85.0846 52.9775C86.2226 53.4487 87.2567 54.1395 88.1277 55.0104C88.9987 55.8813 89.6896 56.9152 90.161 58.0532C90.6324 59.1911 90.8751 60.4108 90.8751 61.6426Z" fill="white"/>
<path d="M87.8286 68.3993C86.1482 70.0754 83.8717 71.0167 81.4983 71.0167C79.1248 71.0167 76.8483 70.0754 75.1678 68.3993C75.4924 67.5524 75.9841 66.7796 76.6138 66.1268C77.2435 65.4741 77.9983 64.9549 78.8331 64.6002C77.9732 64.029 77.3198 63.1963 76.9696 62.2252C76.6194 61.2541 76.591 60.196 76.8884 59.2075C77.1859 58.2189 77.7936 57.3524 78.6215 56.7358C79.4495 56.1192 80.4538 55.7854 81.4862 55.7837C82.5185 55.782 83.524 56.1123 84.3541 56.7261C85.1841 57.3399 85.7946 58.2044 86.0954 59.1919C86.3962 60.1795 86.3714 61.2375 86.0245 62.2098C85.6776 63.1821 85.0271 64.0171 84.1691 64.5911C85.0034 64.9478 85.7575 65.4688 86.3862 66.1231C87.0149 66.7774 87.5054 67.5515 87.8286 68.3993Z" fill="#E8F0FD"/>
<path d="M27.3811 29.5316C27.3804 31.3375 26.8443 33.1026 25.8406 34.6038C24.8368 36.105 23.4105 37.275 21.7419 37.9658C20.0733 38.6565 18.2375 38.837 16.4663 38.4844C14.6952 38.1319 13.0683 37.2621 11.7914 35.985C10.5146 34.708 9.64502 33.081 9.29268 31.3099C8.94034 29.5387 9.12109 27.7028 9.81202 26.0343C10.5029 24.3658 11.673 22.9397 13.1744 21.9361C14.6757 20.9326 16.441 20.3967 18.2469 20.3962C19.4465 20.3961 20.6344 20.6323 21.7428 21.0914C22.8511 21.5504 23.8582 22.2233 24.7064 23.0717C25.5547 23.92 26.2274 24.9271 26.6864 26.0355C27.1453 27.1439 27.3813 28.3319 27.3811 29.5316Z" fill="white"/>
<path d="M24.411 36.1114C22.7746 37.7443 20.5573 38.6613 18.2456 38.6613C15.9339 38.6613 13.7167 37.7443 12.0803 36.1114C12.3965 35.2867 12.8755 34.5342 13.4888 33.8985C14.102 33.2628 14.8369 32.757 15.6497 32.4114C14.8122 31.8551 14.1758 31.044 13.8347 30.0982C13.4936 29.1523 13.4658 28.1219 13.7555 27.159C14.0452 26.1962 14.637 25.3522 15.4434 24.7516C16.2499 24.151 17.2281 23.8258 18.2336 23.8241C19.2391 23.8224 20.2184 24.1441 21.0269 24.7419C21.8354 25.3397 22.4301 26.1817 22.7231 27.1435C23.0162 28.1053 22.992 29.1359 22.6542 30.0829C22.3163 31.0299 21.6828 31.8431 20.8472 32.4023C21.6597 32.7499 22.3939 33.2574 23.0061 33.8946C23.6184 34.5318 24.0962 35.2858 24.411 36.1114Z" fill="#E8F0FD"/>
<path d="M93.5623 12.8598L94.7431 12.9724L94.6304 14.1521C94.6094 14.3696 94.6755 14.5866 94.8144 14.7553C94.9534 14.924 95.1537 15.0307 95.3712 15.0518C95.5887 15.0728 95.8057 15.0066 95.9744 14.8677C96.1432 14.7287 96.2498 14.5285 96.2709 14.3109L96.3835 13.1302L97.5644 13.2428C97.7819 13.2637 97.9988 13.1974 98.1675 13.0584C98.3361 12.9193 98.4425 12.719 98.4634 12.5014C98.4844 12.2839 98.418 12.0669 98.2789 11.8983C98.1399 11.7297 97.9396 11.6233 97.722 11.6023L96.5413 11.4897L96.6539 10.3089C96.6748 10.0913 96.6085 9.87439 96.4695 9.70577C96.3305 9.53716 96.1301 9.43071 95.9126 9.40979C95.6951 9.38888 95.4781 9.4552 95.3095 9.59423C95.1409 9.73326 95.0344 9.93358 95.0135 10.1511L94.9008 11.3319L93.7212 11.2192C93.5036 11.1982 93.2866 11.2644 93.1179 11.4033C92.9491 11.5422 92.8425 11.7425 92.8215 11.9601C92.8004 12.1776 92.8666 12.3946 93.0056 12.5633C93.1445 12.732 93.3448 12.8387 93.5623 12.8598Z" fill="#1369F0"/>
<path d="M75.5961 75.7669L74.4153 75.6542L74.528 74.4746C74.549 74.257 74.4829 74.0401 74.3439 73.8713C74.205 73.7026 74.0047 73.596 73.7872 73.5749C73.5696 73.5538 73.3526 73.62 73.1839 73.759C73.0152 73.8979 72.9086 74.0982 72.8875 74.3157L72.7748 75.4965L71.5952 75.3838C71.3776 75.3628 71.1606 75.429 70.9919 75.5679C70.8232 75.7069 70.7166 75.9071 70.6955 76.1246C70.6744 76.3422 70.7407 76.5592 70.8796 76.7279C71.0185 76.8966 71.2188 77.0032 71.4363 77.0243L72.6171 77.137L72.5044 78.3166C72.4834 78.5341 72.5495 78.7512 72.6885 78.9199C72.8274 79.0886 73.0277 79.1952 73.2452 79.2163C73.4628 79.2374 73.6797 79.1711 73.8485 79.0322C74.0172 78.8933 74.1238 78.6931 74.1449 78.4755L74.2576 77.2947L75.4372 77.4074C75.6548 77.4285 75.8718 77.3623 76.0405 77.2233C76.2092 77.0844 76.3158 76.8841 76.3369 76.6666C76.358 76.449 76.2917 76.2321 76.1528 76.0633C76.0139 75.8946 75.8136 75.7879 75.5961 75.7669Z" fill="#1369F0"/>
<path d="M8.96834 69.8663H1.29894C1.00012 69.8663 0.71349 69.9851 0.502192 70.1964C0.290895 70.4077 0.172241 70.6942 0.172241 70.993C0.172241 71.2919 0.290895 71.5785 0.502192 71.7898C0.71349 72.0011 1.00012 72.1197 1.29894 72.1197H8.96834C9.26717 72.1197 9.5538 72.0011 9.7651 71.7898C9.97639 71.5785 10.095 71.2919 10.095 70.993C10.095 70.6942 9.97639 70.4077 9.7651 70.1964C9.5538 69.9851 9.26717 69.8663 8.96834 69.8663Z" fill="#1369F0"/>
<path d="M102.702 69.8663H88.0074C90.0515 68.258 91.4249 65.9474 91.8611 63.3833C92.2973 60.8192 91.7652 58.1845 90.368 55.9907C88.9707 53.7969 86.8081 52.2007 84.3 51.5118C81.792 50.8229 79.1174 51.0905 76.7956 52.2628L63.9805 34.8812C65.9102 33.2644 67.4761 31.2578 68.5752 28.993L75.5923 31.5236C75.5313 31.9627 75.4994 32.4053 75.4966 32.8486C75.4866 35.4247 76.4424 37.9111 78.1754 39.8173C79.9084 41.7234 82.2927 42.911 84.8582 43.1457C87.4236 43.3805 89.9839 42.6454 92.0341 41.0854C94.0842 39.5254 95.4754 37.2538 95.9332 34.7186C96.391 32.1834 95.8821 29.5687 94.507 27.3902C93.1319 25.2117 90.9904 23.6276 88.5048 22.9503C86.0193 22.273 83.3701 22.5517 81.08 23.7314C78.7898 24.9111 77.0248 26.9062 76.1331 29.3232L69.436 26.9075C70.31 24.3118 70.5712 21.5491 70.1989 18.8357C69.8267 16.1223 68.8312 13.5319 67.2904 11.2676C65.7497 9.00324 63.7056 7.12645 61.3182 5.78419C58.9309 4.44194 56.2652 3.67069 53.5299 3.53093C50.7947 3.39116 48.0642 3.88664 45.5525 4.97857C43.0407 6.0705 40.816 7.72924 39.0525 9.82475C37.289 11.9203 36.0347 14.3957 35.3878 17.057C34.7409 19.7183 34.7191 22.4933 35.324 25.1644L28.1458 26.8815C27.4637 24.3782 25.855 22.228 23.646 20.867C21.437 19.506 18.793 19.0361 16.2503 19.5526C13.7077 20.0691 11.4566 21.5334 9.9537 23.6484C8.45081 25.7634 7.80862 28.3709 8.15733 30.942C8.50605 33.513 9.81954 35.8552 11.8315 37.4935C13.8434 39.1318 16.4032 39.9436 18.9916 39.7642C21.58 39.5848 24.0033 38.4276 25.77 36.5274C27.5366 34.6272 28.5145 32.1262 28.5052 29.5316C28.5052 29.3919 28.4894 29.2567 28.4838 29.1181L35.9685 27.3266C36.8828 29.824 38.345 32.0849 40.2478 33.943C42.1506 35.8011 44.4455 37.2093 46.9639 38.0641L44.6824 46.4546C44.0382 46.3505 43.3869 46.2959 42.7343 46.2913C39.9752 46.2913 37.2887 47.1752 35.0686 48.8136C32.8486 50.4519 31.2119 52.7584 30.3984 55.3949C29.585 58.0313 29.6376 60.859 30.5485 63.4634C31.4595 66.0678 33.1808 68.3117 35.4603 69.8663H17.5119C17.2131 69.8663 16.9265 69.9851 16.7152 70.1964C16.5039 70.4077 16.3852 70.6942 16.3852 70.993C16.3852 71.2919 16.5039 71.5785 16.7152 71.7898C16.9265 72.0011 17.2131 72.1197 17.5119 72.1197H58.3076C58.6064 72.1197 58.8929 72.0011 59.1042 71.7898C59.3155 71.5785 59.4343 71.2919 59.4343 70.993C59.4343 70.6942 59.3155 70.4077 59.1042 70.1964C58.8929 69.9851 58.6064 69.8663 58.3076 69.8663H50.0128C51.9968 68.5156 53.5646 66.638 54.5397 64.4448C55.5147 62.2516 55.8584 59.8298 55.5321 57.4519C55.2058 55.0739 54.2224 52.8343 52.6926 50.9848C51.1628 49.1353 49.1472 47.7494 46.8727 46.983L49.1362 38.6567C53.6299 39.5613 58.2992 38.6811 62.1553 36.2027L74.8948 53.483C73.6698 54.4713 72.6831 55.723 72.0082 57.1449C71.3332 58.5669 70.9872 60.1226 70.996 61.6967C71.0047 63.2707 71.368 64.8225 72.0588 66.2368C72.7496 67.6512 73.7502 68.8917 74.9862 69.8663H67.4147C67.1159 69.8663 66.8293 69.9851 66.618 70.1964C66.4067 70.4077 66.288 70.6942 66.288 70.993C66.288 71.2919 66.4067 71.5785 66.618 71.7898C66.8293 72.0011 67.1159 72.1197 67.4147 72.1197H102.701C103 72.1197 103.286 72.0011 103.497 71.7898C103.709 71.5785 103.827 71.2919 103.827 70.993C103.827 70.6942 103.709 70.4077 103.497 70.1964C103.286 69.9851 103 69.8663 102.701 69.8663H102.702ZM85.7529 24.8411C87.3363 24.84 88.8845 25.3085 90.2017 26.1873C91.5188 27.0662 92.5458 28.3159 93.1526 29.7784C93.7594 31.2409 93.9189 32.8506 93.6108 34.4038C93.3027 35.9569 92.541 37.3839 91.4219 38.5041C90.3028 39.6243 88.8766 40.3874 87.3237 40.697C85.7708 41.0066 84.1611 40.8488 82.6979 40.2434C81.2348 39.638 79.9841 38.6123 79.104 37.296C78.2238 35.9798 77.7538 34.432 77.7533 32.8486C77.756 30.727 78.5994 28.693 80.0988 27.1922C81.5982 25.6913 83.6314 24.8459 85.7529 24.8411V24.8411ZM18.2432 37.5345C16.6598 37.5338 15.1121 37.0636 13.796 36.1834C12.4799 35.3031 11.4544 34.0523 10.8492 32.5891C10.244 31.126 10.0862 29.5162 10.396 27.9634C10.7057 26.4106 11.4689 24.9845 12.5892 23.8655C13.7094 22.7466 15.1364 21.985 16.6895 21.677C18.2426 21.369 19.8522 21.5285 21.3147 22.1354C22.7771 22.7423 24.0268 23.7692 24.9056 25.0863C25.7844 26.4034 26.2529 27.9516 26.2518 29.535C26.2485 31.6571 25.4034 33.6913 23.9019 35.1911C22.4005 36.6909 20.3654 37.5336 18.2432 37.5345V37.5345ZM36.1352 67.4237C36.9192 65.872 38.2261 64.647 39.8251 63.9647C40.0123 63.8856 40.1747 63.7572 40.2949 63.5934C40.4151 63.4295 40.4887 63.2362 40.508 63.0339C40.5273 62.8315 40.4915 62.6277 40.4044 62.4441C40.3173 62.2605 40.1822 62.1038 40.0133 61.9907C39.1329 61.4071 38.4636 60.5557 38.1044 59.5623C37.7452 58.5689 37.7152 57.4863 38.0187 56.4746C38.3223 55.4628 38.9433 54.5756 39.79 53.944C40.6367 53.3124 41.6641 52.97 42.7204 52.9674C43.7767 52.9648 44.8059 53.3021 45.6557 53.9295C46.5055 54.5569 47.1308 55.441 47.4394 56.4513C47.7479 57.4615 47.7232 58.5442 47.369 59.5393C47.0147 60.5345 46.3497 61.3892 45.4722 61.9772C45.3028 62.0898 45.1671 62.2461 45.0794 62.4295C44.9917 62.613 44.9552 62.8167 44.9739 63.0192C44.9926 63.2217 45.0658 63.4154 45.1856 63.5797C45.3055 63.7439 45.4676 63.8727 45.6547 63.9523C47.2541 64.6384 48.56 65.8669 49.3424 67.4214C47.5031 68.9998 45.1592 69.8672 42.7354 69.8663H42.7275C40.3084 69.8681 37.9691 69.0013 36.1352 67.4237V67.4237ZM53.3985 59.2089C53.3995 61.6302 52.5708 63.9787 51.0505 65.8632C50.3069 64.5956 49.2847 63.5137 48.0613 62.6994C48.99 61.6696 49.6 60.3926 49.8175 59.0231C50.0349 57.6536 49.8504 56.2503 49.2864 54.9835C48.7224 53.7167 47.8031 52.6408 46.6399 51.8859C45.4766 51.1311 44.1194 50.7299 42.7327 50.7309C41.3461 50.7319 39.9894 51.1352 38.8273 51.8917C37.6652 52.6483 36.7475 53.7256 36.1854 54.9932C35.6232 56.2609 35.4408 57.6643 35.6603 59.0335C35.8798 60.4027 36.4917 61.6789 37.4219 62.7073C36.1972 63.5181 35.173 64.5969 34.4271 65.8621C33.3619 64.5331 32.6307 62.968 32.2949 61.2982C31.9591 59.6284 32.0285 57.9024 32.4972 56.2649C32.966 54.6274 33.8204 53.1261 34.9889 51.8869C36.1573 50.6477 37.6058 49.7066 39.213 49.1425C40.8201 48.5784 42.539 48.4077 44.2257 48.6448C45.9124 48.8819 47.5176 49.5199 48.9069 50.5053C50.2962 51.4906 51.4291 52.7946 52.2106 54.308C52.9921 55.8213 53.3995 57.5 53.3985 59.2032V59.2089ZM42.7444 32.9567C43.8771 30.5231 45.8695 28.5941 48.3385 27.5407C48.5255 27.4614 48.6875 27.3332 48.8075 27.1694C48.9276 27.0056 49.0011 26.8124 49.0204 26.6103C49.0397 26.4082 49.0039 26.2046 48.917 26.0211C48.8301 25.8376 48.6953 25.681 48.5267 25.5678C47.2024 24.6899 46.1957 23.4091 45.6555 21.9149C45.1152 20.4206 45.0701 18.7922 45.5268 17.2704C45.9835 15.7485 46.9177 14.414 48.1914 13.4641C49.4651 12.5142 51.0107 11.9993 52.5996 11.9956C54.1885 11.9919 55.7365 12.4995 57.0146 13.4435C58.2927 14.3874 59.2332 15.7176 59.697 17.2373C60.1607 18.757 60.1232 20.3856 59.5899 21.8823C59.0567 23.3791 58.0561 24.6645 56.7359 25.5487C56.5665 25.6612 56.4307 25.8176 56.343 26.001C56.2553 26.1845 56.2188 26.3882 56.2376 26.5907C56.2563 26.7932 56.3294 26.9868 56.4493 27.1511C56.5691 27.3154 56.7312 27.4441 56.9184 27.5238C59.3881 28.582 61.3788 30.5169 62.5068 32.9556C59.7949 35.3975 56.2751 36.7488 52.6258 36.749C48.9766 36.7493 45.4565 35.3983 42.7444 32.9567V32.9567ZM37.1312 21.2605C37.1248 18.7527 37.7271 16.2808 38.8864 14.0571C40.0457 11.8334 41.7274 9.92425 43.7871 8.49367C45.8468 7.06309 48.223 6.15384 50.7115 5.84388C53.2001 5.53393 55.7267 5.83258 58.0744 6.71422C60.422 7.59586 62.5206 9.03412 64.19 10.9055C65.8594 12.7769 67.0497 15.0255 67.6586 17.4583C68.2674 19.891 68.2768 22.4351 67.6858 24.8723C67.0948 27.3094 65.9212 29.5667 64.2656 31.4504C63.1498 29.3108 61.4686 27.5181 59.405 26.2675C60.765 24.9225 61.6945 23.2033 62.075 21.3287C62.4556 19.4542 62.2702 17.5087 61.5423 15.7398C60.8144 13.9709 59.5769 12.4584 57.9872 11.3945C56.3974 10.3307 54.5273 9.76359 52.6144 9.76534C50.7016 9.76709 48.8325 10.3376 47.2447 11.4044C45.6569 12.4711 44.4223 13.9859 43.6976 15.7562C42.973 17.5264 42.7911 19.4722 43.1751 21.3461C43.5591 23.22 44.4916 24.9373 45.8541 26.2799C43.7894 27.5265 42.1062 29.3156 40.9879 31.4526C38.5039 28.6383 37.1325 25.0142 37.1312 21.2605V21.2605ZM73.2487 61.6426C73.2463 60.0298 73.7168 58.4516 74.6018 57.1033C75.4869 55.755 76.7476 54.6957 78.2283 54.0564C79.709 53.4171 81.3447 53.2258 82.9329 53.5063C84.5212 53.7867 85.9924 54.5265 87.1647 55.6342C88.3369 56.742 89.1587 58.169 89.5284 59.7389C89.8982 61.3087 89.7997 62.9526 89.2451 64.4671C88.6905 65.9815 87.7042 67.3002 86.4081 68.2601C85.1119 69.2199 83.5629 69.7787 81.9526 69.8675H81.0399C78.9368 69.7502 76.9582 68.8329 75.5096 67.3036C74.061 65.7744 73.2521 63.749 73.2487 61.6426V61.6426Z" fill="#1369F0"/>
</svg>
