<svg width="26" height="12" viewBox="0 0 26 12" fill="none" xmlns="http://www.w3.org/2000/svg">
<path d="M24.6252 11.2253L24.6215 11.2316C24.2152 11.8491 23.4676 12.1253 22.7526 11.9465L19.3474 11.0728C18.1312 10.7603 17.3738 9.55029 17.6226 8.32029L17.9339 6.7853C14.7651 5.6153 11.2787 5.62278 8.10874 6.77778L8.41147 8.32529C8.65147 9.55404 7.89002 10.7578 6.67502 11.0641L3.24881 11.9316C2.53381 12.1103 1.79379 11.8265 1.38754 11.224C-0.293706 8.70154 0.485214 4.82903 3.12521 3.34028C4.68521 2.46028 6.3339 1.80402 8.0239 1.37277C12.9726 0.109024 18.2902 0.767781 22.864 3.35653C25.4927 4.84403 26.3002 8.7128 24.6252 11.2253Z" fill="white"/>
</svg>
