<svg width="24" height="24" viewBox="0 0 24 24" fill="none" xmlns="http://www.w3.org/2000/svg">
<path d="M22.749 7.55984V16.4397C22.749 17.0217 22.423 17.5407 21.897 17.7927C21.687 17.8947 21.4629 17.9439 21.2419 17.9439C20.9109 17.9439 20.584 17.8327 20.311 17.6157L17.749 15.5618V15.9998C17.749 18.4178 16.417 19.7498 13.999 19.7498H8.99902C8.58502 19.7498 8.24902 19.4138 8.24902 18.9998C8.24902 18.5858 8.58502 18.2498 8.99902 18.2498H13.999C15.576 18.2498 16.249 17.5768 16.249 15.9998V10.9998C16.249 10.5858 16.585 10.2498 16.999 10.2498C17.413 10.2498 17.749 10.5858 17.749 10.9998V13.6397L21.248 16.4439L21.249 7.55984C20.855 7.59584 20.4741 7.27975 20.4431 6.86575C20.4131 6.45275 20.7201 6.09279 21.1331 6.06179C21.5621 6.03279 21.9669 6.17769 22.2739 6.46169C22.5799 6.74669 22.749 7.13684 22.749 7.55984ZM21.5291 3.52981L3.52905 21.5298C3.38305 21.6758 3.19102 21.7498 2.99902 21.7498C2.80702 21.7498 2.61499 21.6768 2.46899 21.5298C2.17599 21.2368 2.17599 20.7618 2.46899 20.4688L3.427 19.5108C2.012 19.0298 1.25 17.8258 1.25 15.9988V7.9988C1.25 5.5808 2.582 4.2488 5 4.2488H14C15.488 4.2488 16.58 4.77476 17.188 5.75076L20.47 2.46877C20.763 2.17577 21.238 2.17577 21.531 2.46877C21.824 2.76177 21.8221 3.23681 21.5291 3.52981ZM4.70605 18.2327L16.071 6.8677C15.866 6.2907 15.379 5.74978 13.999 5.74978H4.99902C3.42202 5.74978 2.74902 6.42278 2.74902 7.99978V15.9998C2.74902 17.4718 3.34505 18.1477 4.70605 18.2327Z" fill="#DF2D2D"/>
</svg>
