<svg width="20" height="20" viewBox="0 0 20 20" fill="none" xmlns="http://www.w3.org/2000/svg">
<path d="M10 6.24997C7.93202 6.24997 6.25001 7.93197 6.25001 9.99997C6.25001 12.068 7.93202 13.75 10 13.75C12.068 13.75 13.75 12.068 13.75 9.99997C13.75 7.93197 12.068 6.24997 10 6.24997ZM10 12.25C8.75902 12.25 7.75001 11.241 7.75001 9.99997C7.75001 8.75897 8.75902 7.74997 10 7.74997C11.241 7.74997 12.25 8.75897 12.25 9.99997C12.25 11.241 11.241 12.25 10 12.25ZM19.208 11.953C18.514 11.551 18.082 10.803 18.081 9.99997C18.08 9.19897 18.509 8.45198 19.212 8.04498C19.727 7.74598 19.903 7.08296 19.605 6.56696L17.933 3.68097C17.635 3.16597 16.972 2.98898 16.456 3.28598C15.757 3.68898 14.888 3.68898 14.187 3.28198C13.496 2.88098 13.066 2.13598 13.066 1.33698C13.066 0.737975 12.578 0.250977 11.979 0.250977H8.024C7.424 0.250977 6.93703 0.737975 6.93703 1.33698C6.93703 2.13598 6.50701 2.88097 5.81401 3.28397C5.11501 3.68897 4.24702 3.68996 3.54802 3.28696C3.03102 2.98896 2.36903 3.16698 2.07103 3.68198L0.397018 6.57098C0.0990181 7.08598 0.276005 7.74796 0.796005 8.04996C1.489 8.45096 1.92102 9.19796 1.92302 9.99896C1.92502 10.801 1.49501 11.55 0.793014 11.957C0.543014 12.102 0.363016 12.335 0.289016 12.615C0.215016 12.894 0.253025 13.185 0.398025 13.436L2.06902 16.32C2.36702 16.836 3.03002 17.015 3.54802 16.716C4.24702 16.313 5.11402 16.314 5.80302 16.713L5.80501 16.714C5.80801 16.716 5.81102 16.718 5.81502 16.72C6.50602 17.121 6.93501 17.866 6.93401 18.666C6.93401 19.265 7.421 19.752 8.02 19.752H11.979C12.578 19.752 13.065 19.265 13.065 18.667C13.065 17.867 13.495 17.122 14.189 16.719C14.887 16.314 15.755 16.312 16.455 16.716C16.971 17.014 17.633 16.837 17.932 16.322L19.606 13.433C19.903 12.916 19.726 12.253 19.208 11.953ZM16.831 15.227C15.741 14.752 14.476 14.817 13.434 15.42C12.401 16.019 11.719 17.078 11.587 18.25H8.41002C8.28002 17.078 7.596 16.017 6.563 15.419C5.523 14.816 4.25602 14.752 3.16902 15.227L1.89302 13.024C2.84802 12.321 3.425 11.193 3.42101 9.99298C3.418 8.80098 2.84201 7.68097 1.89201 6.97797L3.16902 4.77396C4.25702 5.24796 5.52402 5.18396 6.56602 4.57996C7.59802 3.98196 8.28 2.92198 8.412 1.75098H11.587C11.718 2.92298 12.401 3.98197 13.436 4.58197C14.475 5.18497 15.742 5.24896 16.831 4.77496L18.108 6.97797C17.155 7.67997 16.579 8.80597 16.581 10.004C16.582 11.198 17.158 12.32 18.109 13.025L16.831 15.227Z" fill="#0B224B"/>
</svg>
