<svg width="20" height="20" viewBox="0 0 20 20" fill="none" xmlns="http://www.w3.org/2000/svg">
<path d="M16 12.25C14.642 12.25 13.461 12.983 12.803 14.068L7.47192 11.403C7.64792 10.969 7.75 10.497 7.75 10C7.75 9.503 7.64792 9.03098 7.47192 8.59698L12.803 5.93201C13.461 7.01601 14.642 7.75 16 7.75C18.067 7.75 19.75 6.068 19.75 4C19.75 1.932 18.067 0.25 16 0.25C13.933 0.25 12.25 1.932 12.25 4C12.25 4.173 12.278 4.33901 12.301 4.50601L6.63599 7.33801C5.95799 6.66601 5.02702 6.25 3.99902 6.25C1.93202 6.25 0.249023 7.932 0.249023 10C0.249023 12.068 1.93202 13.75 3.99902 13.75C5.02602 13.75 5.95799 13.333 6.63599 12.662L12.301 15.494C12.278 15.661 12.25 15.827 12.25 16C12.25 18.068 13.933 19.75 16 19.75C18.067 19.75 19.75 18.068 19.75 16C19.75 13.932 18.067 12.25 16 12.25ZM16 1.75C17.24 1.75 18.25 2.759 18.25 4C18.25 5.241 17.24 6.25 16 6.25C14.76 6.25 13.75 5.241 13.75 4C13.75 2.759 14.76 1.75 16 1.75ZM4 12.25C2.76 12.25 1.75 11.241 1.75 10C1.75 8.759 2.76 7.75 4 7.75C5.24 7.75 6.25 8.759 6.25 10C6.25 11.241 5.24 12.25 4 12.25ZM16 18.25C14.76 18.25 13.75 17.241 13.75 16C13.75 14.759 14.76 13.75 16 13.75C17.24 13.75 18.25 14.759 18.25 16C18.25 17.241 17.24 18.25 16 18.25Z" fill="white"/>
</svg>
