<svg width="24" height="24" viewBox="0 0 24 24" fill="none" xmlns="http://www.w3.org/2000/svg">
<path d="M3.12988 20.8701C2.86988 20.8701 2.60893 20.7601 2.42993 20.5701C2.32993 20.4801 2.25984 20.37 2.20984 20.25C2.15984 20.13 2.12988 20.0001 2.12988 19.8701C2.12988 19.8001 2.1399 19.7299 2.1499 19.6699C2.1609 19.6099 2.17994 19.54 2.21094 19.48C2.23094 19.42 2.2709 19.3601 2.3009 19.3101C2.3409 19.2601 2.38091 19.2099 2.43091 19.1599C2.80091 18.7899 3.47082 18.7899 3.84082 19.1599C4.02082 19.3399 4.13086 19.6001 4.13086 19.8701C4.13086 20.0001 4.10991 20.13 4.06091 20.25C4.01091 20.37 3.93082 20.4801 3.84082 20.5701C3.64882 20.7601 3.39888 20.8701 3.12988 20.8701ZM6.72485 20.6201C7.13485 20.5641 7.42182 20.1859 7.36682 19.7749C7.22382 18.7279 6.74694 17.7729 5.98694 17.0129C5.22794 16.2539 4.27285 15.777 3.22485 15.634C2.82085 15.583 2.43688 15.8649 2.37988 16.2749C2.32388 16.6859 2.60985 17.0641 3.02185 17.1201C3.74285 17.2191 4.4009 17.549 4.9259 18.074C5.4519 18.6 5.78088 19.259 5.87988 19.979C5.93188 20.355 6.25283 20.627 6.62183 20.627C6.65583 20.627 6.68985 20.6251 6.72485 20.6201ZM10.0569 20.748C10.4699 20.717 10.7799 20.3571 10.7479 19.9441C10.5989 17.9601 9.73783 16.089 8.32483 14.675C6.91083 13.262 5.03991 12.401 3.05591 12.252C2.64191 12.219 2.28385 12.5301 2.25085 12.9441C2.21985 13.3571 2.52889 13.717 2.94189 13.748C4.56889 13.871 6.10282 14.5771 7.26282 15.7361C8.42182 16.8961 9.12788 18.4299 9.24988 20.0559C9.27988 20.4499 9.60783 20.75 9.99683 20.75C10.0188 20.75 10.0369 20.75 10.0569 20.748ZM21.7499 17V8C21.7499 5.582 20.4179 4.25 17.9999 4.25H5.99988C3.58188 4.25 2.24988 5.582 2.24988 8V9C2.24988 9.414 2.58588 9.75 2.99988 9.75C3.41388 9.75 3.74988 9.414 3.74988 9V8C3.74988 6.423 4.42288 5.75 5.99988 5.75H17.9999C19.5769 5.75 20.2499 6.423 20.2499 8V17C20.2499 18.577 19.5769 19.25 17.9999 19.25H13.9999C13.5859 19.25 13.2499 19.586 13.2499 20C13.2499 20.414 13.5859 20.75 13.9999 20.75H17.9999C20.4179 20.75 21.7499 19.418 21.7499 17Z" fill="white"/>
</svg>
