<svg width="24" height="24" viewBox="0 0 24 24" fill="none" xmlns="http://www.w3.org/2000/svg">
<path d="M18 4H6C3.582 4 2.25 5.41396 2.25 7.98096V15.519C2.25 18.086 3.582 19.5 6 19.5H18C20.418 19.5 21.75 18.086 21.75 15.519V7.98096C21.75 5.41396 20.418 4 18 4ZM20.25 15.519C20.25 17.258 19.577 18 18 18H6C4.423 18 3.75 17.258 3.75 15.519V7.98096C3.75 6.24196 4.423 5.5 6 5.5H18C19.577 5.5 20.25 6.24196 20.25 7.98096V15.519Z" fill="#0B224B"/>
<path d="M14 5H20C20.5523 5 21 5.44772 21 6V9H15C14.4477 9 14 8.55228 14 8V5Z" fill="#0B224B"/>
</svg>
