<svg width="24" height="24" viewBox="0 0 24 24" fill="none" xmlns="http://www.w3.org/2000/svg">
<path d="M21.271 6.28433C21.177 6.05133 20.972 5.88132 20.726 5.83032C20.479 5.77932 20.224 5.85633 20.047 6.03333L17.865 8.20435C17.578 8.49035 17.111 8.49034 16.823 8.20334L15.798 7.17835C15.511 6.89135 15.51 6.42335 15.797 6.13535L17.968 3.95435C18.145 3.77635 18.221 3.52133 18.171 3.27533C18.121 3.02933 17.95 2.82435 17.717 2.73035C15.795 1.95335 13.654 2.13134 11.841 3.21634C11.019 3.70934 10.323 4.38633 9.83 5.17233C9.83 5.17233 9.82899 5.17335 9.82899 5.17435L9.74699 5.30933C8.93499 6.65233 8.621 8.15935 8.84 9.67035C8.871 9.88435 8.792 10.1103 8.629 10.2743L3.306 15.5973C2.625 16.2783 2.25 17.1833 2.25 18.1473C2.25 19.1113 2.625 20.0154 3.306 20.6964C3.987 21.3773 4.892 21.7523 5.856 21.7523C6.819 21.7523 7.724 21.3773 8.405 20.6964L13.728 15.3733C13.891 15.2103 14.118 15.1313 14.332 15.1623C15.84 15.3813 17.344 15.0713 18.681 14.2663C19.544 13.7473 20.269 13.0223 20.774 12.1733C21.869 10.3593 22.051 8.21333 21.271 6.28433ZM19.487 11.4013C19.106 12.0423 18.56 12.5883 17.907 12.9793C16.598 13.7683 15.357 13.7933 14.548 13.6763C13.864 13.5763 13.164 13.8143 12.668 14.3113L7.345 19.6343C6.548 20.4303 5.162 20.4293 4.367 19.6343C3.97 19.2363 3.75 18.7073 3.75 18.1453C3.75 17.5833 3.969 17.0543 4.367 16.6563L9.69099 11.3333C10.187 10.8363 10.424 10.1343 10.325 9.45435C10.157 8.29235 10.401 7.12734 11.035 6.07834L11.102 5.96832C11.47 5.38232 11.993 4.87533 12.612 4.50333C13.886 3.74033 15.082 3.66533 16 3.80533L14.733 5.07733C13.865 5.95033 13.866 7.36835 14.737 8.23935L15.762 9.26334C16.633 10.1353 18.051 10.1363 18.924 9.26733L20.195 8.00235C20.364 9.15735 20.123 10.3483 19.487 11.4013ZM6.02 17.0003H6.00999C5.45799 17.0003 5.015 17.4483 5.015 18.0003C5.015 18.5523 5.468 19.0003 6.02 19.0003C6.572 19.0003 7.02 18.5523 7.02 18.0003C7.02 17.4483 6.572 17.0003 6.02 17.0003Z" fill="#0B224B"/>
</svg>
