<svg width="23" height="23" viewBox="0 0 23 23" fill="none" xmlns="http://www.w3.org/2000/svg">
<path d="M20.7066 16.4375L14.375 4.59618C13.1483 2.30193 9.85262 2.30193 8.625 4.59618L2.29335 16.4375C1.16827 18.542 2.69589 21.0834 5.08693 21.0834H17.9131C20.3031 21.0834 21.8317 18.5411 20.7066 16.4375ZM10.7812 9.58344C10.7812 9.18669 11.1032 8.86469 11.5 8.86469C11.8967 8.86469 12.2187 9.18669 12.2187 9.58344V13.4168C12.2187 13.8135 11.8967 14.1355 11.5 14.1355C11.1032 14.1355 10.7812 13.8135 10.7812 13.4168V9.58344ZM11.5192 17.2501C10.9902 17.2501 10.5559 16.8208 10.5559 16.2918C10.5559 15.7628 10.9806 15.3334 11.5096 15.3334H11.5192C12.0491 15.3334 12.4775 15.7628 12.4775 16.2918C12.4775 16.8208 12.0482 17.2501 11.5192 17.2501Z" fill="white"/>
</svg>
