<svg width="28" height="26" viewBox="0 0 28 26" fill="none" xmlns="http://www.w3.org/2000/svg">
<path d="M10.2613 11.4375C7.33129 11.4375 4.94879 9.05375 4.94879 6.125C4.94879 3.19625 7.33129 0.8125 10.2613 0.8125C13.1913 0.8125 15.5738 3.19625 15.5738 6.125C15.5738 9.05375 13.1913 11.4375 10.2613 11.4375ZM10.2613 2.6875C8.36504 2.6875 6.82379 4.22875 6.82379 6.125C6.82379 8.02125 8.36504 9.5625 10.2613 9.5625C12.1575 9.5625 13.6988 8.02125 13.6988 6.125C13.6988 4.22875 12.1563 2.6875 10.2613 2.6875ZM15.2462 25.1875H5.25381C2.22881 25.1875 0.5625 23.5313 0.5625 20.5238C0.5625 17.1976 2.445 13.3125 7.75 13.3125H12.75C18.055 13.3125 19.9375 17.1963 19.9375 20.5238C19.9375 23.5313 18.2712 25.1875 15.2462 25.1875ZM7.75 15.1875C2.82125 15.1875 2.4375 19.2713 2.4375 20.5238C2.4375 22.4788 3.28006 23.3125 5.25381 23.3125H15.2462C17.2199 23.3125 18.0625 22.4788 18.0625 20.5238C18.0625 19.2726 17.6788 15.1875 12.75 15.1875H7.75ZM19.7001 11.9874C18.5638 11.9874 17.4963 11.5549 16.695 10.7699C16.325 10.4074 16.3176 9.81379 16.6801 9.44379C17.0438 9.07379 17.6374 9.0688 18.0062 9.43005C18.4549 9.87005 19.0576 10.1124 19.7001 10.1124C21.0813 10.1124 22.1638 9.03121 22.1638 7.64996C22.1638 6.29246 21.0588 5.1875 19.7001 5.1875C19.3151 5.1875 18.9675 5.26626 18.6663 5.42126C18.2075 5.65876 17.6413 5.4763 17.4038 5.0163C17.1663 4.5563 17.3487 3.99128 17.8087 3.75378C18.3787 3.46128 19.0151 3.3125 19.7001 3.3125C22.0926 3.3125 24.0388 5.25871 24.0388 7.64996C24.0375 10.0412 22.0926 11.9874 19.7001 11.9874ZM23.575 22.6875H22.725C22.2075 22.6875 21.7875 22.2675 21.7875 21.75C21.7875 21.2325 22.2075 20.8125 22.725 20.8125H23.575C25.0063 20.8125 25.5625 20.2626 25.5625 18.8501C25.5625 17.9263 25.2787 14.9125 21.6375 14.9125H19.7487C19.2312 14.9125 18.8112 14.4925 18.8112 13.975C18.8112 13.4575 19.2312 13.0375 19.7487 13.0375H21.6375C25.9187 13.0375 27.4375 16.1688 27.4375 18.8501C27.4375 21.2888 26.03 22.6875 23.575 22.6875Z" fill="white"/>
</svg>
