<svg width="24" height="24" viewBox="0 0 24 24" fill="none" xmlns="http://www.w3.org/2000/svg">
<path d="M5.625 6.25H14.375C16.552 6.25 17.75 7.448 17.75 9.625V18.375C17.75 20.552 16.552 21.75 14.375 21.75H5.625C3.448 21.75 2.25 20.552 2.25 18.375V9.625C2.25 7.448 3.448 6.25 5.625 6.25ZM3.75 18.375C3.75 19.707 4.293 20.25 5.625 20.25H14.375C15.707 20.25 16.25 19.707 16.25 18.375V9.625C16.25 8.293 15.707 7.75 14.375 7.75H5.625C4.293 7.75 3.75 8.293 3.75 9.625V18.375ZM20.25 5.62V14.38C20.25 15.578 19.7669 15.873 19.6079 15.971C19.2539 16.187 19.1441 16.649 19.3601 17.002C19.5021 17.233 19.748 17.36 20.001 17.36C20.134 17.36 20.2701 17.324 20.3921 17.25C21.2931 16.698 21.75 15.733 21.75 14.38V5.62C21.75 3.478 20.5209 2.25 18.3799 2.25H9.62012C7.93512 2.25 7.13 2.98897 6.75 3.60797C6.534 3.96097 6.64505 4.42298 6.99805 4.63898C7.35205 4.85598 7.81205 4.74399 8.02905 4.39099C8.12605 4.23199 8.42212 3.74902 9.62012 3.74902H18.3799C19.7079 3.75002 20.25 4.292 20.25 5.62Z" fill="#0B224B"/>
</svg>
